<svg width="621" height="666" viewBox="0 0 621 666" fill="none" xmlns="http://www.w3.org/2000/svg">
<circle cx="357" cy="264" r="264" fill="#FCD700"/>
<path d="M444.634 418.529H437.696C436.705 411.478 433.525 404.681 428.135 399.27C423.502 394.619 417.676 391.448 411.35 390.068C409.248 384.422 405.957 379.271 401.67 374.967C393.698 366.964 383.098 362.557 371.822 362.557C370.239 362.557 368.672 362.654 367.12 362.825C361.319 346.343 345.64 334.5 327.25 334.5C310.633 334.5 296.234 344.174 289.332 358.2C283.901 346.968 272.435 339.205 259.197 339.205C240.875 339.205 225.943 354.072 225.716 372.435C213.331 375.293 203.566 385.082 200.645 397.5H129.586V333.999C129.586 329.856 126.228 326.499 122.086 326.499C117.944 326.499 114.586 329.856 114.586 333.999V545.895H110.516V237.867H114.586V299.999C114.586 304.142 117.944 307.499 122.086 307.499C126.228 307.499 129.586 304.142 129.586 299.999V166.5C129.586 159.607 123.979 154 117.086 154H108.016C101.123 154 95.516 159.607 95.516 166.5V397.5H90.167C83.274 397.5 77.667 403.107 77.667 410V450.097C77.667 456.99 83.274 462.597 90.167 462.597H95.516V545.895H94.243C87.35 545.895 81.743 551.503 81.743 558.395V584.038H55.042C48.149 584.038 42.542 589.645 42.542 596.538V610.525H21.862C9.807 610.525 0 620.333 0 632.387C0 639.768 3.681 646.301 9.299 650.262L6.364 653.197C3.435 656.127 3.435 660.875 6.364 663.804C7.828 665.268 9.747 666 11.667 666C13.586 666 15.506 665.268 16.97 663.804L26.526 654.248H30.923C28.905 657.171 29.191 661.203 31.792 663.804C33.256 665.268 35.176 666 37.095 666C39.015 666 40.934 665.268 42.398 663.804L51.954 654.248H56.35C54.333 657.17 54.619 661.203 57.219 663.803C58.684 665.268 60.603 666 62.523 666C64.442 666 66.362 665.268 67.826 663.804L77.382 654.248H81.778C79.761 657.17 80.047 661.203 82.647 663.803C84.112 665.268 86.031 666 87.951 666C89.87 666 91.79 665.268 93.254 663.804L102.81 654.248H106.673V658.5C106.673 662.643 110.031 666 114.173 666C118.315 666 121.673 662.643 121.673 658.5V654.248H125.536L135.092 663.804C136.557 665.268 138.476 666 140.395 666C142.314 666 144.234 665.268 145.699 663.803C148.299 661.203 148.585 657.17 146.568 654.248H150.965L160.521 663.804C161.985 665.268 163.905 666 165.824 666C167.743 666 169.663 665.268 171.127 663.804C173.728 661.203 174.014 657.171 171.996 654.248H176.392L185.948 663.804C187.412 665.268 189.332 666 191.251 666C193.17 666 195.09 665.268 196.554 663.804C199.155 661.203 199.441 657.171 197.423 654.248H201.819L211.375 663.804C212.839 665.268 214.759 666 216.678 666C218.598 666 220.517 665.268 221.981 663.804C224.91 660.874 224.91 656.126 221.981 653.197L217.62 648.836C219.626 647.081 221.309 644.968 222.568 642.595H314.567C318.709 642.595 322.067 639.237 322.067 635.095C322.067 630.952 318.709 627.595 314.567 627.595H224.57C222.378 617.839 213.651 610.526 203.243 610.526H182.561V596.539C182.561 589.646 176.954 584.039 170.061 584.039H143.36V558.396C143.36 551.504 137.753 545.896 130.86 545.896H129.587V462.598H419.92L400.772 566.399L307.281 516.594C306.403 495.353 288.856 478.34 267.402 478.34C245.389 478.34 227.48 496.248 227.48 518.261C227.48 540.274 245.389 558.183 267.402 558.183C274.9 558.183 281.914 556.093 287.913 552.481L393.012 608.47L390.166 623.901C389.822 625.765 387.624 627.595 385.728 627.595H354.567C350.425 627.595 347.067 630.952 347.067 635.095C347.067 639.237 350.425 642.595 354.567 642.595H385.727C394.835 642.595 403.265 635.578 404.916 626.621L407.559 612.292C414.283 611.608 420.264 607.651 423.486 601.604C428.772 591.681 425.001 579.308 415.079 574.021L414.66 573.798L435.173 462.598H444.634C451.527 462.598 457.134 456.991 457.134 450.098V431.031C457.134 424.137 451.527 418.529 444.634 418.529ZM110.517 169H114.587V222.867H110.517V169ZM96.744 560.894H128.361V584.037H96.744V560.894ZM92.669 412.5H95.518V426.568H92.669V412.5ZM92.669 447.597V441.569H95.518V447.597H92.669ZM167.563 599.037V610.524H158.567C154.425 610.524 151.067 613.881 151.067 618.024C151.067 622.167 154.425 625.524 158.567 625.524H203.244C207.028 625.524 210.106 628.602 210.106 632.386C210.106 636.169 207.027 639.247 203.244 639.247H21.862C18.078 639.247 15 636.169 15 632.386C15 628.602 18.079 625.524 21.862 625.524H119.567C123.709 625.524 127.067 622.167 127.067 618.024C127.067 613.881 123.709 610.524 119.567 610.524H57.542V599.037H167.563ZM267.402 543.182C253.66 543.182 242.48 532.002 242.48 518.26C242.48 504.519 253.66 493.339 267.402 493.339C277.193 493.339 285.676 499.019 289.748 507.252L281.52 502.869C278.577 501.301 275.266 500.473 271.945 500.473C264.389 500.473 257.489 504.614 253.939 511.278C251.377 516.085 250.841 521.601 252.43 526.811C254.018 532.02 257.54 536.299 262.347 538.86L270.151 543.017C269.247 543.117 268.332 543.182 267.402 543.182ZM410.249 594.55C409.31 596.313 407.483 597.408 405.481 597.408C404.599 597.408 403.751 597.194 402.959 596.772L269.4 525.621C268.129 524.944 267.198 523.812 266.778 522.435C266.358 521.059 266.5 519.601 267.177 518.331C268.116 516.567 269.944 515.473 271.945 515.473C272.827 515.473 273.675 515.686 274.467 516.108L408.027 587.258C410.649 588.655 411.646 591.927 410.249 594.55ZM371.823 377.558C379.081 377.558 385.908 380.398 391.044 385.554C394.616 389.14 397.117 393.635 398.277 398.552C399.041 401.788 401.843 404.136 405.163 404.319C409.824 404.577 414.208 406.544 417.508 409.857C419.984 412.342 421.624 415.35 422.438 418.53H391.746C388.369 407.236 377.936 398.982 365.609 398.982H361.027C359.652 393.646 356.827 388.899 353.025 385.151C358.111 380.254 364.76 377.558 371.823 377.558ZM327.252 349.5C338.864 349.5 348.798 356.834 352.723 367.133C348.803 369.135 345.175 371.756 341.976 374.968C341.157 375.79 340.393 376.645 339.657 377.517C337.273 376.897 334.776 376.565 332.202 376.565C325.957 376.565 319.967 378.556 315.013 382.085C311.424 376.955 306.474 372.944 300.74 370.505C303.618 358.471 314.409 349.5 327.252 349.5ZM231.116 386.715C231.27 386.697 232.623 386.589 233.154 386.587C233.369 386.602 233.885 386.616 233.927 386.617C238.225 386.783 242.325 388.431 245.537 391.334C248.611 394.112 253.353 393.873 256.13 390.798C258.907 387.725 258.667 382.983 255.594 380.205C251.339 376.359 246.224 373.712 240.735 372.443C240.956 362.351 249.145 354.205 259.198 354.205C269.39 354.205 277.682 362.573 277.682 372.858C277.682 373.477 277.651 374.093 277.587 374.742C277.365 376.98 278.16 379.2 279.752 380.789C281.344 382.379 283.564 383.172 285.804 382.942C286.442 382.878 287.048 382.846 287.657 382.846C295.364 382.846 302.105 387.62 304.837 394.71C303.29 398.324 302.429 402.303 302.429 406.48C302.429 410.623 305.787 413.98 309.929 413.98C314.071 413.98 317.429 410.623 317.429 406.48C317.429 403.598 318.259 400.917 319.668 398.634C319.748 398.504 320.315 397.651 320.533 397.366C323.31 393.745 327.621 391.562 332.201 391.562C340.347 391.562 346.974 398.253 346.974 406.479C346.974 410.622 350.332 413.979 354.474 413.979H365.608C369.429 413.979 372.838 415.755 375.092 418.527H271.012V410C271.012 403.107 265.405 397.5 258.512 397.5H216.44C219.077 391.688 224.57 387.466 231.116 386.715ZM129.588 412.5H256.013V426.568H129.588V412.5ZM442.135 447.597H129.588V441.569H258.514C263.833 441.569 268.375 438.223 270.177 433.53H442.135V447.597Z" fill="#3C3C3C"/>
<path d="M325.566 199.291C298.288 199.291 276.095 221.785 276.095 249.435C276.095 277.084 298.287 299.577 325.566 299.577C352.846 299.577 375.04 277.084 375.04 249.435C375.04 221.786 352.846 199.291 325.566 199.291ZM325.566 284.578C306.559 284.578 291.095 268.813 291.095 249.436C291.095 230.058 306.558 214.292 325.566 214.292C344.575 214.292 360.04 230.058 360.04 249.436C360.04 268.813 344.575 284.578 325.566 284.578Z" fill="#3C3C3C"/>
<path d="M399.568 287.369C383.186 287.369 369.857 300.856 369.857 317.435C369.857 334.013 383.186 347.5 399.568 347.5C415.949 347.5 429.276 334.013 429.276 317.435C429.276 300.857 415.949 287.369 399.568 287.369ZM399.568 332.5C391.457 332.5 384.857 325.741 384.857 317.435C384.857 309.128 391.457 302.369 399.568 302.369C407.678 302.369 414.276 309.128 414.276 317.435C414.276 325.742 407.678 332.5 399.568 332.5Z" fill="#3C3C3C"/>
</svg>
