<svg width="673" height="667" viewBox="0 0 673 667" fill="none" xmlns="http://www.w3.org/2000/svg">
<circle cx="409" cy="264" r="264" fill="#FCD700"/>
<path d="M128.111 584.832C128.111 588.844 131.364 592.097 135.377 592.097C139.389 592.097 142.642 588.844 142.642 584.832V568.576C142.642 564.563 139.389 561.31 135.377 561.31C131.364 561.31 128.111 564.563 128.111 568.576V584.832Z" fill="#3C3C3C"/>
<path d="M135.84 542.227C139.852 542.227 143.105 538.974 143.105 534.961V518.706C143.105 514.693 139.852 511.44 135.84 511.44C131.827 511.44 128.574 514.693 128.574 518.706V534.961C128.574 538.974 131.827 542.227 135.84 542.227Z" fill="#3C3C3C"/>
<path d="M231.308 592.097C235.321 592.097 238.574 588.844 238.574 584.832V568.576C238.574 564.563 235.321 561.31 231.308 561.31C227.295 561.31 224.042 564.563 224.042 568.576V584.832C224.042 588.844 227.295 592.097 231.308 592.097Z" fill="#3C3C3C"/>
<path d="M238.574 518.706C238.574 514.693 235.321 511.44 231.308 511.44C227.295 511.44 224.042 514.693 224.042 518.706V534.961C224.042 538.974 227.295 542.227 231.308 542.227C235.321 542.227 238.574 538.974 238.574 534.961V518.706Z" fill="#3C3C3C"/>
<path d="M264.694 592.097C268.707 592.097 271.96 588.844 271.96 584.832V568.576C271.96 564.563 268.707 561.31 264.694 561.31C260.681 561.31 257.428 564.563 257.428 568.576V584.832C257.428 588.844 260.68 592.097 264.694 592.097Z" fill="#3C3C3C"/>
<path d="M271.96 518.706C271.96 514.693 268.707 511.44 264.694 511.44C260.681 511.44 257.428 514.693 257.428 518.706V534.961C257.428 538.974 260.681 542.227 264.694 542.227C268.707 542.227 271.96 538.974 271.96 534.961V518.706Z" fill="#3C3C3C"/>
<path d="M298.608 592.097C302.62 592.097 305.874 588.844 305.874 584.832V568.576C305.874 564.563 302.62 561.31 298.608 561.31C294.595 561.31 291.342 564.563 291.342 568.576V584.832C291.342 588.844 294.595 592.097 298.608 592.097Z" fill="#3C3C3C"/>
<path d="M305.874 518.706C305.874 514.693 302.62 511.44 298.608 511.44C294.595 511.44 291.342 514.693 291.342 518.706V534.961C291.342 538.974 294.595 542.227 298.608 542.227C302.62 542.227 305.874 538.974 305.874 534.961V518.706Z" fill="#3C3C3C"/>
<path d="M197.402 592.445C201.414 592.445 204.667 589.192 204.667 585.179V568.924C204.667 564.911 201.414 561.658 197.402 561.658C193.389 561.658 190.136 564.911 190.136 568.924V585.179C190.136 589.192 193.389 592.445 197.402 592.445Z" fill="#3C3C3C"/>
<path d="M204.667 519.053C204.667 515.04 201.414 511.787 197.402 511.787C193.389 511.787 190.136 515.04 190.136 519.053V535.308C190.136 539.321 193.389 542.574 197.402 542.574C201.414 542.574 204.667 539.321 204.667 535.308V519.053Z" fill="#3C3C3C"/>
<path d="M224.038 484.917C224.038 488.929 227.291 492.182 231.303 492.182C235.316 492.182 238.569 488.929 238.569 484.917V468.661C238.569 464.649 235.316 461.396 231.303 461.396C227.291 461.396 224.038 464.649 224.038 468.661V484.917Z" fill="#3C3C3C"/>
<path d="M224.038 435.046C224.038 439.058 227.291 442.311 231.303 442.311C235.316 442.311 238.569 439.058 238.569 435.046V418.79C238.569 414.777 235.316 411.524 231.303 411.524C227.291 411.524 224.038 414.777 224.038 418.79V435.046Z" fill="#3C3C3C"/>
<path d="M257.423 484.917C257.423 488.929 260.677 492.182 264.689 492.182C268.702 492.182 271.955 488.929 271.955 484.917V468.661C271.955 464.649 268.702 461.396 264.689 461.396C260.677 461.396 257.423 464.649 257.423 468.661V484.917Z" fill="#3C3C3C"/>
<path d="M257.423 435.046C257.423 439.058 260.677 442.311 264.689 442.311C268.702 442.311 271.955 439.058 271.955 435.046V418.79C271.955 414.777 268.702 411.524 264.689 411.524C260.677 411.524 257.423 414.777 257.423 418.79V435.046Z" fill="#3C3C3C"/>
<path d="M291.338 484.917C291.338 488.929 294.591 492.182 298.604 492.182C302.617 492.182 305.87 488.929 305.87 484.917V468.661C305.87 464.649 302.617 461.396 298.604 461.396C294.591 461.396 291.338 464.649 291.338 468.661V484.917Z" fill="#3C3C3C"/>
<path d="M291.338 435.046C291.338 439.058 294.591 442.311 298.604 442.311C302.617 442.311 305.87 439.058 305.87 435.046V418.79C305.87 414.777 302.617 411.524 298.604 411.524C294.591 411.524 291.338 414.777 291.338 418.79V435.046Z" fill="#3C3C3C"/>
<path d="M190.131 485.265C190.131 489.277 193.384 492.53 197.397 492.53C201.41 492.53 204.663 489.277 204.663 485.265V469.009C204.663 464.996 201.41 461.743 197.397 461.743C193.384 461.743 190.131 464.996 190.131 469.009V485.265Z" fill="#3C3C3C"/>
<path d="M190.131 435.393C190.131 439.406 193.384 442.659 197.397 442.659C201.41 442.659 204.663 439.406 204.663 435.393V419.138C204.663 415.125 201.41 411.872 197.397 411.872C193.384 411.872 190.131 415.125 190.131 419.138V435.393Z" fill="#3C3C3C"/>
<path d="M231.303 392.732C235.316 392.732 238.569 389.479 238.569 385.466V369.21C238.569 365.198 235.316 361.945 231.303 361.945C227.291 361.945 224.038 365.198 224.038 369.21V385.466C224.038 389.479 227.291 392.732 231.303 392.732Z" fill="#3C3C3C"/>
<path d="M264.689 392.732C268.702 392.732 271.955 389.479 271.955 385.466V369.21C271.955 365.198 268.702 361.945 264.689 361.945C260.677 361.945 257.423 365.198 257.423 369.21V385.466C257.423 389.479 260.677 392.732 264.689 392.732Z" fill="#3C3C3C"/>
<path d="M298.604 392.732C302.617 392.732 305.87 389.479 305.87 385.466V369.21C305.87 365.198 302.617 361.945 298.604 361.945C294.591 361.945 291.338 365.198 291.338 369.21V385.466C291.338 389.479 294.591 392.732 298.604 392.732Z" fill="#3C3C3C"/>
<path d="M197.397 393.078C201.41 393.078 204.663 389.825 204.663 385.813V369.557C204.663 365.545 201.41 362.292 197.397 362.292C193.384 362.292 190.131 365.545 190.131 369.557V385.813C190.131 389.825 193.384 393.078 197.397 393.078Z" fill="#3C3C3C"/>
<path d="M214.35 238.216C210.337 238.216 207.084 241.469 207.084 245.482V302.425C207.084 306.438 210.337 309.691 214.35 309.691C218.363 309.691 221.616 306.438 221.616 302.425V245.482C221.616 241.468 218.363 238.216 214.35 238.216Z" fill="#3C3C3C"/>
<path d="M247.736 238.216C243.723 238.216 240.47 241.469 240.47 245.482V302.425C240.47 306.438 243.723 309.691 247.736 309.691C251.749 309.691 255.002 306.438 255.002 302.425V245.482C255.002 241.468 251.749 238.216 247.736 238.216Z" fill="#3C3C3C"/>
<path d="M281.651 238.216C277.638 238.216 274.385 241.469 274.385 245.482V302.425C274.385 306.438 277.638 309.691 281.651 309.691C285.663 309.691 288.917 306.438 288.917 302.425V245.482C288.917 241.468 285.663 238.216 281.651 238.216Z" fill="#3C3C3C"/>
<path d="M358.353 592.097C362.367 592.097 365.619 588.844 365.619 584.832V568.576C365.619 564.563 362.367 561.31 358.353 561.31C354.34 561.31 351.088 564.563 351.088 568.576V584.832C351.088 588.844 354.341 592.097 358.353 592.097Z" fill="#3C3C3C"/>
<path d="M358.353 542.227C362.367 542.227 365.619 538.974 365.619 534.961V518.706C365.619 514.693 362.367 511.44 358.353 511.44C354.34 511.44 351.088 514.693 351.088 518.706V534.961C351.088 538.974 354.341 542.227 358.353 542.227Z" fill="#3C3C3C"/>
<path d="M469.111 632.717C483.937 632.717 496 620.66 496 605.839C496 596.813 491.603 588.689 484.514 583.776C486.211 579.169 487.089 574.18 487.089 569.032C487.089 548.649 473.009 532.067 455.701 532.067C438.394 532.067 424.314 548.65 424.314 569.032C424.314 574.176 425.191 579.161 426.886 583.765C419.788 588.677 415.384 596.804 415.384 605.839C415.384 620.66 427.447 632.717 442.273 632.717C444.367 632.717 446.429 632.476 448.428 632.009V651.602H396.704V492.23H399.126C403.14 492.23 406.392 488.977 406.392 484.964C406.392 480.952 403.14 477.699 399.126 477.699H350.958V444.075C350.958 440.063 347.705 436.81 343.692 436.81C339.68 436.81 336.427 440.063 336.427 444.075V477.699H327.008C322.995 477.699 319.742 480.952 319.742 484.964V651.602H317.32V651.334H271.959V618.992C271.959 614.98 268.706 611.727 264.693 611.727C260.68 611.727 257.427 614.98 257.427 618.992V651.334H238.573V618.992C238.573 614.98 235.32 611.727 231.307 611.727C227.294 611.727 224.041 614.98 224.041 618.992V651.334H178.68V651.602H171.414V484.964C171.414 480.952 168.161 477.699 164.149 477.699H159.573V343.132H336.426V410.236C336.426 414.249 339.679 417.502 343.691 417.502C347.704 417.502 350.957 414.249 350.957 410.236V343.132H353.378C357.392 343.132 360.644 339.879 360.644 335.866C360.644 331.854 357.392 328.601 353.378 328.601H324.585V219.232H327.007C331.019 219.232 334.272 215.979 334.272 211.966C334.272 207.954 331.019 204.701 327.007 204.701H288.916V184.531H291.337C295.35 184.531 298.603 181.278 298.603 177.266C298.603 173.253 295.35 170 291.337 170H204.662C200.649 170 197.396 173.253 197.396 177.266C197.396 181.278 200.649 184.531 204.662 184.531H207.083V204.701H168.992C164.98 204.701 161.727 207.954 161.727 211.966C161.727 215.979 164.98 219.232 168.992 219.232H171.414V328.601H142.621C138.608 328.601 135.355 331.854 135.355 335.866C135.355 339.879 138.608 343.132 142.621 343.132H145.043V477.699H97.8426C93.83 477.699 90.577 480.952 90.577 484.964C90.577 488.977 93.83 492.23 97.8426 492.23H100.264V529.509C100.264 533.522 103.518 536.775 107.53 536.775C111.543 536.775 114.796 533.522 114.796 529.509V492.23H156.883V651.334H142.845V618.725C142.845 614.713 139.592 611.46 135.579 611.46C131.567 611.46 128.314 614.713 128.314 618.725V651.334H114.796V562.782C114.796 558.769 111.543 555.516 107.53 555.516C103.518 555.516 100.264 558.769 100.264 562.782V651.602H47.5742V632.009C49.5718 632.476 51.6343 632.717 53.7277 632.717C68.5544 632.717 80.6163 620.66 80.6163 605.839C80.6163 596.813 76.2182 588.689 69.1299 583.776C70.8262 579.169 71.7058 574.18 71.7058 569.032C71.7058 548.649 57.625 532.067 40.3174 532.067C23.0097 532.067 8.92992 548.65 8.92992 569.032C8.92992 574.176 9.80761 579.161 11.5019 583.765C4.40393 588.677 0 596.804 0 605.839C0 620.66 12.0629 632.717 26.8886 632.717C28.982 632.717 31.0445 632.476 33.043 632.009V651.602H7.26658C3.25402 651.602 0.000968743 654.855 0.000968743 658.867C0.000968743 662.88 3.25402 666.133 7.26658 666.133H488.734C492.748 666.133 496 662.88 496 658.867C496 654.855 492.748 651.602 488.734 651.602H462.958V632.009C464.956 632.476 467.018 632.717 469.111 632.717ZM221.616 184.531H274.385V204.701H221.616V184.531ZM185.946 219.232H310.055V328.601H185.946V219.232ZM14.5322 605.839C14.5322 600.368 18.0458 595.62 23.2761 594.027C25.4354 593.368 27.1666 591.745 27.96 589.631C28.7534 587.517 28.5199 585.155 27.3264 583.238C24.798 579.175 23.4621 574.262 23.4621 569.031C23.4621 556.66 31.0242 546.597 40.3183 546.597C49.6125 546.597 57.1755 556.661 57.1755 569.031C57.1755 574.263 55.8386 579.177 53.3083 583.241C52.1157 585.157 51.8813 587.518 52.6728 589.631C53.4652 591.745 55.1944 593.369 57.3518 594.029C62.5763 595.625 66.0861 600.371 66.0861 605.838C66.0861 612.646 60.5419 618.185 53.7287 618.185C50.5764 618.185 47.5752 616.999 45.2773 614.846C43.8804 613.536 42.095 612.882 40.3096 612.882C38.5242 612.882 36.7378 613.536 35.3409 614.846C33.044 616.999 30.0428 618.185 26.8895 618.185C20.0763 618.186 14.5322 612.647 14.5322 605.839ZM382.173 492.23V651.334H365.359V618.725C365.359 614.713 362.107 611.46 358.094 611.46C354.08 611.46 350.828 614.713 350.828 618.725V651.334H334.274V492.23H382.173ZM429.914 605.839C429.914 600.368 433.428 595.621 438.658 594.027C440.817 593.368 442.548 591.745 443.342 589.631C444.135 587.517 443.901 585.155 442.709 583.238C440.181 579.174 438.844 574.262 438.844 569.031C438.844 556.66 446.406 546.597 455.7 546.597C464.994 546.597 472.557 556.661 472.557 569.031C472.557 574.263 471.22 579.177 468.69 583.241C467.498 585.157 467.262 587.518 468.056 589.631C468.847 591.744 470.576 593.369 472.735 594.029C477.959 595.625 481.469 600.372 481.469 605.838C481.469 612.646 475.925 618.185 469.111 618.185C465.958 618.185 462.957 616.999 460.66 614.846C459.263 613.536 457.478 612.882 455.691 612.882C453.906 612.882 452.121 613.536 450.724 614.845C448.426 616.999 445.424 618.185 442.271 618.185C435.458 618.186 429.914 612.647 429.914 605.839Z" fill="#3C3C3C"/>
<path d="M28.6614 320.924H76.1543C80.1668 320.924 83.4199 317.671 83.4199 313.659C83.4199 309.646 80.1668 306.393 76.1543 306.393H28.6614C20.8707 306.393 14.5331 300.06 14.5331 292.276C14.5331 284.492 20.8707 278.16 28.6614 278.16C31.1026 278.16 33.5051 278.789 35.6102 279.982C37.5022 281.054 39.7758 281.222 41.8063 280.438C43.8358 279.655 45.4072 278.004 46.0891 275.937C49.2327 266.42 58.089 260.025 68.1282 260.025C78.4521 260.025 87.631 266.946 90.4491 276.855C91.0952 279.128 92.807 280.945 95.0371 281.725C97.2662 282.506 99.7384 282.153 101.66 280.779C104.061 279.065 106.897 278.158 109.862 278.158C117.653 278.158 123.99 284.491 123.99 292.274C123.99 300.058 117.653 306.391 109.862 306.391C105.849 306.391 102.596 309.644 102.596 313.657C102.596 317.669 105.849 320.922 109.862 320.922C125.665 320.922 138.521 308.071 138.521 292.274C138.521 276.478 125.665 263.627 109.862 263.627C106.871 263.627 103.944 264.083 101.156 264.97C94.6137 253.19 82.0065 245.493 68.1282 245.493C54.3913 245.493 42.0136 252.862 35.3903 264.427C33.1951 263.898 30.935 263.627 28.6614 263.627C12.8582 263.627 0.00192321 276.478 0.00192321 292.274C0.00192321 308.071 12.8582 320.924 28.6614 320.924Z" fill="#3C3C3C"/>
<path d="M380.9 273.553C384.914 273.553 388.166 270.3 388.166 266.288C388.166 262.275 384.914 259.022 380.9 259.022C372.507 259.022 365.679 252.2 365.679 243.814C365.679 235.427 372.507 228.605 380.9 228.605C383.53 228.605 386.12 229.284 388.388 230.569C390.28 231.64 392.554 231.808 394.584 231.025C396.613 230.242 398.186 228.591 398.868 226.525C402.22 216.368 411.671 209.545 422.383 209.545C433.4 209.545 443.193 216.93 446.201 227.504C446.847 229.777 448.559 231.594 450.788 232.374C453.022 233.156 455.49 232.802 457.412 231.428C459.998 229.581 463.053 228.604 466.248 228.604C474.641 228.604 481.469 235.426 481.469 243.813C481.469 252.198 474.641 259.021 466.248 259.021H414.267C410.253 259.021 407.001 262.274 407.001 266.287C407.001 270.299 410.253 273.552 414.267 273.552H466.248C482.654 273.552 496 260.212 496 243.813C496 227.414 482.654 214.073 466.248 214.073C463.039 214.073 459.901 214.579 456.92 215.561C450.151 203.146 436.937 195.013 422.383 195.013C407.982 195.013 395.019 202.788 388.157 214.971C385.794 214.378 383.355 214.074 380.9 214.074C364.494 214.074 351.148 227.415 351.148 243.814C351.148 260.212 364.494 273.553 380.9 273.553Z" fill="#3C3C3C"/>
</svg>
