<svg width="664" height="650" viewBox="0 0 664 650" fill="none" xmlns="http://www.w3.org/2000/svg">
<circle cx="400" cy="264" r="264" fill="#FCD700"/>
<path d="M498.049 154H105.236C97.5448 154 91.2868 160.25 91.2868 167.933V382.296L77.8909 368.916C75.5239 366.552 72.3729 365.251 69.0159 365.251C65.6589 365.251 62.5079 366.552 60.1409 368.916L36.8799 392.148C34.5119 394.512 33.2099 397.66 33.2099 401.013C33.2099 404.366 34.5129 407.513 36.8799 409.877L91.2878 464.22V485.704C89.3218 487.975 88.2408 490.842 88.2408 493.882C88.2408 496.923 89.3218 499.789 91.2878 502.06V525.441L3.67099 612.952C1.303 615.317 0 618.465 0 621.818C0 625.171 1.303 628.318 3.66999 630.682L19.342 646.334C21.789 648.778 25.003 650 28.2169 650C31.4309 650 34.6449 648.778 37.0919 646.334L46.4149 637.023C49.3559 634.085 49.3559 629.323 46.4149 626.386C43.4739 623.449 38.7059 623.449 35.7659 626.386L28.2169 633.926L16.095 621.819L124.995 513.05L137.116 525.158L61.8709 600.312C58.9299 603.249 58.9299 608.011 61.8709 610.948C64.8119 613.885 69.5799 613.885 72.5199 610.948L91.2858 592.204V621.821C91.2858 629.503 97.5428 635.754 105.235 635.754H378.457C382.616 635.754 385.988 632.386 385.988 628.232C385.988 624.078 382.616 620.71 378.457 620.71H227.132L237.548 610.307L240.411 613.165C242.778 615.53 245.929 616.831 249.286 616.831C252.643 616.831 255.794 615.529 258.161 613.165L281.421 589.932C286.315 585.044 286.315 577.091 281.421 572.203L278.558 569.344L496.937 351.226V620.71H425.649C421.49 620.71 418.118 624.078 418.118 628.232C418.118 632.386 421.49 635.754 425.649 635.754H498.05C505.741 635.754 512 629.505 512 621.821V167.932C511.999 160.251 505.741 154 498.049 154ZM133.869 500.639C131.502 498.275 128.351 496.974 124.994 496.974C121.637 496.974 118.486 498.275 116.119 500.639L113.608 503.147L104.333 493.882L125.943 472.299L177.914 524.208L156.305 545.793L147.029 536.528L149.54 534.021C154.434 529.133 154.434 521.181 149.54 516.292L133.869 500.639ZM205.834 620.71H106.348V577.16L136.38 547.164L147.43 558.201C149.797 560.565 152.948 561.867 156.305 561.867C159.662 561.867 162.813 560.565 165.18 558.201L175.281 548.112L226.9 599.669L205.834 620.71ZM249.286 600.756L185.929 537.475L190.338 533.071C192.705 530.707 194.008 527.56 194.008 524.207C194.008 520.854 192.705 517.707 190.338 515.343L134.818 459.889C132.451 457.525 129.3 456.223 125.943 456.223C122.586 456.223 119.435 457.525 117.068 459.889L112.659 464.293L49.3019 401.012L69.0139 381.323L268.996 581.067L249.286 600.756ZM267.91 558.709L245.958 536.782L312.102 470.717C315.043 467.78 315.043 463.017 312.102 460.08C309.161 457.141 304.393 457.142 301.452 460.08L235.308 526.145L137.224 428.179L173.131 392.314C176.072 389.377 176.072 384.614 173.131 381.678C170.19 378.74 165.422 378.74 162.482 381.678L126.575 417.543L115.775 406.755L236.664 286.011C239.605 283.073 239.605 278.311 236.664 275.374C233.723 272.437 228.955 272.437 226.015 275.374L106.347 394.897V169.043H332.47L255.896 245.527C252.955 248.465 252.955 253.227 255.896 256.163C258.837 259.101 263.605 259.101 266.545 256.163L353.769 169.042H496.936V329.955H496.938L267.91 558.709Z" fill="#3C3C3C"/>
<path d="M68.7199 315.045C55.0129 310.781 53.3619 309.131 49.0919 295.438C47.6859 290.935 43.5689 287.907 38.8439 287.907C34.1179 287.907 29.9989 290.935 28.5949 295.44C24.328 309.131 22.677 310.78 8.97198 315.044C4.45799 316.446 1.425 320.558 1.425 325.28C1.424 330 4.45699 334.115 8.96798 335.516C22.676 339.779 24.326 341.428 28.5939 355.119C29.9979 359.625 34.1159 362.654 38.8439 362.654C43.5679 362.654 47.6869 359.627 49.0919 355.121C53.3619 341.428 55.0129 339.78 68.7159 335.518C73.2289 334.117 76.2619 330.003 76.2619 325.28C76.2609 320.558 73.2289 316.445 68.7199 315.045ZM38.8449 339.678C35.5019 332.725 31.3919 328.619 24.428 325.279C31.3919 321.939 35.5009 317.834 38.8449 310.879C42.1889 317.833 46.2969 321.938 53.2599 325.279C46.2979 328.619 42.1879 332.724 38.8449 339.678Z" fill="#3C3C3C"/>
<path d="M377.181 233.301C358.806 227.585 356.322 225.104 350.599 206.751C349.077 201.865 344.611 198.583 339.486 198.583C334.361 198.583 329.894 201.866 328.373 206.752C322.653 225.104 320.169 227.586 301.794 233.301C296.9 234.822 293.613 239.282 293.613 244.4C293.613 249.52 296.901 253.983 301.792 255.5C320.169 261.215 322.653 263.696 328.372 282.046C329.894 286.935 334.36 290.219 339.486 290.219C344.611 290.219 349.077 286.936 350.599 282.049C356.322 263.696 358.806 261.215 377.177 255.501C382.072 253.982 385.36 249.52 385.36 244.399C385.36 239.28 382.072 234.82 377.181 233.301ZM339.487 268.173C334.403 255.367 328.508 249.479 315.684 244.401C328.506 239.321 334.402 233.432 339.486 220.626C344.572 233.431 350.468 239.32 363.289 244.4C350.469 249.479 344.573 255.367 339.487 268.173Z" fill="#3C3C3C"/>
<path d="M373.409 393.657C362.953 390.404 361.993 389.446 358.736 379.001C357.416 374.766 353.545 371.921 349.104 371.921C344.663 371.921 340.792 374.766 339.472 379.001C336.217 389.445 335.257 390.403 324.803 393.656C320.561 394.973 317.711 398.839 317.711 403.275C317.711 407.713 320.561 411.58 324.8 412.896C335.257 416.149 336.217 417.107 339.472 427.551C340.791 431.787 344.662 434.632 349.104 434.632C353.545 434.632 357.417 431.787 358.735 427.553C361.992 417.108 362.952 416.15 373.404 412.898C377.646 411.581 380.496 407.715 380.496 403.276C380.498 398.839 377.647 394.973 373.409 393.657ZM349.104 411.572C346.972 407.982 344.392 405.405 340.798 403.276C344.392 401.147 346.973 398.569 349.104 394.98C351.236 398.569 353.816 401.147 357.41 403.276C353.817 405.405 351.237 407.982 349.104 411.572Z" fill="#3C3C3C"/>
<path d="M355.748 308.781C352.807 305.843 348.039 305.844 345.099 308.781L235.983 417.767C233.042 420.704 233.042 425.466 235.983 428.403C237.453 429.872 239.381 430.606 241.308 430.606C243.236 430.606 245.163 429.872 246.633 428.403L355.748 319.419C358.689 316.482 358.689 311.719 355.748 308.781Z" fill="#3C3C3C"/>
</svg>
