<svg width="697" height="666" viewBox="0 0 697 666" fill="none" xmlns="http://www.w3.org/2000/svg">
<circle cx="433" cy="264" r="264" fill="#FCD700"/>
<path d="M456 170H168C145.944 170 128 187.944 128 210V498C128 520.056 145.944 538 168 538H218.36C220.304 544.72 223.344 551.112 227.64 556.688L240 572.728V666H384V579.936L393.816 560.84C397.44 553.776 399.44 545.928 399.84 538.008H456C478.056 538.008 496 520.064 496 498.008V210C496 187.944 478.056 170 456 170ZM384 535.248C384 541.576 382.472 547.896 379.576 553.528L368 576.064V650H256V567.272L240.312 546.92C234.952 539.968 232 531.296 232 522.504V450C232 443.384 237.384 438 244 438C250.616 438 256 443.384 256 450V506H272V394.856C272 390.56 274.896 386.72 278.592 386.112C281.016 385.728 283.36 386.352 285.176 387.904C286.968 389.424 288 391.648 288 394V506H304V394C304 391.648 305.032 389.424 306.824 387.904C308.648 386.352 310.984 385.72 313.4 386.112C317.104 386.72 320 390.56 320 394.856V506H336V394.856C336 392.504 337.032 390.28 338.824 388.76C340.648 387.216 342.984 386.584 345.4 386.968C349.104 387.576 352 391.416 352 395.712V506H368V418.856C368 416.144 369.368 413.392 371.576 411.688C372.936 410.624 375.184 409.504 378.088 410.264C381.512 411.136 384 414.76 384 418.888V535.248ZM480 498C480 511.232 469.232 522 456 522H400V418.888C400 407.376 392.616 397.448 382.048 394.752C377.32 393.544 372.448 393.856 368 395.536C367.912 383.48 359.336 373.024 347.968 371.176C340.928 370.024 333.824 372 328.456 376.568C328.424 376.592 328.392 376.624 328.36 376.648C324.992 373.376 320.728 371.096 315.968 370.32C308.928 369.168 301.824 371.144 296.456 375.712C296.304 375.84 296.152 375.976 296 376.112C295.848 375.976 295.696 375.84 295.544 375.712C290.168 371.136 283.048 369.152 276.024 370.32C264.608 372.184 256 382.728 256 394.856V424.704C252.36 422.976 248.288 422 244 422C228.56 422 216 434.56 216 450V522H168C154.768 522 144 511.232 144 498V210C144 196.768 154.768 186 168 186H456C469.232 186 480 196.768 480 210V498Z" fill="#3C3C3C"/>
<path d="M240 314H256C256 291.944 273.944 274 296 274V258C265.128 258 240 283.12 240 314Z" fill="#3C3C3C"/>
<path d="M264 226C233.128 226 208 251.12 208 282H224C224 259.944 241.944 242 264 242V226Z" fill="#3C3C3C"/>
<path d="M432 266H416C416 283.648 401.648 298 384 298V314C401.648 314 416 328.352 416 346H432C432 328.352 446.352 314 464 314V298C446.352 298 432 283.648 432 266ZM424 319.496C420.448 314.152 415.848 309.56 410.504 306C415.848 302.448 420.44 297.848 424 292.504C427.552 297.848 432.152 302.44 437.496 306C432.152 309.552 427.552 314.152 424 319.496Z" fill="#3C3C3C"/>
<path d="M112 522H96C96 539.648 81.648 554 64 554V570C81.648 570 96 584.352 96 602H112C112 584.352 126.352 570 144 570V554C126.352 554 112 539.648 112 522ZM104 575.496C100.448 570.152 95.848 565.56 90.504 562C95.848 558.448 100.44 553.848 104 548.504C107.552 553.848 112.152 558.44 117.496 562C112.152 565.552 107.552 570.152 104 575.496Z" fill="#3C3C3C"/>
<path d="M0 538H16C16 532.8 16.144 527.632 16.408 522.496L0.424 521.664C0.144 527.08 0 532.52 0 538Z" fill="#3C3C3C"/>
<path d="M117.264 315.32L106.736 303.28C47.12 355.432 9.816 427.24 1.68 505.472L17.6 507.128C25.304 432.92 60.704 364.808 117.264 315.32Z" fill="#3C3C3C"/>
<path d="M64.488 522.432L48.52 521.424C48.168 526.912 48 532.432 48 538H64C64 532.768 64.16 527.584 64.488 522.432Z" fill="#3C3C3C"/>
<path d="M49.928 505.904L65.816 507.832C71.344 462.328 89.48 419.264 118.248 383.288L105.752 373.296C75.136 411.592 55.832 457.448 49.928 505.904Z" fill="#3C3C3C"/>
</svg>
