<svg width="653" height="666" viewBox="0 0 653 666" fill="none" xmlns="http://www.w3.org/2000/svg">
<circle cx="389" cy="264" r="264" fill="#FCD700"/>
<path d="M479.049 429.585H368.094C367.184 428.388 366.237 427.222 365.259 426.084V390.513H425.846C432.15 390.513 437.279 385.384 437.279 379.081L437.278 274.976C437.278 268.673 432.149 263.544 425.846 263.544H365.259V253.432C365.259 247.129 360.13 242 353.827 242H312.236C305.932 242 300.804 247.129 300.804 253.432V263.544H240.216C233.912 263.544 228.784 268.673 228.784 274.976V296.55C228.784 300.563 232.036 303.815 236.049 303.815C240.063 303.815 243.315 300.563 243.315 296.55V278.075H422.746V350.161H243.315V330.839C243.315 326.825 240.063 323.573 236.049 323.573C232.036 323.573 228.784 326.825 228.784 330.839V379.081C228.784 385.384 233.912 390.513 240.216 390.513H300.804V400.201C279.632 402.334 260.897 413.372 248.553 429.585H167.41C178.8 418.876 185.623 403.752 185.623 387.23C185.623 355.163 159.534 329.076 127.469 329.076C95.4029 329.076 69.3143 355.164 69.3143 387.23C69.3143 403.752 76.1373 418.876 87.5269 429.585H16.9532C7.60569 429.585 0 437.19 0 446.538V463.802C0 473.149 7.60569 480.755 16.9532 480.755H23.2181V652.776C23.2181 659.453 28.6499 664.885 35.3275 664.885H159.055C165.732 664.885 171.164 659.453 171.164 652.776V480.755H232.67L228.869 537.332C228.17 547.749 231.858 558.097 238.988 565.722C241.95 568.89 245.426 571.487 249.22 573.451L230.293 643.367C229.041 647.994 229.665 652.829 232.051 656.982C234.437 661.133 238.299 664.106 242.907 665.346C244.502 665.779 246.101 665.988 247.675 665.988C254.984 665.988 261.708 661.506 264.379 654.329L292.99 577.721H323.65L352.262 654.332C354.947 661.511 361.677 665.99 368.976 665.989C370.544 665.989 372.142 665.781 373.728 665.35C378.348 664.104 382.205 661.132 384.589 656.982C386.975 652.828 387.599 647.994 386.347 643.368L367.421 573.453C371.218 571.488 374.695 568.89 377.658 565.721C384.788 558.096 388.476 547.748 387.777 537.331L383.974 480.754H432.029V564.08C432.029 568.093 435.281 571.345 439.295 571.345C443.309 571.345 446.561 568.093 446.561 564.08V480.754H463.208V650.353H446.561V598.369C446.561 594.355 443.309 591.103 439.295 591.103C435.281 591.103 432.029 594.355 432.029 598.369V652.775C432.029 659.452 437.461 664.884 444.139 664.884H465.63C472.307 664.884 477.739 659.452 477.739 652.775V480.755H479.047C488.394 480.755 496 473.149 496 463.802V446.538C496.002 437.189 488.396 429.585 479.049 429.585ZM315.335 256.531H350.727V263.544H315.335V256.531ZM243.315 364.693H422.747V375.981H243.315V364.693ZM350.727 390.513V413.033C340.438 405.957 328.341 401.374 315.335 400.153V390.513H350.727ZM114.637 429.585C96.2195 423.922 83.8456 406.515 83.8456 387.23C83.8456 363.177 103.414 343.608 127.469 343.608C151.523 343.608 171.092 363.177 171.092 387.23C171.092 406.514 158.718 423.922 140.301 429.585H114.637ZM156.633 534.891V581.684H125.885L122.358 566.688C121.586 563.404 118.658 561.085 115.286 561.085H79.0968C75.7256 561.085 72.796 563.405 72.0239 566.688L68.4977 581.684H37.7494V534.891H156.633ZM83.4252 520.36L84.8531 514.292H109.53L110.958 520.36H83.4252ZM110.957 581.684H83.4252L84.8531 575.616H109.53L110.957 581.684ZM37.7494 650.354V596.214H156.633V650.354H37.7494ZM156.633 520.36H125.885L122.358 505.363C121.586 502.08 118.658 499.761 115.286 499.761H79.0968C75.7256 499.761 72.796 502.081 72.0239 505.363L68.4977 520.36H37.7494V480.755H97.7444C101.758 480.755 105.01 477.503 105.01 473.49C105.01 469.476 101.758 466.224 97.7444 466.224H16.9532C15.6173 466.224 14.5313 465.138 14.5313 463.802V446.538C14.5313 445.202 15.6173 444.116 16.9532 444.116H239.883C236.77 450.993 234.644 458.417 233.736 466.224H132.033C128.02 466.224 124.768 469.476 124.768 473.49C124.768 477.503 128.02 480.755 132.033 480.755H156.633V520.36ZM250.763 649.253C250.152 650.895 248.413 651.784 246.703 651.32C245.524 651.003 244.911 650.195 244.651 649.742C244.389 649.287 244 648.349 244.32 647.167L263.164 577.551C264.314 577.658 265.471 577.721 266.634 577.721H277.479L250.763 649.253ZM372.322 647.167C372.642 648.349 372.252 649.287 371.99 649.743C371.729 650.196 371.119 651.003 369.93 651.324C368.233 651.785 366.49 650.89 365.875 649.245L339.163 577.721H350.013C351.173 577.721 352.329 577.658 353.477 577.551L372.322 647.167ZM367.046 555.797C362.589 560.564 356.54 563.189 350.014 563.189H266.634C260.108 563.189 254.059 560.564 249.601 555.797C245.143 551.031 242.93 544.819 243.367 538.307L247.9 470.849C250.029 439.168 276.571 414.35 308.323 414.35C340.077 414.35 366.618 439.168 368.746 470.849L373.28 538.307C373.717 544.819 371.504 551.031 367.046 555.797ZM481.471 463.802C481.471 465.138 480.385 466.224 479.049 466.224H382.911C382.003 458.417 379.876 450.993 376.764 444.116H479.049C480.385 444.116 481.471 445.202 481.471 446.538V463.802Z" fill="#3C3C3C"/>
<path d="M488.517 142.771C471.615 137.452 469.329 135.138 464.053 118.013C462.576 113.22 458.225 110 453.228 110C448.222 110 443.872 113.227 442.408 118.015C437.132 135.136 434.845 137.45 417.941 142.771C413.191 144.264 410 148.624 410 153.62C410 158.617 413.19 162.978 417.939 164.474C434.846 169.795 437.132 172.109 442.403 189.216C443.871 194.018 448.221 197.244 453.229 197.244C458.228 197.244 462.579 194.024 464.055 189.231C469.329 172.107 471.616 169.793 488.517 164.473C493.265 162.979 496.455 158.618 496.455 153.62C496.455 148.622 493.264 144.262 488.517 142.771ZM453.23 174.833C448.649 163.778 443.126 158.243 432.104 153.624C443.124 149.005 448.647 143.47 453.23 132.415C457.81 143.471 463.33 149.004 474.352 153.624C463.334 158.243 457.811 163.779 453.23 174.833Z" fill="#3C3C3C"/>
</svg>
