<svg width="673" height="666" viewBox="0 0 673 666" fill="none" xmlns="http://www.w3.org/2000/svg">
<circle cx="409" cy="264" r="264" fill="#FCD700"/>
<path d="M0 650H16V666H0V650Z" fill="#3C3C3C"/>
<path d="M480 650H496V666H480V650Z" fill="#3C3C3C"/>
<path d="M472.256 305.96L248 217.4L23.744 305.96C9.32 311.656 0 325.264 0 340.64C0 352.944 6.112 364.448 16.352 371.408C25.68 377.76 37.256 379.544 48 376.52V554H32V602H48V650H32V666H464V650H448V602H464V554H448V376.384C451.392 377.344 454.84 377.984 458.304 377.984C465.808 377.984 473.256 375.76 479.648 371.408C489.888 364.44 496 352.944 496 340.64C496 325.264 486.68 311.656 472.256 305.96ZM48 570H144V586H48V570ZM64 602H128V650H64V602ZM192 650V546C192 515.12 217.128 490 248 490C278.872 490 304 515.12 304 546V650H192ZM432 650H368V602H432V650ZM448 586H352V570H448V586ZM336 554V602H352V650H320V546C320 506.304 287.704 474 248 474C208.296 474 176 506.304 176 546V650H144V602H160V554H64V370.448L248 297.784L432 370.448V554H336ZM470.648 358.176C464.544 362.328 457.096 363.16 450.192 360.432L248 280.584L45.808 360.432C38.912 363.152 31.456 362.32 25.352 358.176C19.408 354.136 16 347.744 16 340.64C16 331.88 21.344 324.112 29.616 320.848L248 234.6L466.384 320.84C474.656 324.112 480 331.88 480 340.64C480 347.744 476.592 354.136 470.648 358.176Z" fill="#3C3C3C"/>
<path d="M208 570H224V586H208V570Z" fill="#3C3C3C"/>
<path d="M248 330C212.712 330 184 358.712 184 394C184 429.288 212.712 458 248 458C283.288 458 312 429.288 312 394C312 358.712 283.288 330 248 330ZM295.28 386H256V346.72C276.056 350.112 291.888 365.944 295.28 386ZM240 346.72V386H200.72C204.112 365.944 219.944 350.112 240 346.72ZM200.72 402H240V441.28C219.944 437.888 204.112 422.056 200.72 402ZM256 441.28V402H295.28C291.888 422.056 276.056 437.888 256 441.28Z" fill="#3C3C3C"/>
<path d="M384 370H368C368 387.648 353.648 402 336 402V418C353.648 418 368 432.352 368 450H384C384 432.352 398.352 418 416 418V402C398.352 402 384 387.648 384 370ZM376 423.496C372.448 418.152 367.848 413.56 362.504 410C367.848 406.448 372.44 401.848 376 396.504C379.552 401.848 384.152 406.44 389.496 410C384.152 413.552 379.552 418.152 376 423.496Z" fill="#3C3C3C"/>
<path d="M464 202H448C448 219.648 433.648 234 416 234V250C433.648 250 448 264.352 448 282H464C464 264.352 478.352 250 496 250V234C478.352 234 464 219.648 464 202ZM456 255.496C452.448 250.152 447.848 245.56 442.504 242C447.848 238.448 452.448 233.848 456 228.504C459.552 233.848 464.152 238.44 469.496 242C464.152 245.552 459.552 250.152 456 255.496Z" fill="#3C3C3C"/>
<path d="M128 450H112C112 467.648 97.648 482 80 482V498C97.648 498 112 512.352 112 530H128C128 512.352 142.352 498 160 498V482C142.352 482 128 467.648 128 450ZM120 503.496C116.448 498.152 111.848 493.56 106.504 490C111.848 486.448 116.44 481.848 120 476.504C123.552 481.848 128.152 486.44 133.496 490C128.152 493.552 123.552 498.152 120 503.496Z" fill="#3C3C3C"/>
<path d="M80 250H96C96 232.352 110.352 218 128 218V202C110.352 202 96 187.648 96 170H80C80 187.648 65.648 202 48 202V218C65.648 218 80 232.352 80 250ZM88 196.504C91.552 201.848 96.152 206.448 101.496 210C96.152 213.552 91.552 218.152 88 223.496C84.448 218.152 79.848 213.552 74.504 210C79.848 206.448 84.448 201.848 88 196.504Z" fill="#3C3C3C"/>
</svg>
