<svg width="645" height="645" viewBox="0 0 645 645" fill="none" xmlns="http://www.w3.org/2000/svg">
<path d="M430.027 458.397L485.568 402.834C493.049 395.443 502.513 390.384 512.813 388.27C523.112 386.157 533.803 387.08 543.588 390.928L611.279 417.965C621.167 421.98 629.646 428.834 635.647 437.663C641.648 446.491 644.902 456.899 645 467.575V591.6C644.942 598.862 643.416 606.038 640.514 612.695C637.611 619.352 633.392 625.352 628.11 630.335C622.828 635.317 616.593 639.179 609.781 641.687C602.968 644.196 595.718 645.299 588.467 644.931C114.139 615.413 18.4306 213.572 0.330207 59.781C-0.510024 52.2288 0.257672 44.5842 2.58279 37.3501C4.9079 30.116 8.73774 23.4564 13.8203 17.8094C18.903 12.1624 25.1231 7.65595 32.0717 4.58656C39.0203 1.51716 46.5397 -0.0456203 54.1353 0.00101376H173.895C184.582 0.0326596 195.015 3.26206 203.852 9.27385C212.69 15.2856 219.527 23.8049 223.485 33.7358L250.512 101.453C254.485 111.203 255.499 121.909 253.426 132.232C251.354 142.555 246.287 152.038 238.858 159.497L183.317 215.06C183.317 215.06 215.303 431.608 430.027 458.397Z" fill="#90C43F"/>
</svg>
