<svg width="1068" height="234" viewBox="0 0 1068 234" fill="none" xmlns="http://www.w3.org/2000/svg">
<path d="M325.92 127.84C319.76 127.84 314.24 126.84 309.36 124.84C304.48 122.84 300.56 119.88 297.6 115.96C294.72 112.04 293.2 107.32 293.04 101.8H314.88C315.2 104.92 316.28 107.32 318.12 109C319.96 110.6 322.36 111.4 325.32 111.4C328.36 111.4 330.76 110.72 332.52 109.36C334.28 107.92 335.16 105.96 335.16 103.48C335.16 101.4 334.44 99.68 333 98.32C331.64 96.96 329.92 95.84 327.84 94.96C325.84 94.08 322.96 93.08 319.2 91.96C313.76 90.28 309.32 88.6 305.88 86.92C302.44 85.24 299.48 82.76 297 79.48C294.52 76.2 293.28 71.92 293.28 66.64C293.28 58.8 296.12 52.68 301.8 48.28C307.48 43.8 314.88 41.56 324 41.56C333.28 41.56 340.76 43.8 346.44 48.28C352.12 52.68 355.16 58.84 355.56 66.76H333.36C333.2 64.04 332.2 61.92 330.36 60.4C328.52 58.8 326.16 58 323.28 58C320.8 58 318.8 58.68 317.28 60.04C315.76 61.32 315 63.2 315 65.68C315 68.4 316.28 70.52 318.84 72.04C321.4 73.56 325.4 75.2 330.84 76.96C336.28 78.8 340.68 80.56 344.04 82.24C347.48 83.92 350.44 86.36 352.92 89.56C355.4 92.76 356.64 96.88 356.64 101.92C356.64 106.72 355.4 111.08 352.92 115C350.52 118.92 347 122.04 342.36 124.36C337.72 126.68 332.24 127.84 325.92 127.84ZM442.228 42.76V127H421.708V92.32H389.788V127H369.268V42.76H389.788V75.76H421.708V42.76H442.228ZM477.562 42.76V127H457.042V42.76H477.562ZM567.792 127H547.272L512.952 75.04V127H492.432V42.76H512.952L547.272 94.96V42.76H567.792V127ZM654.907 42.76L625.747 99.16V127H605.227V99.16L576.067 42.76H599.347L615.667 78.04L631.867 42.76H654.907ZM736.134 42.76V127H715.614V92.32H683.694V127H663.174V42.76H683.694V75.76H715.614V42.76H736.134ZM790.788 127.84C782.868 127.84 775.588 126 768.948 122.32C762.388 118.64 757.148 113.52 753.228 106.96C749.388 100.32 747.468 92.88 747.468 84.64C747.468 76.4 749.388 69 753.228 62.44C757.148 55.88 762.388 50.76 768.948 47.08C775.588 43.4 782.868 41.56 790.788 41.56C798.708 41.56 805.948 43.4 812.508 47.08C819.148 50.76 824.348 55.88 828.108 62.44C831.948 69 833.868 76.4 833.868 84.64C833.868 92.88 831.948 100.32 828.108 106.96C824.268 113.52 819.068 118.64 812.508 122.32C805.948 126 798.708 127.84 790.788 127.84ZM790.788 109.12C797.508 109.12 802.868 106.88 806.868 102.4C810.948 97.92 812.988 92 812.988 84.64C812.988 77.2 810.948 71.28 806.868 66.88C802.868 62.4 797.508 60.16 790.788 60.16C783.988 60.16 778.548 62.36 774.468 66.76C770.468 71.16 768.468 77.12 768.468 84.64C768.468 92.08 770.468 98.04 774.468 102.52C778.548 106.92 783.988 109.12 790.788 109.12ZM865.444 42.76V93.16C865.444 98.2 866.684 102.08 869.164 104.8C871.644 107.52 875.284 108.88 880.084 108.88C884.884 108.88 888.564 107.52 891.124 104.8C893.684 102.08 894.964 98.2 894.964 93.16V42.76H915.484V93.04C915.484 100.56 913.884 106.92 910.684 112.12C907.484 117.32 903.164 121.24 897.724 123.88C892.364 126.52 886.364 127.84 879.724 127.84C873.084 127.84 867.124 126.56 861.844 124C856.644 121.36 852.524 117.44 849.484 112.24C846.444 106.96 844.924 100.56 844.924 93.04V42.76H865.444ZM960.373 127.84C954.213 127.84 948.693 126.84 943.813 124.84C938.933 122.84 935.013 119.88 932.053 115.96C929.173 112.04 927.653 107.32 927.493 101.8H949.333C949.653 104.92 950.733 107.32 952.573 109C954.413 110.6 956.813 111.4 959.773 111.4C962.813 111.4 965.213 110.72 966.973 109.36C968.733 107.92 969.613 105.96 969.613 103.48C969.613 101.4 968.893 99.68 967.453 98.32C966.093 96.96 964.373 95.84 962.293 94.96C960.293 94.08 957.413 93.08 953.653 91.96C948.213 90.28 943.773 88.6 940.333 86.92C936.893 85.24 933.933 82.76 931.453 79.48C928.973 76.2 927.733 71.92 927.733 66.64C927.733 58.8 930.573 52.68 936.253 48.28C941.933 43.8 949.333 41.56 958.453 41.56C967.733 41.56 975.213 43.8 980.893 48.28C986.573 52.68 989.613 58.84 990.013 66.76H967.813C967.653 64.04 966.653 61.92 964.813 60.4C962.973 58.8 960.613 58 957.733 58C955.253 58 953.253 58.68 951.733 60.04C950.213 61.32 949.453 63.2 949.453 65.68C949.453 68.4 950.733 70.52 953.293 72.04C955.853 73.56 959.853 75.2 965.293 76.96C970.733 78.8 975.133 80.56 978.493 82.24C981.933 83.92 984.893 86.36 987.373 89.56C989.853 92.76 991.093 96.88 991.093 101.92C991.093 106.72 989.853 111.08 987.373 115C984.973 118.92 981.453 122.04 976.813 124.36C972.173 126.68 966.693 127.84 960.373 127.84ZM1024.24 59.2V76.24H1051.72V92.08H1024.24V110.56H1055.32V127H1003.72V42.76H1055.32V59.2H1024.24Z" fill="#316CCD"/>
<path d="M37.6676 125.548C35.6358 123.692 32.9861 122.659 30.2343 122.649H11.6509C5.49294 122.649 0.500916 127.641 0.500916 133.799V211.849C0.500916 218.007 5.49294 222.999 11.6509 222.999H30.2343C33.3878 222.989 36.3882 221.638 38.4853 219.283H131.699C137.153 219.285 142.502 217.786 147.161 214.949L216.811 172.549C220.106 170.562 222.427 167.294 223.217 163.527C224.007 159.761 223.196 155.836 220.977 152.691C220.901 152.561 220.815 152.437 220.721 152.319C217.123 147.543 210.883 145.59 205.204 147.462L193.768 151.268V104.066H204.918C206.269 104.066 207.513 103.333 208.168 102.151C208.823 100.969 208.785 99.5252 208.069 98.3795L187.591 65.6357C186.887 64.507 185.634 63.8395 184.305 63.8847C182.976 63.9298 181.771 64.6807 181.146 65.8545C180.52 67.0283 180.568 68.4467 181.272 69.5753L198.228 96.6327H95.4766L62.9409 44.5993H119.434C121.487 44.5993 123.151 42.9353 123.151 40.8827C123.151 38.83 121.487 37.166 119.434 37.166H56.2509C54.9739 37.1748 53.7908 37.8386 53.1178 38.924H53.0992L15.9325 98.3907C15.2224 99.5359 15.1877 100.976 15.8419 102.154C16.4961 103.332 17.7367 104.063 19.0843 104.066H37.6676V125.548ZM30.2343 215.566H11.6509C9.59826 215.566 7.93425 213.902 7.93425 211.849V133.799C7.93425 131.747 9.59826 130.083 11.6509 130.083H30.2343C32.2869 130.083 33.9509 131.747 33.9509 133.799V211.849C33.9509 213.902 32.2869 215.566 30.2343 215.566ZM207.519 154.501C210.069 153.659 212.874 154.469 214.581 156.542C214.637 156.635 214.696 156.72 214.759 156.809C215.859 158.264 216.289 160.118 215.941 161.909C215.593 163.699 214.5 165.257 212.934 166.194L143.295 208.601C139.801 210.727 135.789 211.85 131.699 211.849H41.3843V137.516H48.0743C54.9319 137.524 61.5842 139.857 66.9438 144.135C73.62 149.461 81.9038 152.369 90.4443 152.383H109.882C115.78 152.363 121.123 155.856 123.471 161.266C124.942 164.441 124.547 168.168 122.445 170.966H99.8103C92.4719 170.971 85.2984 173.143 79.1902 177.21L76.477 179.031C74.7733 180.177 74.3207 182.486 75.4661 184.19C76.6115 185.894 78.9211 186.346 80.6248 185.201L83.3157 183.395C88.2011 180.14 93.9398 178.402 99.8103 178.399H132.851C134.856 178.402 136.848 178.074 138.746 177.429L207.519 154.501ZM186.334 153.728L136.367 170.386C135.235 170.771 134.047 170.967 132.851 170.966H130.826C132.249 166.872 132.078 162.392 130.346 158.419C127.672 152.179 122.278 147.515 115.718 145.771V104.066H186.334V153.728ZM93.4176 104.066H108.284V144.949H90.4443C83.5866 144.942 76.9344 142.608 71.5747 138.33C64.8985 133.004 56.6147 130.097 48.0743 130.083H45.1009V101.416L67.4009 65.736L90.2659 102.319C90.945 103.406 92.1361 104.066 93.4176 104.066V104.066ZM56.2509 47.896L63.019 58.7227L39.3252 96.6327H25.7743L56.2509 47.896Z" fill="white"/>
<path d="M167.717 3.35418e-07C165.706 -0.000845578 164.059 1.59844 164.001 3.60888V3.68693V3.71667C164.001 5.0844 163.663 37.1667 134.23 37.1667C132.178 37.1667 130.514 38.8307 130.514 40.8833C130.514 42.936 132.178 44.6 134.23 44.6C163.547 44.6 163.993 76.6897 164.001 78.05C163.973 80.1027 165.615 81.7891 167.667 81.8169C169.72 81.8446 171.406 80.203 171.434 78.1504V78.0723V78.05C171.434 76.6823 171.772 44.6 201.201 44.6C203.254 44.6 204.918 42.936 204.918 40.8833C204.918 38.8307 203.254 37.1667 201.201 37.1667C171.888 37.1667 171.438 5.07697 171.434 3.71667C171.434 1.66401 169.77 3.35418e-07 167.717 3.35418e-07ZM184.26 40.8833C176.65 44.8982 170.767 51.5541 167.717 59.6005C164.668 51.5541 158.785 44.8982 151.175 40.8833C158.785 36.8685 164.668 30.2126 167.717 22.1662C170.767 30.2126 176.65 36.8685 184.26 40.8833V40.8833Z" fill="#FCD700"/>
<path d="M175.184 118.934C173.132 118.934 171.468 120.598 171.468 122.65V142.271L151.71 148.856C149.76 149.505 148.705 151.612 149.353 153.562C150.002 155.512 152.109 156.567 154.059 155.918L176.359 148.485C177.88 147.978 178.904 146.553 178.901 144.95V122.65C178.901 120.598 177.237 118.934 175.184 118.934V118.934Z" fill="white"/>
<path d="M320.038 183.235V189.312H308.075V223H300.678V189.312H288.66V183.235H320.038ZM331.514 194.345C333.292 194.345 334.924 194.629 336.409 195.197C337.912 195.766 339.205 196.6 340.287 197.7C341.368 198.782 342.212 200.12 342.817 201.715C343.422 203.292 343.724 205.097 343.724 207.132C343.724 207.646 343.697 208.077 343.642 208.425C343.605 208.755 343.522 209.021 343.394 209.222C343.284 209.406 343.128 209.543 342.927 209.635C342.725 209.708 342.468 209.745 342.157 209.745H324.722C324.923 212.642 325.702 214.768 327.059 216.125C328.416 217.482 330.212 218.16 332.449 218.16C333.549 218.16 334.493 218.032 335.282 217.775C336.088 217.518 336.785 217.234 337.372 216.922C337.977 216.611 338.499 216.327 338.939 216.07C339.397 215.813 339.837 215.685 340.259 215.685C340.534 215.685 340.772 215.74 340.974 215.85C341.176 215.96 341.35 216.116 341.497 216.317L343.477 218.792C342.725 219.672 341.882 220.415 340.947 221.02C340.012 221.607 339.031 222.083 338.004 222.45C336.996 222.798 335.96 223.046 334.897 223.193C333.852 223.339 332.834 223.413 331.844 223.413C329.882 223.413 328.058 223.092 326.372 222.45C324.685 221.79 323.218 220.827 321.972 219.562C320.725 218.279 319.744 216.702 319.029 214.832C318.314 212.944 317.957 210.762 317.957 208.287C317.957 206.362 318.268 204.557 318.892 202.87C319.515 201.165 320.404 199.689 321.559 198.442C322.732 197.177 324.153 196.178 325.822 195.445C327.508 194.712 329.406 194.345 331.514 194.345ZM331.652 199.212C329.672 199.212 328.122 199.772 327.004 200.89C325.886 202.008 325.171 203.594 324.859 205.647H337.619C337.619 204.767 337.5 203.942 337.262 203.172C337.023 202.384 336.657 201.697 336.162 201.11C335.667 200.523 335.043 200.065 334.292 199.735C333.54 199.387 332.66 199.212 331.652 199.212ZM367.081 200.285C366.898 200.578 366.706 200.789 366.504 200.917C366.302 201.027 366.046 201.082 365.734 201.082C365.404 201.082 365.046 200.991 364.661 200.807C364.295 200.624 363.864 200.422 363.369 200.202C362.874 199.964 362.306 199.753 361.664 199.57C361.041 199.387 360.298 199.295 359.436 199.295C358.098 199.295 357.044 199.579 356.274 200.147C355.504 200.716 355.119 201.458 355.119 202.375C355.119 202.98 355.311 203.493 355.696 203.915C356.1 204.318 356.622 204.676 357.264 204.987C357.924 205.299 358.666 205.583 359.491 205.84C360.316 206.078 361.16 206.344 362.021 206.637C362.883 206.931 363.726 207.27 364.551 207.655C365.376 208.022 366.11 208.498 366.751 209.085C367.411 209.653 367.934 210.341 368.319 211.147C368.722 211.954 368.924 212.926 368.924 214.062C368.924 215.419 368.676 216.675 368.181 217.83C367.686 218.967 366.962 219.957 366.009 220.8C365.056 221.625 363.873 222.276 362.461 222.752C361.068 223.211 359.464 223.44 357.649 223.44C356.677 223.44 355.724 223.348 354.789 223.165C353.872 223 352.983 222.762 352.121 222.45C351.278 222.138 350.49 221.772 349.756 221.35C349.041 220.928 348.409 220.47 347.859 219.975L349.426 217.39C349.628 217.078 349.866 216.84 350.141 216.675C350.416 216.51 350.765 216.427 351.186 216.427C351.608 216.427 352.002 216.547 352.369 216.785C352.754 217.023 353.194 217.28 353.689 217.555C354.184 217.83 354.761 218.087 355.421 218.325C356.1 218.563 356.952 218.682 357.979 218.682C358.786 218.682 359.473 218.591 360.041 218.407C360.628 218.206 361.105 217.949 361.471 217.637C361.856 217.326 362.131 216.968 362.296 216.565C362.48 216.143 362.571 215.712 362.571 215.272C362.571 214.612 362.37 214.072 361.966 213.65C361.581 213.228 361.059 212.862 360.399 212.55C359.757 212.238 359.015 211.963 358.171 211.725C357.346 211.468 356.494 211.193 355.614 210.9C354.752 210.607 353.9 210.267 353.056 209.882C352.231 209.479 351.489 208.975 350.829 208.37C350.187 207.765 349.665 207.022 349.261 206.142C348.876 205.262 348.684 204.199 348.684 202.952C348.684 201.797 348.913 200.697 349.371 199.652C349.83 198.607 350.499 197.7 351.379 196.93C352.277 196.142 353.386 195.518 354.706 195.06C356.045 194.583 357.585 194.345 359.326 194.345C361.27 194.345 363.039 194.666 364.634 195.307C366.229 195.949 367.558 196.792 368.621 197.837L367.081 200.285ZM384.71 223.44C382.272 223.44 380.393 222.752 379.073 221.377C377.753 219.984 377.093 218.068 377.093 215.63V199.872H374.233C373.866 199.872 373.545 199.753 373.27 199.515C373.014 199.277 372.885 198.919 372.885 198.442V195.747L377.423 195.005L378.853 187.305C378.926 186.938 379.091 186.654 379.348 186.452C379.623 186.251 379.962 186.15 380.365 186.15H383.885V195.032H391.31V199.872H383.885V215.162C383.885 216.042 384.105 216.73 384.545 217.225C384.985 217.72 385.572 217.967 386.305 217.967C386.727 217.967 387.075 217.922 387.35 217.83C387.644 217.72 387.891 217.61 388.093 217.5C388.313 217.39 388.505 217.289 388.67 217.197C388.835 217.087 389 217.032 389.165 217.032C389.367 217.032 389.532 217.087 389.66 217.197C389.789 217.289 389.926 217.436 390.073 217.637L392.108 220.937C391.118 221.762 389.981 222.386 388.698 222.807C387.414 223.229 386.085 223.44 384.71 223.44ZM448.074 203.117C448.074 206.032 447.589 208.737 446.617 211.23C445.645 213.705 444.279 215.85 442.519 217.665C440.759 219.48 438.642 220.901 436.167 221.927C433.692 222.936 430.951 223.44 427.944 223.44C424.938 223.44 422.188 222.936 419.694 221.927C417.219 220.901 415.093 219.48 413.314 217.665C411.554 215.85 410.189 213.705 409.217 211.23C408.245 208.737 407.759 206.032 407.759 203.117C407.759 200.202 408.245 197.507 409.217 195.032C410.189 192.539 411.554 190.385 413.314 188.57C415.093 186.755 417.219 185.343 419.694 184.335C422.188 183.308 424.938 182.795 427.944 182.795C430.951 182.795 433.692 183.308 436.167 184.335C438.642 185.362 440.759 186.782 442.519 188.597C444.279 190.394 445.645 192.539 446.617 195.032C447.589 197.507 448.074 200.202 448.074 203.117ZM440.484 203.117C440.484 200.936 440.191 198.983 439.604 197.26C439.036 195.518 438.211 194.042 437.129 192.832C436.048 191.622 434.728 190.697 433.169 190.055C431.629 189.413 429.888 189.092 427.944 189.092C426.001 189.092 424.25 189.413 422.692 190.055C421.134 190.697 419.804 191.622 418.704 192.832C417.623 194.042 416.789 195.518 416.202 197.26C415.615 198.983 415.322 200.936 415.322 203.117C415.322 205.299 415.615 207.261 416.202 209.002C416.789 210.726 417.623 212.192 418.704 213.402C419.804 214.594 421.134 215.511 422.692 216.152C424.25 216.794 426.001 217.115 427.944 217.115C429.888 217.115 431.629 216.794 433.169 216.152C434.728 215.511 436.048 214.594 437.129 213.402C438.211 212.192 439.036 210.726 439.604 209.002C440.191 207.261 440.484 205.299 440.484 203.117ZM460.851 194.785V212.715C460.851 214.438 461.245 215.777 462.034 216.73C462.84 217.665 464.041 218.132 465.636 218.132C466.81 218.132 467.91 217.876 468.936 217.362C469.963 216.831 470.935 216.107 471.851 215.19V194.785H478.644V223H474.491C473.611 223 473.034 222.587 472.759 221.762L472.291 219.507C471.705 220.094 471.1 220.635 470.476 221.13C469.853 221.607 469.184 222.019 468.469 222.367C467.772 222.697 467.011 222.954 466.186 223.138C465.38 223.339 464.509 223.44 463.574 223.44C462.034 223.44 460.668 223.183 459.476 222.67C458.303 222.138 457.313 221.396 456.506 220.442C455.7 219.489 455.085 218.362 454.664 217.06C454.26 215.74 454.059 214.292 454.059 212.715V194.785H460.851ZM486.996 223V194.785H490.984C491.68 194.785 492.166 194.913 492.441 195.17C492.716 195.427 492.899 195.867 492.991 196.49L493.404 199.9C494.412 198.158 495.594 196.783 496.951 195.775C498.308 194.767 499.829 194.262 501.516 194.262C502.909 194.262 504.064 194.583 504.981 195.225L504.101 200.312C504.046 200.642 503.927 200.881 503.744 201.027C503.56 201.156 503.313 201.22 503.001 201.22C502.726 201.22 502.35 201.156 501.874 201.027C501.397 200.899 500.764 200.835 499.976 200.835C498.564 200.835 497.354 201.229 496.346 202.017C495.338 202.787 494.485 203.924 493.789 205.427V223H486.996ZM530.312 209.002V223H522.914V183.235H535.867C538.525 183.235 540.826 183.547 542.769 184.17C544.713 184.793 546.317 185.664 547.582 186.782C548.847 187.901 549.782 189.239 550.387 190.797C550.992 192.356 551.294 194.061 551.294 195.912C551.294 197.837 550.974 199.607 550.332 201.22C549.69 202.815 548.728 204.19 547.444 205.345C546.161 206.5 544.557 207.398 542.632 208.04C540.707 208.682 538.452 209.002 535.867 209.002H530.312ZM530.312 203.227H535.867C537.224 203.227 538.406 203.062 539.414 202.732C540.423 202.384 541.257 201.898 541.917 201.275C542.577 200.633 543.072 199.863 543.402 198.965C543.732 198.048 543.897 197.031 543.897 195.912C543.897 194.849 543.732 193.887 543.402 193.025C543.072 192.163 542.577 191.43 541.917 190.825C541.257 190.22 540.423 189.762 539.414 189.45C538.406 189.12 537.224 188.955 535.867 188.955H530.312V203.227ZM578.47 223H575.418C574.776 223 574.272 222.908 573.905 222.725C573.539 222.523 573.264 222.129 573.08 221.542L572.475 219.535C571.76 220.177 571.055 220.745 570.358 221.24C569.68 221.717 568.974 222.12 568.24 222.45C567.507 222.78 566.728 223.028 565.903 223.193C565.078 223.358 564.161 223.44 563.153 223.44C561.961 223.44 560.861 223.284 559.853 222.972C558.845 222.642 557.974 222.157 557.24 221.515C556.525 220.873 555.966 220.076 555.563 219.122C555.16 218.169 554.958 217.06 554.958 215.795C554.958 214.732 555.233 213.687 555.783 212.66C556.351 211.615 557.286 210.68 558.588 209.855C559.89 209.012 561.622 208.315 563.785 207.765C565.949 207.215 568.635 206.903 571.843 206.83V205.18C571.843 203.292 571.44 201.898 570.633 201C569.845 200.083 568.69 199.625 567.168 199.625C566.068 199.625 565.151 199.753 564.418 200.01C563.685 200.267 563.043 200.56 562.493 200.89C561.961 201.202 561.466 201.486 561.008 201.742C560.55 201.999 560.045 202.127 559.495 202.127C559.037 202.127 558.643 202.008 558.313 201.77C557.983 201.532 557.717 201.238 557.515 200.89L556.278 198.717C559.523 195.747 563.437 194.262 568.02 194.262C569.67 194.262 571.137 194.537 572.42 195.087C573.722 195.619 574.822 196.371 575.72 197.342C576.619 198.296 577.297 199.442 577.755 200.78C578.232 202.118 578.47 203.585 578.47 205.18V223ZM565.27 218.765C565.967 218.765 566.609 218.701 567.195 218.572C567.782 218.444 568.332 218.252 568.845 217.995C569.377 217.738 569.881 217.427 570.358 217.06C570.853 216.675 571.348 216.226 571.843 215.712V210.955C569.863 211.047 568.204 211.221 566.865 211.477C565.545 211.716 564.482 212.027 563.675 212.412C562.869 212.797 562.291 213.247 561.943 213.76C561.613 214.273 561.448 214.832 561.448 215.437C561.448 216.629 561.796 217.482 562.493 217.995C563.208 218.508 564.134 218.765 565.27 218.765ZM602.997 200.285C602.814 200.578 602.621 200.789 602.42 200.917C602.218 201.027 601.961 201.082 601.65 201.082C601.32 201.082 600.962 200.991 600.577 200.807C600.21 200.624 599.78 200.422 599.285 200.202C598.79 199.964 598.221 199.753 597.58 199.57C596.956 199.387 596.214 199.295 595.352 199.295C594.014 199.295 592.96 199.579 592.19 200.147C591.42 200.716 591.035 201.458 591.035 202.375C591.035 202.98 591.227 203.493 591.612 203.915C592.015 204.318 592.538 204.676 593.18 204.987C593.84 205.299 594.582 205.583 595.407 205.84C596.232 206.078 597.075 206.344 597.937 206.637C598.799 206.931 599.642 207.27 600.467 207.655C601.292 208.022 602.025 208.498 602.667 209.085C603.327 209.653 603.85 210.341 604.235 211.147C604.638 211.954 604.84 212.926 604.84 214.062C604.84 215.419 604.592 216.675 604.097 217.83C603.602 218.967 602.878 219.957 601.925 220.8C600.971 221.625 599.789 222.276 598.377 222.752C596.984 223.211 595.38 223.44 593.565 223.44C592.593 223.44 591.64 223.348 590.705 223.165C589.788 223 588.899 222.762 588.037 222.45C587.194 222.138 586.405 221.772 585.672 221.35C584.957 220.928 584.325 220.47 583.775 219.975L585.342 217.39C585.544 217.078 585.782 216.84 586.057 216.675C586.332 216.51 586.68 216.427 587.102 216.427C587.524 216.427 587.918 216.547 588.285 216.785C588.67 217.023 589.11 217.28 589.605 217.555C590.1 217.83 590.677 218.087 591.337 218.325C592.015 218.563 592.868 218.682 593.895 218.682C594.701 218.682 595.389 218.591 595.957 218.407C596.544 218.206 597.02 217.949 597.387 217.637C597.772 217.326 598.047 216.968 598.212 216.565C598.395 216.143 598.487 215.712 598.487 215.272C598.487 214.612 598.285 214.072 597.882 213.65C597.497 213.228 596.975 212.862 596.315 212.55C595.673 212.238 594.93 211.963 594.087 211.725C593.262 211.468 592.41 211.193 591.53 210.9C590.668 210.607 589.815 210.267 588.972 209.882C588.147 209.479 587.405 208.975 586.745 208.37C586.103 207.765 585.58 207.022 585.177 206.142C584.792 205.262 584.6 204.199 584.6 202.952C584.6 201.797 584.829 200.697 585.287 199.652C585.745 198.607 586.415 197.7 587.295 196.93C588.193 196.142 589.302 195.518 590.622 195.06C591.96 194.583 593.5 194.345 595.242 194.345C597.185 194.345 598.955 194.666 600.55 195.307C602.145 195.949 603.474 196.792 604.537 197.837L602.997 200.285ZM628.106 200.285C627.922 200.578 627.73 200.789 627.528 200.917C627.327 201.027 627.07 201.082 626.758 201.082C626.428 201.082 626.071 200.991 625.686 200.807C625.319 200.624 624.888 200.422 624.393 200.202C623.898 199.964 623.33 199.753 622.688 199.57C622.065 199.387 621.323 199.295 620.461 199.295C619.122 199.295 618.068 199.579 617.298 200.147C616.528 200.716 616.143 201.458 616.143 202.375C616.143 202.98 616.336 203.493 616.721 203.915C617.124 204.318 617.647 204.676 618.288 204.987C618.948 205.299 619.691 205.583 620.516 205.84C621.341 206.078 622.184 206.344 623.046 206.637C623.908 206.931 624.751 207.27 625.576 207.655C626.401 208.022 627.134 208.498 627.776 209.085C628.436 209.653 628.958 210.341 629.343 211.147C629.747 211.954 629.948 212.926 629.948 214.062C629.948 215.419 629.701 216.675 629.206 217.83C628.711 218.967 627.987 219.957 627.033 220.8C626.08 221.625 624.897 222.276 623.486 222.752C622.092 223.211 620.488 223.44 618.673 223.44C617.702 223.44 616.748 223.348 615.813 223.165C614.897 223 614.007 222.762 613.146 222.45C612.302 222.138 611.514 221.772 610.781 221.35C610.066 220.928 609.433 220.47 608.883 219.975L610.451 217.39C610.652 217.078 610.891 216.84 611.166 216.675C611.441 216.51 611.789 216.427 612.211 216.427C612.632 216.427 613.027 216.547 613.393 216.785C613.778 217.023 614.218 217.28 614.713 217.555C615.208 217.83 615.786 218.087 616.446 218.325C617.124 218.563 617.977 218.682 619.003 218.682C619.81 218.682 620.497 218.591 621.066 218.407C621.652 218.206 622.129 217.949 622.496 217.637C622.881 217.326 623.156 216.968 623.321 216.565C623.504 216.143 623.596 215.712 623.596 215.272C623.596 214.612 623.394 214.072 622.991 213.65C622.606 213.228 622.083 212.862 621.423 212.55C620.782 212.238 620.039 211.963 619.196 211.725C618.371 211.468 617.518 211.193 616.638 210.9C615.777 210.607 614.924 210.267 614.081 209.882C613.256 209.479 612.513 208.975 611.853 208.37C611.212 207.765 610.689 207.022 610.286 206.142C609.901 205.262 609.708 204.199 609.708 202.952C609.708 201.797 609.937 200.697 610.396 199.652C610.854 198.607 611.523 197.7 612.403 196.93C613.302 196.142 614.411 195.518 615.731 195.06C617.069 194.583 618.609 194.345 620.351 194.345C622.294 194.345 624.063 194.666 625.658 195.307C627.253 195.949 628.583 196.792 629.646 197.837L628.106 200.285ZM643.7 194.785V223H636.907V194.785H643.7ZM644.717 186.562C644.717 187.149 644.598 187.699 644.36 188.212C644.121 188.726 643.8 189.175 643.397 189.56C643.012 189.945 642.554 190.257 642.022 190.495C641.49 190.715 640.922 190.825 640.317 190.825C639.73 190.825 639.171 190.715 638.64 190.495C638.126 190.257 637.677 189.945 637.292 189.56C636.907 189.175 636.595 188.726 636.357 188.212C636.137 187.699 636.027 187.149 636.027 186.562C636.027 185.957 636.137 185.389 636.357 184.857C636.595 184.326 636.907 183.867 637.292 183.482C637.677 183.097 638.126 182.795 638.64 182.575C639.171 182.337 639.73 182.217 640.317 182.217C640.922 182.217 641.49 182.337 642.022 182.575C642.554 182.795 643.012 183.097 643.397 183.482C643.8 183.867 644.121 184.326 644.36 184.857C644.598 185.389 644.717 185.957 644.717 186.562ZM664.544 194.345C666.652 194.345 668.559 194.684 670.264 195.363C671.987 196.041 673.454 197.003 674.664 198.25C675.874 199.497 676.809 201.018 677.469 202.815C678.129 204.612 678.459 206.619 678.459 208.837C678.459 211.074 678.129 213.091 677.469 214.887C676.809 216.684 675.874 218.215 674.664 219.48C673.454 220.745 671.987 221.717 670.264 222.395C668.559 223.073 666.652 223.413 664.544 223.413C662.435 223.413 660.52 223.073 658.796 222.395C657.073 221.717 655.597 220.745 654.369 219.48C653.159 218.215 652.215 216.684 651.536 214.887C650.876 213.091 650.546 211.074 650.546 208.837C650.546 206.619 650.876 204.612 651.536 202.815C652.215 201.018 653.159 199.497 654.369 198.25C655.597 197.003 657.073 196.041 658.796 195.363C660.52 194.684 662.435 194.345 664.544 194.345ZM664.544 218.187C666.89 218.187 668.623 217.399 669.741 215.822C670.878 214.246 671.446 211.936 671.446 208.892C671.446 205.849 670.878 203.53 669.741 201.935C668.623 200.34 666.89 199.542 664.544 199.542C662.16 199.542 660.4 200.349 659.264 201.962C658.127 203.557 657.559 205.867 657.559 208.892C657.559 211.917 658.127 214.227 659.264 215.822C660.4 217.399 662.16 218.187 664.544 218.187ZM684.859 223V194.785H689.011C689.891 194.785 690.469 195.197 690.744 196.022L691.211 198.25C691.779 197.663 692.375 197.132 692.999 196.655C693.64 196.178 694.309 195.766 695.006 195.417C695.721 195.069 696.482 194.803 697.289 194.62C698.095 194.437 698.975 194.345 699.929 194.345C701.469 194.345 702.834 194.611 704.026 195.142C705.218 195.656 706.208 196.389 706.996 197.342C707.803 198.277 708.408 199.405 708.811 200.725C709.233 202.027 709.444 203.466 709.444 205.042V223H702.651V205.042C702.651 203.319 702.248 201.99 701.441 201.055C700.653 200.102 699.461 199.625 697.866 199.625C696.693 199.625 695.593 199.891 694.566 200.422C693.539 200.954 692.568 201.678 691.651 202.595V223H684.859ZM754.418 183.235V189.12H736.791V200.89H751.668V206.802H736.791V223H729.338V183.235H754.418ZM771.209 194.345C773.318 194.345 775.224 194.684 776.929 195.363C778.653 196.041 780.119 197.003 781.329 198.25C782.539 199.497 783.474 201.018 784.134 202.815C784.794 204.612 785.124 206.619 785.124 208.837C785.124 211.074 784.794 213.091 784.134 214.887C783.474 216.684 782.539 218.215 781.329 219.48C780.119 220.745 778.653 221.717 776.929 222.395C775.224 223.073 773.318 223.413 771.209 223.413C769.101 223.413 767.185 223.073 765.462 222.395C763.739 221.717 762.263 220.745 761.034 219.48C759.824 218.215 758.88 216.684 758.202 214.887C757.542 213.091 757.212 211.074 757.212 208.837C757.212 206.619 757.542 204.612 758.202 202.815C758.88 201.018 759.824 199.497 761.034 198.25C762.263 197.003 763.739 196.041 765.462 195.363C767.185 194.684 769.101 194.345 771.209 194.345ZM771.209 218.187C773.556 218.187 775.289 217.399 776.407 215.822C777.544 214.246 778.112 211.936 778.112 208.892C778.112 205.849 777.544 203.53 776.407 201.935C775.289 200.34 773.556 199.542 771.209 199.542C768.826 199.542 767.066 200.349 765.929 201.962C764.793 203.557 764.224 205.867 764.224 208.892C764.224 211.917 764.793 214.227 765.929 215.822C767.066 217.399 768.826 218.187 771.209 218.187ZM791.524 223V194.785H795.512C796.208 194.785 796.694 194.913 796.969 195.17C797.244 195.427 797.427 195.867 797.519 196.49L797.932 199.9C798.94 198.158 800.122 196.783 801.479 195.775C802.836 194.767 804.357 194.262 806.044 194.262C807.437 194.262 808.592 194.583 809.509 195.225L808.629 200.312C808.574 200.642 808.455 200.881 808.272 201.027C808.088 201.156 807.841 201.22 807.529 201.22C807.254 201.22 806.878 201.156 806.402 201.027C805.925 200.899 805.292 200.835 804.504 200.835C803.092 200.835 801.882 201.229 800.874 202.017C799.866 202.787 799.013 203.924 798.317 205.427V223H791.524ZM854.53 213.622C854.933 213.622 855.282 213.778 855.575 214.09L858.49 217.252C856.877 219.251 854.888 220.782 852.523 221.845C850.176 222.908 847.353 223.44 844.053 223.44C841.101 223.44 838.443 222.936 836.078 221.927C833.731 220.919 831.723 219.517 830.055 217.72C828.387 215.923 827.103 213.778 826.205 211.285C825.325 208.792 824.885 206.069 824.885 203.117C824.885 200.129 825.38 197.397 826.37 194.922C827.36 192.429 828.753 190.284 830.55 188.487C832.347 186.691 834.492 185.297 836.985 184.307C839.497 183.299 842.265 182.795 845.29 182.795C848.242 182.795 850.818 183.272 853.018 184.225C855.236 185.16 857.133 186.407 858.71 187.965L856.235 191.402C856.088 191.622 855.896 191.815 855.658 191.98C855.438 192.145 855.126 192.227 854.723 192.227C854.301 192.227 853.87 192.062 853.43 191.732C852.99 191.402 852.431 191.045 851.753 190.66C851.074 190.275 850.213 189.917 849.168 189.587C848.141 189.257 846.83 189.092 845.235 189.092C843.365 189.092 841.642 189.422 840.065 190.082C838.507 190.724 837.159 191.65 836.023 192.86C834.904 194.07 834.024 195.546 833.383 197.287C832.759 199.011 832.448 200.954 832.448 203.117C832.448 205.354 832.759 207.343 833.383 209.085C834.024 210.827 834.886 212.293 835.968 213.485C837.049 214.677 838.323 215.593 839.79 216.235C841.257 216.858 842.833 217.17 844.52 217.17C845.528 217.17 846.436 217.115 847.243 217.005C848.068 216.895 848.819 216.721 849.498 216.482C850.194 216.244 850.845 215.942 851.45 215.575C852.073 215.19 852.688 214.722 853.293 214.172C853.476 214.007 853.668 213.879 853.87 213.787C854.072 213.677 854.292 213.622 854.53 213.622ZM872.042 182.135V223H865.25V182.135H872.042ZM892.501 194.345C894.279 194.345 895.911 194.629 897.396 195.197C898.899 195.766 900.192 196.6 901.274 197.7C902.355 198.782 903.199 200.12 903.804 201.715C904.409 203.292 904.711 205.097 904.711 207.132C904.711 207.646 904.684 208.077 904.629 208.425C904.592 208.755 904.509 209.021 904.381 209.222C904.271 209.406 904.115 209.543 903.914 209.635C903.712 209.708 903.455 209.745 903.144 209.745H885.709C885.91 212.642 886.689 214.768 888.046 216.125C889.403 217.482 891.199 218.16 893.436 218.16C894.536 218.16 895.48 218.032 896.269 217.775C897.075 217.518 897.772 217.234 898.359 216.922C898.964 216.611 899.486 216.327 899.926 216.07C900.384 215.813 900.824 215.685 901.246 215.685C901.521 215.685 901.759 215.74 901.961 215.85C902.163 215.96 902.337 216.116 902.484 216.317L904.464 218.792C903.712 219.672 902.869 220.415 901.934 221.02C900.999 221.607 900.018 222.083 898.991 222.45C897.983 222.798 896.947 223.046 895.884 223.193C894.839 223.339 893.821 223.413 892.831 223.413C890.869 223.413 889.045 223.092 887.359 222.45C885.672 221.79 884.205 220.827 882.959 219.562C881.712 218.279 880.731 216.702 880.016 214.832C879.301 212.944 878.944 210.762 878.944 208.287C878.944 206.362 879.255 204.557 879.879 202.87C880.502 201.165 881.391 199.689 882.546 198.442C883.719 197.177 885.14 196.178 886.809 195.445C888.495 194.712 890.393 194.345 892.501 194.345ZM892.639 199.212C890.659 199.212 889.109 199.772 887.991 200.89C886.873 202.008 886.158 203.594 885.846 205.647H898.606C898.606 204.767 898.487 203.942 898.249 203.172C898.01 202.384 897.644 201.697 897.149 201.11C896.654 200.523 896.03 200.065 895.279 199.735C894.527 199.387 893.647 199.212 892.639 199.212ZM933.431 223H930.379C929.737 223 929.233 222.908 928.866 222.725C928.499 222.523 928.224 222.129 928.041 221.542L927.436 219.535C926.721 220.177 926.015 220.745 925.319 221.24C924.64 221.717 923.934 222.12 923.201 222.45C922.468 222.78 921.689 223.028 920.864 223.193C920.039 223.358 919.122 223.44 918.114 223.44C916.922 223.44 915.822 223.284 914.814 222.972C913.805 222.642 912.934 222.157 912.201 221.515C911.486 220.873 910.927 220.076 910.524 219.122C910.12 218.169 909.919 217.06 909.919 215.795C909.919 214.732 910.194 213.687 910.744 212.66C911.312 211.615 912.247 210.68 913.549 209.855C914.85 209.012 916.583 208.315 918.746 207.765C920.909 207.215 923.595 206.903 926.804 206.83V205.18C926.804 203.292 926.4 201.898 925.594 201C924.805 200.083 923.65 199.625 922.129 199.625C921.029 199.625 920.112 199.753 919.379 200.01C918.645 200.267 918.004 200.56 917.454 200.89C916.922 201.202 916.427 201.486 915.969 201.742C915.51 201.999 915.006 202.127 914.456 202.127C913.998 202.127 913.604 202.008 913.274 201.77C912.944 201.532 912.678 201.238 912.476 200.89L911.239 198.717C914.484 195.747 918.398 194.262 922.981 194.262C924.631 194.262 926.098 194.537 927.381 195.087C928.683 195.619 929.783 196.371 930.681 197.342C931.579 198.296 932.258 199.442 932.716 200.78C933.193 202.118 933.431 203.585 933.431 205.18V223ZM920.231 218.765C920.928 218.765 921.569 218.701 922.156 218.572C922.743 218.444 923.293 218.252 923.806 217.995C924.338 217.738 924.842 217.427 925.319 217.06C925.814 216.675 926.309 216.226 926.804 215.712V210.955C924.824 211.047 923.164 211.221 921.826 211.477C920.506 211.716 919.443 212.027 918.636 212.412C917.829 212.797 917.252 213.247 916.904 213.76C916.574 214.273 916.409 214.832 916.409 215.437C916.409 216.629 916.757 217.482 917.454 217.995C918.169 218.508 919.094 218.765 920.231 218.765ZM941.21 223V194.785H945.363C946.243 194.785 946.82 195.197 947.095 196.022L947.563 198.25C948.131 197.663 948.727 197.132 949.35 196.655C949.992 196.178 950.661 195.766 951.358 195.417C952.073 195.069 952.833 194.803 953.64 194.62C954.447 194.437 955.327 194.345 956.28 194.345C957.82 194.345 959.186 194.611 960.378 195.142C961.569 195.656 962.559 196.389 963.348 197.342C964.154 198.277 964.759 199.405 965.163 200.725C965.584 202.027 965.795 203.466 965.795 205.042V223H959.003V205.042C959.003 203.319 958.599 201.99 957.793 201.055C957.004 200.102 955.813 199.625 954.218 199.625C953.044 199.625 951.944 199.891 950.918 200.422C949.891 200.954 948.919 201.678 948.003 202.595V223H941.21ZM980.802 194.785V223H974.01V194.785H980.802ZM981.82 186.562C981.82 187.149 981.701 187.699 981.462 188.212C981.224 188.726 980.903 189.175 980.5 189.56C980.115 189.945 979.656 190.257 979.125 190.495C978.593 190.715 978.025 190.825 977.42 190.825C976.833 190.825 976.274 190.715 975.742 190.495C975.229 190.257 974.78 189.945 974.395 189.56C974.01 189.175 973.698 188.726 973.46 188.212C973.24 187.699 973.13 187.149 973.13 186.562C973.13 185.957 973.24 185.389 973.46 184.857C973.698 184.326 974.01 183.867 974.395 183.482C974.78 183.097 975.229 182.795 975.742 182.575C976.274 182.337 976.833 182.217 977.42 182.217C978.025 182.217 978.593 182.337 979.125 182.575C979.656 182.795 980.115 183.097 980.5 183.482C980.903 183.867 981.224 184.326 981.462 184.857C981.701 185.389 981.82 185.957 981.82 186.562ZM989.601 223V194.785H993.754C994.634 194.785 995.211 195.197 995.486 196.022L995.954 198.25C996.522 197.663 997.118 197.132 997.741 196.655C998.383 196.178 999.052 195.766 999.749 195.417C1000.46 195.069 1001.22 194.803 1002.03 194.62C1002.84 194.437 1003.72 194.345 1004.67 194.345C1006.21 194.345 1007.58 194.611 1008.77 195.142C1009.96 195.656 1010.95 196.389 1011.74 197.342C1012.55 198.277 1013.15 199.405 1013.55 200.725C1013.98 202.027 1014.19 203.466 1014.19 205.042V223H1007.39V205.042C1007.39 203.319 1006.99 201.99 1006.18 201.055C1005.4 200.102 1004.2 199.625 1002.61 199.625C1001.44 199.625 1000.34 199.891 999.309 200.422C998.282 200.954 997.311 201.678 996.394 202.595V223H989.601ZM1031.72 194.29C1032.93 194.29 1034.07 194.418 1035.13 194.675C1036.2 194.913 1037.17 195.271 1038.05 195.747H1046.16V198.277C1046.16 198.699 1046.05 199.029 1045.83 199.267C1045.61 199.506 1045.24 199.671 1044.7 199.762L1042.17 200.23C1042.36 200.707 1042.49 201.211 1042.59 201.742C1042.7 202.274 1042.75 202.833 1042.75 203.42C1042.75 204.813 1042.47 206.078 1041.9 207.215C1041.35 208.333 1040.58 209.287 1039.59 210.075C1038.62 210.863 1037.45 211.477 1036.1 211.917C1034.76 212.339 1033.3 212.55 1031.72 212.55C1030.66 212.55 1029.62 212.449 1028.62 212.247C1027.74 212.779 1027.3 213.375 1027.3 214.035C1027.3 214.603 1027.55 215.025 1028.07 215.3C1028.6 215.557 1029.29 215.74 1030.13 215.85C1030.99 215.96 1031.96 216.033 1033.04 216.07C1034.13 216.088 1035.23 216.143 1036.37 216.235C1037.51 216.327 1038.62 216.492 1039.7 216.73C1040.78 216.95 1041.74 217.307 1042.59 217.802C1043.45 218.297 1044.14 218.976 1044.65 219.837C1045.18 220.681 1045.45 221.772 1045.45 223.11C1045.45 224.357 1045.13 225.567 1044.51 226.74C1043.91 227.913 1043.02 228.958 1041.84 229.875C1040.69 230.792 1039.27 231.525 1037.58 232.075C1035.89 232.643 1033.97 232.928 1031.81 232.928C1029.66 232.928 1027.8 232.717 1026.22 232.295C1024.65 231.892 1023.34 231.342 1022.29 230.645C1021.26 229.967 1020.49 229.178 1019.98 228.28C1019.47 227.382 1019.21 226.447 1019.21 225.475C1019.21 224.155 1019.61 223.046 1020.42 222.147C1021.23 221.249 1022.35 220.534 1023.78 220.002C1023.08 219.617 1022.52 219.104 1022.1 218.462C1021.68 217.821 1021.47 216.987 1021.47 215.96C1021.47 215.538 1021.54 215.107 1021.69 214.667C1021.83 214.209 1022.05 213.76 1022.35 213.32C1022.66 212.88 1023.04 212.467 1023.5 212.082C1023.96 211.679 1024.5 211.322 1025.12 211.01C1023.69 210.24 1022.57 209.213 1021.74 207.93C1020.93 206.647 1020.53 205.143 1020.53 203.42C1020.53 202.027 1020.81 200.771 1021.36 199.652C1021.92 198.516 1022.7 197.553 1023.69 196.765C1024.7 195.958 1025.88 195.344 1027.24 194.922C1028.62 194.501 1030.11 194.29 1031.72 194.29ZM1039.18 224.265C1039.18 223.715 1039.01 223.266 1038.68 222.917C1038.35 222.569 1037.9 222.303 1037.33 222.12C1036.77 221.918 1036.1 221.772 1035.33 221.68C1034.57 221.588 1033.77 221.524 1032.91 221.487C1032.06 221.432 1031.18 221.387 1030.27 221.35C1029.37 221.295 1028.5 221.212 1027.65 221.102C1026.88 221.524 1026.26 222.028 1025.78 222.615C1025.33 223.183 1025.1 223.843 1025.1 224.595C1025.1 225.09 1025.22 225.548 1025.45 225.97C1025.71 226.41 1026.1 226.786 1026.64 227.098C1027.19 227.409 1027.89 227.648 1028.75 227.813C1029.62 227.996 1030.67 228.088 1031.92 228.088C1033.18 228.088 1034.27 227.987 1035.19 227.785C1036.11 227.602 1036.86 227.336 1037.44 226.988C1038.05 226.658 1038.49 226.254 1038.76 225.778C1039.04 225.319 1039.18 224.815 1039.18 224.265ZM1031.72 208.205C1032.57 208.205 1033.3 208.095 1033.92 207.875C1034.55 207.637 1035.06 207.316 1035.46 206.912C1035.89 206.509 1036.2 206.023 1036.4 205.455C1036.62 204.887 1036.73 204.263 1036.73 203.585C1036.73 202.192 1036.31 201.092 1035.46 200.285C1034.64 199.46 1033.39 199.047 1031.72 199.047C1030.06 199.047 1028.8 199.46 1027.96 200.285C1027.13 201.092 1026.72 202.192 1026.72 203.585C1026.72 204.245 1026.82 204.859 1027.02 205.427C1027.24 205.996 1027.55 206.491 1027.96 206.912C1028.38 207.316 1028.9 207.637 1029.52 207.875C1030.17 208.095 1030.9 208.205 1031.72 208.205ZM1061.1 183.235V198.965C1061.1 200.633 1061.02 202.274 1060.85 203.887C1060.69 205.482 1060.47 207.178 1060.19 208.975H1055.6C1055.32 207.178 1055.1 205.482 1054.94 203.887C1054.77 202.274 1054.69 200.633 1054.69 198.965V183.235H1061.1ZM1053.65 219.26C1053.65 218.692 1053.75 218.151 1053.95 217.637C1054.17 217.124 1054.46 216.684 1054.83 216.317C1055.21 215.951 1055.66 215.657 1056.18 215.437C1056.69 215.217 1057.24 215.107 1057.83 215.107C1058.39 215.107 1058.93 215.217 1059.45 215.437C1059.96 215.657 1060.4 215.951 1060.77 216.317C1061.13 216.684 1061.43 217.124 1061.65 217.637C1061.87 218.151 1061.98 218.692 1061.98 219.26C1061.98 219.847 1061.87 220.397 1061.65 220.91C1061.43 221.405 1061.13 221.836 1060.77 222.202C1060.4 222.569 1059.96 222.853 1059.45 223.055C1058.93 223.275 1058.39 223.385 1057.83 223.385C1057.24 223.385 1056.69 223.275 1056.18 223.055C1055.66 222.853 1055.21 222.569 1054.83 222.202C1054.46 221.836 1054.17 221.405 1053.95 220.91C1053.75 220.397 1053.65 219.847 1053.65 219.26Z" fill="white" fill-opacity="0.5"/>
</svg>
