<svg width="1450" height="970" viewBox="0 0 1450 970" fill="none" xmlns="http://www.w3.org/2000/svg">
<g clip-path="url(#clip0)">
<rect width="1450" height="970" fill="white"/>
<path d="M1191.19 168.259C1179 156.028 1179 136.129 1191.19 123.9L1194.51 120.564L1082.07 120.565C1069.62 120.565 1059.49 110.416 1059.49 97.9402L1059.49 91.526C1059.49 85.9611 1061.51 80.8593 1064.84 76.9147C1060.24 76.1467 1055.99 73.9606 1052.61 70.5711C1048.35 66.2918 1046 60.6177 1046 54.5993L1046 48.1819C1046 40.5687 1049.77 33.8208 1055.55 29.719C1054.51 28.9799 1053.53 28.1489 1052.61 27.228C1048.35 22.9476 1046 17.2757 1046 11.2551L1046 4.84088C1046 4.83874 1046 4.83873 1046 4.83766C1046 -7.63349 1056.13 -17.7805 1068.57 -17.7826L1070.77 -17.7826C1067.46 -21.8181 1065.66 -26.8226 1065.66 -32.0923L1065.66 -38.5033C1065.66 -50.9777 1075.79 -61.1257 1088.24 -61.1257L1450.38 -61.1278C1453.36 -67.5356 1459.84 -72 1467.36 -72L1480.62 -72C1490.95 -72 1499.35 -63.6028 1499.35 -53.2826L1499.35 -21.9774C1499.35 -17.5473 1495.76 -13.9557 1491.33 -13.9557C1486.89 -13.9557 1483.3 -17.5473 1483.3 -21.9774L1483.3 -53.2815C1483.3 -54.7308 1482.07 -55.9554 1480.62 -55.9554L1467.36 -55.9554C1465.91 -55.9554 1464.69 -54.7308 1464.69 -53.2815L1464.69 112.72C1464.69 114.169 1465.91 115.393 1467.36 115.393L1480.62 115.393C1482.07 115.393 1483.3 114.169 1483.3 112.72L1483.3 19.7357C1483.3 15.3055 1486.89 11.7139 1491.33 11.7139C1495.76 11.7139 1499.35 15.3055 1499.35 19.7357L1499.35 112.718C1499.35 123.04 1490.95 131.436 1480.62 131.436L1467.36 131.436C1459.84 131.437 1453.36 126.973 1450.38 120.565L1283 120.565L1273.39 130.213C1270.26 133.353 1265.18 133.363 1262.04 130.238C1258.9 127.111 1258.89 122.031 1262.01 118.893L1273.98 106.883C1275.49 105.371 1277.53 104.521 1279.67 104.521L1394.97 104.521L1394.97 -45.0833L1088.24 -45.0811C1084.64 -45.0811 1081.72 -42.1302 1081.72 -38.5012L1081.72 -32.0902C1081.72 -30.3414 1082.4 -28.689 1083.65 -27.4376C1084.89 -26.1947 1086.52 -25.5102 1088.24 -25.5113L1170.24 -25.5091C1174.68 -25.5091 1178.27 -21.9175 1178.27 -17.4874L1178.27 -9.76191C1178.27 -5.33177 1174.68 -1.74016 1170.24 -1.74016L1068.58 -1.73911C1064.98 -1.73911 1062.06 1.21184 1062.06 4.83874L1062.06 11.2551C1062.06 13.0027 1062.74 14.6541 1063.99 15.9066C1065.23 17.1494 1066.86 17.8329 1068.58 17.8329L1170.24 17.834C1174.68 17.834 1178.27 21.4256 1178.27 25.8557L1178.27 33.5823C1178.27 35.7097 1177.42 37.7504 1175.92 39.2542C1174.41 40.7591 1172.37 41.604 1170.24 41.604L1068.58 41.603C1064.98 41.603 1062.06 44.556 1062.06 48.1819L1062.06 54.6003C1062.06 56.348 1062.74 58.0005 1063.99 59.2519C1065.23 60.4947 1066.86 61.1792 1068.58 61.1792L1170.24 61.1771C1172.37 61.1771 1174.41 62.0221 1175.92 63.5269C1177.42 65.0307 1178.27 67.0715 1178.27 69.1988L1178.27 76.9254C1178.27 81.3555 1174.68 84.9471 1170.24 84.9471L1082.07 84.9471C1078.47 84.9471 1075.54 87.8981 1075.54 91.526L1075.54 97.9402C1075.54 101.569 1078.47 104.521 1082.07 104.521L1213.83 104.52C1217.07 104.52 1220 106.471 1221.24 109.465C1222.49 112.457 1221.81 115.905 1219.52 118.202L1202.56 135.22C1196.6 141.207 1196.6 150.951 1202.56 156.94C1205.44 159.829 1209.27 161.42 1213.34 161.42C1217.4 161.42 1221.23 159.829 1224.11 156.94L1234.31 146.702C1237.43 143.563 1242.52 143.552 1245.66 146.677C1248.8 149.804 1248.81 154.883 1245.68 158.022L1235.48 168.26C1229.57 174.195 1221.7 177.463 1213.34 177.463C1204.97 177.463 1197.1 174.194 1191.19 168.259ZM1411.02 88.0339L1411.02 104.521L1448.63 104.521L1448.63 88.0339L1411.02 88.0339ZM1411.02 53.4944L1411.02 71.9894L1448.63 71.9894L1448.63 53.4944L1411.02 53.4944ZM1411.02 21.986L1411.02 37.452L1448.63 37.452L1448.63 21.986L1411.02 21.986ZM1411.02 -12.5513L1411.02 5.94362L1448.63 5.94362L1448.63 -12.5513L1411.02 -12.5513ZM1411.02 -28.5959L1448.63 -28.5959L1448.63 -45.0833L1411.02 -45.0833L1411.02 -28.5959Z" fill="#F4F4F4" fill-opacity="0.8"/>
<path d="M1545.03 370.129L1344.62 370.128C1340.18 370.128 1336.59 366.536 1336.59 362.106C1336.59 357.676 1340.18 354.084 1344.62 354.084L1489.62 354.085L1489.62 204.481L1374.32 204.481C1372.18 204.481 1370.13 203.631 1368.63 202.119L1318.75 152.062C1315.88 149.174 1312.05 147.583 1307.98 147.583C1303.92 147.583 1300.09 149.175 1297.21 152.062C1291.24 158.051 1291.25 167.795 1297.21 173.782L1314.17 190.8C1316.46 193.097 1317.14 196.547 1315.89 199.537C1314.65 202.531 1311.72 204.482 1308.48 204.482L1176.72 204.481C1173.12 204.481 1170.19 207.433 1170.19 211.062L1170.19 217.476C1170.19 221.104 1173.12 224.055 1176.71 224.055L1264.89 224.055C1269.32 224.055 1272.92 227.647 1272.92 232.077L1272.92 239.803C1272.92 241.931 1272.07 243.971 1270.57 245.475C1269.06 246.98 1267.02 247.825 1264.89 247.825L1163.22 247.823C1161.51 247.823 1159.88 248.507 1158.64 249.75C1157.39 251.002 1156.7 252.653 1156.7 254.404L1156.7 260.818C1156.7 264.446 1159.63 267.398 1163.22 267.399L1264.89 267.398C1267.02 267.398 1269.06 268.243 1270.57 269.748C1272.07 271.252 1272.92 273.292 1272.92 275.42L1272.92 283.146C1272.92 287.577 1269.32 291.168 1264.89 291.168L1163.22 291.169C1161.5 291.169 1159.88 291.853 1158.64 293.095C1157.39 294.347 1156.7 295.999 1156.7 297.747L1156.7 304.162C1156.7 307.789 1159.63 310.74 1163.22 310.74L1264.89 310.741C1269.32 310.741 1272.92 314.333 1272.92 318.763L1272.92 326.488C1272.92 330.919 1269.32 334.51 1264.89 334.51L1182.88 334.512C1181.17 334.511 1179.54 335.196 1178.3 336.439C1177.05 337.69 1176.36 339.343 1176.36 341.09L1176.37 347.503C1176.37 351.131 1179.29 354.082 1182.89 354.082L1302.87 354.084C1307.31 354.084 1310.9 357.676 1310.9 362.106C1310.9 366.536 1307.31 370.128 1302.87 370.128L1182.89 370.127C1170.44 370.127 1160.31 359.979 1160.31 347.505L1160.31 341.093C1160.31 341.092 1160.31 341.091 1160.31 341.09C1160.31 335.821 1162.11 330.819 1165.42 326.784L1163.22 326.784C1150.77 326.783 1140.65 316.633 1140.65 304.161L1140.65 297.746C1140.65 291.726 1143 286.053 1147.26 281.774C1148.18 280.853 1149.16 280.022 1150.2 279.283C1144.42 275.181 1140.65 268.432 1140.65 260.818L1140.65 254.404C1140.65 254.403 1140.65 254.402 1140.65 254.401C1140.65 248.381 1143 242.709 1147.26 238.43C1150.64 235.041 1154.89 232.854 1159.49 232.086C1156.15 228.142 1154.14 223.04 1154.14 217.475L1154.14 211.061C1154.14 198.586 1164.27 188.436 1176.72 188.436L1289.16 188.437L1285.83 185.1C1273.65 172.871 1273.65 152.973 1285.84 140.741C1291.75 134.806 1299.62 131.537 1307.98 131.537C1316.35 131.537 1324.22 134.806 1330.13 140.741L1377.65 188.436L1545.03 188.436C1548 182.029 1554.49 177.564 1562.01 177.564L1575.27 177.564C1585.6 177.564 1594 185.96 1594 196.282L1594 362.283C1594 372.603 1585.6 381 1575.27 381L1562.01 381C1554.49 381.001 1548 376.537 1545.03 370.129ZM1505.67 337.598L1505.67 354.085L1543.28 354.085L1543.28 337.598L1505.67 337.598ZM1505.67 303.06L1505.67 321.555L1543.28 321.555L1543.28 303.06L1505.67 303.06ZM1505.67 271.55L1505.67 287.016L1543.28 287.016L1543.28 271.55L1505.67 271.55ZM1505.67 237.013L1505.67 255.507L1543.28 255.507L1543.28 237.013L1505.67 237.013ZM1505.67 204.481L1505.67 220.969L1543.28 220.969L1543.28 204.481L1505.67 204.481ZM1575.27 364.959C1576.72 364.958 1577.95 363.733 1577.95 362.284L1577.95 196.284C1577.95 194.834 1576.72 193.61 1575.27 193.61L1562.01 193.61C1560.56 193.61 1559.33 194.834 1559.33 196.284L1559.33 362.285C1559.33 363.734 1560.56 364.959 1562.01 364.959L1575.27 364.959Z" fill="#F4F4F4" fill-opacity="0.8"/>
</g>
<defs>
<clipPath id="clip0">
<rect width="1450" height="970" fill="white"/>
</clipPath>
</defs>
</svg>
