<svg width="1450" height="970" viewBox="0 0 1450 970" fill="none" xmlns="http://www.w3.org/2000/svg">
<g clip-path="url(#clip0)">
<rect width="1450" height="970" fill="white"/>
<path d="M1675.17 -58.3737C1630.6 -58.3737 1594.34 -22.113 1594.34 22.4579C1594.34 67.0273 1630.6 103.288 1675.17 103.288C1719.74 103.288 1756 67.0273 1756 22.4579C1756 -22.113 1719.74 -58.3737 1675.17 -58.3737ZM1675.17 81.6943C1642.51 81.6943 1615.93 55.1199 1615.93 22.4564C1615.93 -10.207 1642.51 -36.7828 1675.17 -36.7828C1707.83 -36.7828 1734.41 -10.2084 1734.41 22.4564C1734.41 55.1199 1707.83 81.6943 1675.17 81.6943Z" fill="#F4F4F4" fill-opacity="0.8"/>
<path d="M1516.22 -192C1478 -192 1446.9 -160.904 1446.9 -122.683C1446.9 -84.463 1478 -53.3686 1516.22 -53.3686C1554.44 -53.3686 1585.53 -84.463 1585.53 -122.683C1585.53 -160.904 1554.44 -192 1516.22 -192ZM1516.22 -74.9624C1489.9 -74.9624 1468.49 -96.3705 1468.49 -122.684C1468.49 -149 1489.9 -170.409 1516.22 -170.409C1542.53 -170.409 1563.94 -149 1563.94 -122.684C1563.94 -96.3705 1542.53 -74.9624 1516.22 -74.9624Z" fill="#F4F4F4" fill-opacity="0.8"/>
<path d="M1745.2 288.926H1646.92L1633.29 252.572C1631.2 246.988 1624.98 244.158 1619.39 246.251C1613.81 248.344 1610.98 254.565 1613.07 260.149L1623.86 288.926H1571.75V218.263C1571.75 212.3 1566.92 207.467 1560.96 207.467C1555 207.467 1550.16 212.3 1550.16 218.263V288.926H1522.79C1522.32 288.819 1521.46 288.324 1521.13 287.964L1509.83 268.402C1509.21 267.319 1508.48 266.35 1507.68 265.467V218.263C1507.68 212.3 1502.85 207.467 1496.89 207.467C1490.92 207.467 1486.09 212.3 1486.09 218.263V265.467C1485.3 266.35 1484.56 267.319 1483.94 268.403L1472.65 287.964C1472.31 288.326 1471.46 288.821 1470.98 288.926H1413.13V218.263C1413.13 212.3 1408.29 207.467 1402.33 207.467C1396.37 207.467 1391.54 212.3 1391.54 218.263V288.926H1348.82V218.263C1348.82 212.3 1343.99 207.467 1338.02 207.467C1332.06 207.467 1327.23 212.3 1327.23 218.263V288.926H1296.46C1293.46 284.214 1289.36 280.273 1284.51 277.462V218.263C1284.51 212.3 1279.68 207.467 1273.72 207.467C1267.75 207.467 1262.92 212.3 1262.92 218.263V272.769H1262.8C1258.14 257.152 1243.65 245.736 1226.54 245.736C1224.4 245.736 1222.28 245.94 1220.21 246.297V218.263C1220.21 212.3 1215.37 207.467 1209.41 207.467C1203.45 207.467 1198.61 212.3 1198.61 218.263V244.241C1193.18 239.969 1186.69 237.025 1179.66 235.826C1177.56 223.635 1170.23 213.217 1160.08 206.957L1171.08 177.609H1406.21C1412.18 177.609 1417.01 172.775 1417.01 166.813C1417.01 160.85 1412.18 156.016 1406.21 156.016H1153.75V121.873H1599.47V156.016H1468.11C1462.15 156.016 1457.31 160.85 1457.31 166.813C1457.31 172.775 1462.15 177.609 1468.11 177.609H1582.14L1593.11 206.884C1594.74 211.219 1598.85 213.894 1603.22 213.894C1604.48 213.894 1605.76 213.672 1607.01 213.205C1612.59 211.111 1615.42 204.89 1613.33 199.306L1605.15 177.476C1614.09 176.439 1621.06 168.829 1621.06 159.614V118.273C1621.06 108.351 1612.99 100.279 1603.06 100.279H1526.74V32.5271C1526.74 22.6047 1518.67 14.5335 1508.75 14.5335H1363.03C1357.07 14.5335 1352.23 19.3673 1352.23 25.3297C1352.23 31.292 1357.07 36.1258 1363.03 36.1258H1505.15V100.279H1483.87V75.4008C1483.87 65.4784 1475.79 57.4072 1465.87 57.4072H1287.34C1277.42 57.4072 1269.35 65.4784 1269.35 75.4008V100.279H1248.07V36.1258H1304.01C1309.97 36.1258 1314.81 31.292 1314.81 25.3297C1314.81 19.3673 1309.97 14.5335 1304.01 14.5335H1244.47C1234.55 14.5335 1226.48 22.6047 1226.48 32.5271V100.279H1193.66C1197.36 91.0236 1199.42 80.9371 1199.42 70.3727C1199.42 25.8018 1163.16 -10.4589 1118.59 -10.4589C1074.02 -10.4589 1037.76 25.8018 1037.76 70.3727C1037.76 114.944 1074.02 151.204 1118.59 151.204C1123.21 151.204 1127.74 150.798 1132.16 150.047V159.614C1132.16 168.828 1139.12 176.439 1148.06 177.476L1139.36 200.71C1138.88 200.694 1138.41 200.678 1137.93 200.678C1115.22 200.678 1096.63 218.647 1095.64 241.11C1080.43 245.105 1068.55 257.361 1065.08 272.768H1053.82C1034.62 272.769 1019 288.393 1019 307.595C1019 326.797 1034.62 342.42 1053.82 342.42H1267.08C1285.3 342.42 1300.29 328.356 1301.78 310.518H1471.12C1478.91 310.518 1487.38 305.627 1491.27 298.887L1496.88 289.161L1502.5 298.887C1506.39 305.627 1514.86 310.518 1522.64 310.518H1745.2C1751.17 310.518 1756 305.684 1756 299.722C1756 293.761 1751.17 288.926 1745.2 288.926ZM1290.94 79.0024H1462.27V100.282H1290.94V79.0024ZM1132.16 118.277V128.021C1127.8 129.052 1123.26 129.616 1118.59 129.616C1085.92 129.616 1059.35 103.042 1059.35 70.377C1059.35 37.7121 1085.92 11.1377 1118.59 11.1377C1151.25 11.1377 1177.83 37.7121 1177.83 70.377C1177.83 81.2826 1174.86 91.5015 1169.69 100.284H1150.15C1140.23 100.284 1132.16 108.355 1132.16 118.277ZM1267.08 320.829H1053.82C1046.53 320.829 1040.59 314.893 1040.59 307.596C1040.59 300.299 1046.53 294.364 1053.82 294.364H1074.93C1077.88 294.364 1080.71 293.154 1082.75 291.013C1084.78 288.873 1085.86 285.991 1085.71 283.04V282.065C1085.71 270.686 1094.86 261.417 1106.22 261.324C1106.49 261.342 1108.25 261.413 1108.25 261.413C1116.6 262.174 1123.86 268.01 1126.28 276.133C1127.98 281.847 1133.99 285.101 1139.7 283.401C1145.42 281.701 1148.67 275.69 1146.97 269.974C1142.74 255.741 1131.22 244.964 1117.28 241.2C1118.2 230.611 1127.1 222.272 1137.93 222.272C1149.37 222.272 1158.67 231.577 1158.67 243.015C1158.67 243.697 1158.63 244.398 1158.56 245.098C1158.24 248.321 1159.38 251.519 1161.67 253.81C1163.96 256.101 1167.15 257.249 1170.38 256.922C1171.09 256.851 1171.79 256.815 1172.47 256.815C1182.07 256.815 1190.34 263.336 1192.6 272.674C1193.64 276.971 1197.19 280.201 1201.56 280.826C1205.95 281.458 1210.26 279.348 1212.46 275.514C1215.35 270.466 1220.75 267.329 1226.53 267.329C1235.49 267.329 1242.77 274.615 1242.77 283.567C1242.77 289.529 1247.6 294.363 1253.57 294.363H1267.08C1274.38 294.363 1280.32 300.299 1280.32 307.595C1280.32 314.891 1274.38 320.829 1267.08 320.829Z" fill="#F4F4F4" fill-opacity="0.8"/>
<path d="M1638.31 343.408H1339.75C1333.79 343.408 1328.95 348.241 1328.95 354.204C1328.95 360.166 1333.79 365 1339.75 365H1638.31C1644.27 365 1649.11 360.166 1649.11 354.204C1649.11 348.241 1644.27 343.408 1638.31 343.408Z" fill="#F4F4F4" fill-opacity="0.8"/>
<path d="M1677.93 185.106C1658.29 185.106 1642.32 201.081 1642.32 220.716C1642.32 240.352 1658.29 256.326 1677.93 256.326C1697.56 256.326 1713.53 240.35 1713.53 220.716C1713.53 201.078 1697.56 185.106 1677.93 185.106ZM1677.93 234.733C1670.2 234.733 1663.91 228.444 1663.91 220.716C1663.91 212.987 1670.2 206.698 1677.93 206.698C1685.66 206.698 1691.94 212.987 1691.94 220.716C1691.94 228.444 1685.66 234.733 1677.93 234.733Z" fill="#F4F4F4" fill-opacity="0.8"/>
</g>
<defs>
<clipPath id="clip0">
<rect width="1450" height="970" fill="white"/>
</clipPath>
</defs>
</svg>
