<svg width="1450" height="970" viewBox="0 0 1450 970" fill="none" xmlns="http://www.w3.org/2000/svg">
<g clip-path="url(#clip0)">
<rect width="1450" height="970" fill="white"/>
<path d="M1567.79 161.346C1570.75 164.033 1573.68 166.83 1576.51 169.659C1623.51 216.679 1648.87 279.322 1647.93 346.052C1647.84 352.128 1642.85 356.993 1636.78 356.916C1633.79 356.877 1631.1 355.655 1629.15 353.7C1627.12 351.675 1625.89 348.864 1625.93 345.772C1626.79 285.034 1603.71 228.02 1560.94 185.233C1558.37 182.654 1555.69 180.107 1552.99 177.66C1548.52 173.609 1548.16 166.621 1552.25 162.115C1556.33 157.611 1563.29 157.266 1567.79 161.346Z" fill="#F4F4F4" fill-opacity="0.8"/>
<path d="M1119.71 -40.0778L1351.79 -40.2594C1357.87 -40.265 1362.79 -35.3406 1362.79 -29.2649C1362.78 -23.1872 1357.85 -18.2563 1351.78 -18.2528L1123.36 -18.073L1123.17 222.672L1187.3 222.623L1187.43 185.625L1176.08 193.038C1171.64 195.937 1165.9 195.226 1162.3 191.625C1161.77 191.095 1161.29 190.502 1160.86 189.85C1157.54 184.762 1158.98 177.943 1164.07 174.617L1187.52 159.305L1187.67 113.349C1187.73 99.1461 1199.32 87.5484 1213.52 87.4972L1220.02 87.4726C1224.21 87.458 1228.26 88.4427 1231.88 90.3178C1233.35 77.4339 1244.33 67.3525 1257.55 67.3165L1264.07 67.2909C1270.96 67.2691 1277.44 69.9441 1282.32 74.826L1282.32 74.8291C1282.48 74.9877 1282.64 75.1474 1282.79 75.3102C1287.5 70.3214 1294.17 67.1913 1301.53 67.1671L1308.04 67.1425C1314.93 67.1186 1321.41 69.7946 1326.29 74.6766L1326.29 74.6776C1329.07 77.4591 1331.14 80.7621 1332.39 84.3623C1336.23 82.0873 1340.7 80.7735 1345.46 80.7575L1351.97 80.7339C1358.85 80.711 1365.33 83.3881 1370.21 88.268C1370.21 88.268 1370.21 88.27 1370.22 88.2721C1375.09 93.152 1377.77 99.6344 1377.75 106.53L1377.38 214.182C1391.02 202.073 1411.92 202.501 1424.92 215.503C1427.04 217.624 1428.82 219.958 1430.28 222.435L1472.91 222.402L1473.09 -18.3444L1407.79 -18.294C1401.71 -18.2905 1396.79 -23.2139 1396.8 -29.2895C1396.8 -35.3683 1401.73 -40.2981 1407.8 -40.3017L1476.78 -40.3559C1486.89 -40.3635 1495.1 -32.1402 1495.1 -22.0276L1495.05 35.2119C1545.62 50.1512 1591.95 77.5449 1630.27 115.878C1698.6 184.238 1732.17 278.717 1722.37 375.09C1721.76 381.138 1716.36 385.55 1710.32 384.944C1704.28 384.337 1699.87 378.944 1700.49 372.898C1709.61 283.127 1678.34 195.124 1614.7 131.453C1580.02 96.7582 1538.84 72.4555 1495.03 58.4635L1494.99 115.78C1504.74 119.689 1514.32 124.252 1523.65 129.502C1528.95 132.475 1530.81 139.187 1527.82 144.487C1524.84 149.784 1518.13 151.665 1512.84 148.688C1506.99 145.392 1501.01 142.425 1494.97 139.711L1494.9 226.054C1494.9 230.945 1492.99 235.55 1489.52 239.021C1486.05 242.492 1481.44 244.406 1476.56 244.409L1434.7 244.442C1433.75 251.812 1430.45 258.942 1424.79 264.601L1377.04 312.37L1376.99 328.042C1376.93 342.244 1365.34 353.84 1351.15 353.892L1212.72 354.37C1205.82 354.393 1199.34 351.719 1194.46 346.836C1189.58 341.953 1186.91 335.469 1186.93 328.577L1187.04 298.67C1187.06 292.592 1192 287.675 1198.07 287.687C1204.15 287.697 1209.06 292.634 1209.03 298.713L1208.93 328.62C1208.93 329.957 1209.62 330.849 1210.03 331.262C1210.44 331.674 1211.33 332.366 1212.67 332.362L1351.1 331.885C1353.2 331.877 1354.98 330.095 1354.99 327.997L1355.06 307.789C1355.07 304.88 1356.23 302.093 1358.29 300.035L1409.25 249.052C1414.23 244.068 1414.28 236.006 1409.36 231.081C1404.43 226.154 1396.37 226.2 1391.39 231.184L1374.06 248.518C1370.91 251.671 1366.17 252.614 1362.06 250.907C1357.95 249.199 1355.28 245.178 1355.29 240.721L1355.76 106.496C1355.76 105.155 1355.07 104.262 1354.65 103.848C1354.24 103.434 1353.34 102.741 1352.01 102.745L1345.51 102.768C1343.41 102.776 1341.63 104.558 1341.62 106.658L1341.26 209.622C1341.24 215.676 1336.34 220.582 1330.29 220.605L1322.45 220.633C1319.52 220.645 1316.71 219.488 1314.64 217.418C1312.57 215.347 1311.41 212.537 1311.43 209.609L1311.83 92.8979C1311.83 91.5605 1311.14 90.6688 1310.73 90.2562C1310.32 89.8436 1309.42 89.1523 1308.09 89.1553L1301.58 89.1799C1299.48 89.1867 1297.7 90.9674 1297.69 93.0683L1297.29 209.78C1297.27 215.836 1292.36 220.743 1286.31 220.764L1278.47 220.789C1275.54 220.798 1272.73 219.641 1270.67 217.571C1268.6 215.502 1267.44 212.691 1267.45 209.763L1267.85 93.0473C1267.86 91.711 1267.17 90.8182 1266.75 90.4056C1266.34 89.993 1265.45 89.3006 1264.12 89.3047L1257.6 89.3293C1255.5 89.3361 1253.73 91.1158 1253.72 93.2167L1253.32 209.93C1253.29 215.987 1248.39 220.895 1242.33 220.914L1234.49 220.936C1231.57 220.944 1228.76 219.787 1226.7 217.719L1226.69 217.717C1224.63 215.648 1223.47 212.839 1223.48 209.911L1223.81 113.223C1223.82 111.886 1223.13 110.997 1222.71 110.584C1222.3 110.172 1221.41 109.48 1220.07 109.484L1213.57 109.509C1211.46 109.517 1209.69 111.3 1209.68 113.398L1209.21 249.045C1209.19 255.123 1204.25 260.04 1198.17 260.029C1192.1 260.018 1187.19 255.081 1187.21 249.004L1187.22 244.636L1119.49 244.689C1114.44 244.693 1109.86 242.639 1106.54 239.32C1103.22 236.001 1101.17 231.417 1101.18 226.361L1101.37 -21.7187C1101.37 -26.6137 1103.28 -31.2207 1106.75 -34.6907C1110.22 -38.1617 1114.82 -40.0752 1119.71 -40.0778Z" fill="#F4F4F4" fill-opacity="0.8"/>
<path d="M1526.51 275.499C1542.83 283.998 1545.48 283.978 1561.93 275.261C1567.88 272.103 1575.06 273.168 1579.79 277.908C1584.54 282.654 1585.6 289.84 1582.44 295.764C1573.73 312.236 1573.71 314.887 1582.2 331.209C1585.28 337.126 1584.17 344.283 1579.44 349.019C1574.69 353.765 1567.53 354.874 1561.64 351.788C1545.32 343.291 1542.67 343.309 1526.22 352.02C1520.28 355.188 1513.1 354.126 1508.35 349.379C1503.61 344.638 1502.55 337.459 1505.7 331.523C1514.42 315.044 1514.44 312.393 1505.95 296.09C1502.86 290.174 1503.97 283.01 1508.71 278.264C1513.45 273.532 1520.6 272.419 1526.51 275.499ZM1532.34 325.383C1540.54 322.853 1547.55 322.842 1555.76 325.336C1553.27 317.13 1553.28 310.11 1555.81 301.906C1547.61 304.437 1540.59 304.448 1532.39 301.955C1534.88 310.159 1534.87 317.18 1532.34 325.383Z" fill="#F4F4F4" fill-opacity="0.8"/>
<path d="M1700.8 -30.787C1712.36 -24.7647 1713.5 -24.7718 1725.2 -30.9704C1730.74 -33.9004 1737.43 -32.899 1741.84 -28.4815C1746.27 -24.0537 1747.26 -17.3521 1744.33 -11.822C1738.13 -0.126683 1738.13 1.01355 1744.14 12.5762C1747.02 18.0977 1745.99 24.7759 1741.57 29.197C1737.16 33.6097 1730.49 34.6481 1724.97 31.7784C1713.4 25.753 1712.26 25.7621 1700.59 31.9421C1695.05 34.8969 1688.34 33.9049 1683.91 29.474C1679.5 25.0534 1678.5 18.357 1681.43 12.8114C1687.62 1.11498 1687.63 -0.0273345 1681.61 -11.6014C1678.74 -17.1188 1679.78 -23.7939 1684.19 -28.2097C1688.61 -32.6318 1695.29 -33.665 1700.8 -30.787ZM1707.61 5.76348C1711.17 5.12065 1714.57 5.11498 1718.13 5.74621C1717.5 2.18491 1717.5 -1.21605 1718.15 -4.77831C1714.59 -4.13548 1711.19 -4.12981 1707.63 -4.76104C1708.26 -1.19767 1708.25 2.20226 1707.61 5.76348Z" fill="#F4F4F4" fill-opacity="0.8"/>
<path d="M1566.16 -58.005C1581.48 -50.0247 1583.63 -50.0398 1599.12 -58.2426C1604.97 -61.3336 1612.03 -60.2786 1616.68 -55.6175C1621.36 -50.9429 1622.4 -43.8699 1619.3 -38.0326C1611.11 -22.5592 1611.09 -20.4022 1619.07 -5.07904C1622.11 0.748432 1621.01 7.79913 1616.35 12.4663C1611.69 17.1261 1604.65 18.2239 1598.82 15.1947C1583.49 7.21119 1581.34 7.22735 1565.89 15.4084C1560.04 18.5284 1552.97 17.4828 1548.29 12.8061C1543.63 8.14288 1542.58 1.07615 1545.67 -4.78086C1553.86 -20.2584 1553.88 -22.4143 1545.9 -37.7438C1542.87 -43.5692 1543.97 -50.6157 1548.63 -55.2787C1553.3 -59.9479 1560.35 -61.0416 1566.16 -58.005ZM1572.3 -11.2128C1579.36 -13.2278 1585.57 -13.2376 1592.64 -11.252C1590.65 -18.3242 1590.66 -24.5317 1592.68 -31.6017C1585.61 -29.5867 1579.41 -29.5758 1572.34 -31.5615C1574.32 -24.4903 1574.31 -18.2808 1572.3 -11.2128Z" fill="#F4F4F4" fill-opacity="0.8"/>
<path d="M1047.75 7.45609C1052.05 11.7502 1052.04 18.7181 1047.74 23.0187C1001.45 69.3308 1001.4 144.625 1047.62 190.864C1051.91 195.158 1051.9 202.125 1047.6 206.427C1043.3 210.728 1036.34 210.733 1032.05 206.439C977.258 151.625 977.327 62.3667 1032.2 7.46791C1036.5 3.16833 1043.46 3.16197 1047.75 7.45609Z" fill="#F4F4F4" fill-opacity="0.8"/>
<path d="M1081.87 57.8211C1086.16 62.1153 1086.16 69.0822 1081.86 73.3838C1063.36 91.8883 1063.34 121.976 1081.81 140.454C1086.1 144.748 1086.09 151.715 1081.79 156.016C1077.49 160.318 1070.53 160.322 1066.24 156.028C1039.2 128.976 1039.23 84.9261 1066.31 57.8329C1070.61 53.5312 1077.58 53.527 1081.87 57.8211Z" fill="#F4F4F4" fill-opacity="0.8"/>
<path d="M1345.92 55.7812L1360.67 46.1461C1365.76 42.8201 1372.57 44.254 1375.89 49.3342C1379.2 54.4218 1377.77 61.2403 1372.68 64.5673L1357.93 74.2024C1353.5 77.1014 1347.75 76.3899 1344.15 72.7893C1343.62 72.2596 1343.14 71.6665 1342.71 71.0142C1339.4 65.9267 1340.83 59.1082 1345.92 55.7812Z" fill="#F4F4F4" fill-opacity="0.8"/>
<path d="M1130.16 196.776L1133.35 194.69C1138.44 191.363 1145.26 192.788 1148.57 197.878C1151.89 202.966 1150.45 209.785 1145.36 213.11L1142.17 215.196C1137.73 218.095 1131.98 217.382 1128.39 213.783C1127.86 213.253 1127.37 212.66 1126.95 212.008C1123.63 206.92 1125.07 200.102 1130.16 196.776Z" fill="#F4F4F4" fill-opacity="0.8"/>
<path d="M1391.39 26.073L1406.13 16.4369C1411.22 13.1109 1418.03 14.5437 1421.35 19.625C1424.67 24.7126 1423.23 31.5311 1418.14 34.8581L1403.4 44.4942C1398.96 47.3933 1393.21 46.6818 1389.61 43.0802C1389.08 42.5504 1388.6 41.9583 1388.18 41.3061C1384.86 36.2185 1386.3 29.4 1391.39 26.073Z" fill="#F4F4F4" fill-opacity="0.8"/>
<path d="M1436.85 -3.63623L1451.59 -13.2713C1456.68 -16.5973 1463.5 -15.1686 1466.81 -10.0831C1470.13 -4.99561 1468.69 1.82296 1463.6 5.14995L1448.86 14.785C1444.42 17.6841 1438.68 16.9725 1435.08 13.372C1434.55 12.8412 1434.06 12.2491 1433.64 11.5968C1430.32 6.50933 1431.76 -0.309243 1436.85 -3.63623Z" fill="#F4F4F4" fill-opacity="0.8"/>
<path d="M1176.21 9.06474L1190.94 18.6775C1196.02 21.9958 1197.45 28.8133 1194.13 33.9058C1190.81 38.9973 1183.99 40.4353 1178.9 37.118L1164.17 27.5062C1163.52 27.0793 1162.93 26.5972 1162.4 26.0675C1158.8 22.4669 1158.09 16.7166 1160.99 12.2769C1164.31 7.18545 1171.13 5.74751 1176.21 9.06474Z" fill="#F4F4F4" fill-opacity="0.8"/>
<path d="M1221.63 38.7053L1236.36 48.3181C1241.45 51.6332 1242.87 58.4538 1239.55 63.5463C1236.22 68.6378 1229.41 70.0758 1224.32 66.7585L1209.59 57.1457C1208.94 56.7198 1208.35 56.2368 1207.82 55.707C1204.22 52.1075 1203.51 46.3571 1206.4 41.9175C1209.73 36.8249 1216.55 35.388 1221.63 38.7053Z" fill="#F4F4F4" fill-opacity="0.8"/>
<path d="M1403.31 157.263L1418.04 166.875C1423.12 170.193 1424.55 177.011 1421.22 182.103C1417.9 187.195 1411.08 188.633 1406 185.316L1391.27 175.704C1390.61 175.277 1390.02 174.795 1389.49 174.265C1385.9 170.666 1385.18 164.914 1388.08 160.476C1391.4 155.384 1398.22 153.946 1403.31 157.263Z" fill="#F4F4F4" fill-opacity="0.8"/>
<path d="M1448.72 186.902L1463.45 196.515C1468.54 199.831 1469.97 206.649 1466.64 211.743C1463.32 216.835 1456.5 218.272 1451.42 214.955L1436.68 205.342C1436.03 204.915 1435.44 204.433 1434.91 203.904C1431.31 200.304 1430.6 194.553 1433.5 190.114C1436.82 185.022 1443.64 183.585 1448.72 186.902Z" fill="#F4F4F4" fill-opacity="0.8"/>
<path d="M1142.35 -13.0335L1145.52 -10.9619C1150.61 -7.6468 1152.04 -0.826254 1148.71 4.26524C1145.39 9.35882 1138.57 10.7978 1133.49 7.48059L1130.31 5.40901C1129.66 4.98205 1129.06 4.49901 1128.54 3.96924C1124.94 0.369726 1124.22 -5.38063 1127.12 -9.81818C1130.44 -14.9118 1137.26 -16.3508 1142.35 -13.0335Z" fill="#F4F4F4" fill-opacity="0.8"/>
</g>
<defs>
<clipPath id="clip0">
<rect width="1450" height="970" fill="white"/>
</clipPath>
</defs>
</svg>
