<svg width="1450" height="970" viewBox="0 0 1450 970" fill="none" xmlns="http://www.w3.org/2000/svg">
<g clip-path="url(#clip0)">
<rect width="1450" height="970" fill="white"/>
<path d="M1597.03 107.012H1589.27C1588.16 99.1483 1584.61 91.5681 1578.58 85.5335C1573.41 80.3466 1566.89 76.8102 1559.82 75.2711C1557.47 68.9745 1553.79 63.23 1549 58.43C1540.09 49.5048 1528.24 44.5899 1515.64 44.5899C1513.87 44.5899 1512.11 44.6981 1510.38 44.8888C1503.89 26.5075 1486.37 13.2998 1465.81 13.2998C1447.24 13.2998 1431.14 24.0886 1423.43 39.7309C1417.35 27.2045 1404.54 18.547 1389.74 18.547C1369.26 18.547 1352.57 35.1272 1352.31 55.6062C1338.47 58.7936 1327.55 69.7106 1324.29 83.5596H1244.86V12.7411C1244.86 8.12065 1241.1 4.37681 1236.47 4.37681C1231.84 4.37681 1228.09 8.12065 1228.09 12.7411V249.055H1223.54V-94.4686H1228.09V-25.1769C1228.09 -20.5565 1231.84 -16.8126 1236.47 -16.8126C1241.1 -16.8126 1244.86 -20.5565 1244.86 -25.1769V-174.06C1244.86 -181.747 1238.59 -188 1230.88 -188H1220.74C1213.04 -188 1206.77 -181.747 1206.77 -174.06V83.5596H1200.79C1193.09 83.5596 1186.82 89.8127 1186.82 97.5V142.218C1186.82 149.905 1193.09 156.158 1200.79 156.158H1206.77V249.055H1205.35C1197.64 249.055 1191.38 255.309 1191.38 262.995V291.593H1161.53C1153.82 291.593 1147.55 297.846 1147.55 305.534V321.132H1124.44C1110.96 321.132 1100 332.071 1100 345.514C1100 353.745 1104.11 361.031 1110.39 365.448L1107.11 368.722C1103.84 371.989 1103.84 377.284 1107.11 380.551C1108.75 382.184 1110.9 383 1113.04 383C1115.19 383 1117.33 382.184 1118.97 380.551L1129.65 369.894H1134.57C1132.31 373.154 1132.63 377.65 1135.54 380.551C1137.17 382.184 1139.32 383 1141.47 383C1143.61 383 1145.76 382.184 1147.39 380.551L1158.08 369.894H1162.99C1160.74 373.152 1161.05 377.65 1163.96 380.55C1165.6 382.184 1167.74 383 1169.89 383C1172.04 383 1174.18 382.184 1175.82 380.551L1186.5 369.894H1191.41C1189.16 373.152 1189.48 377.65 1192.39 380.55C1194.02 382.184 1196.17 383 1198.31 383C1200.46 383 1202.61 382.184 1204.24 380.551L1214.92 369.894H1219.24V374.636C1219.24 379.256 1223 383 1227.63 383C1232.26 383 1236.01 379.256 1236.01 374.636V369.894H1240.33L1251.01 380.551C1252.65 382.184 1254.79 383 1256.94 383C1259.08 383 1261.23 382.184 1262.87 380.55C1265.77 377.65 1266.09 373.152 1263.84 369.894H1268.75L1279.44 380.551C1281.07 382.184 1283.22 383 1285.36 383C1287.51 383 1289.66 382.184 1291.29 380.551C1294.2 377.65 1294.52 373.154 1292.26 369.894H1297.18L1307.86 380.551C1309.5 382.184 1311.64 383 1313.79 383C1315.93 383 1318.08 382.184 1319.71 380.551C1322.62 377.65 1322.94 373.154 1320.69 369.894H1325.6L1336.28 380.551C1337.92 382.184 1340.06 383 1342.21 383C1344.36 383 1346.5 382.184 1348.14 380.551C1351.41 377.283 1351.41 371.988 1348.14 368.722L1343.26 363.858C1345.51 361.901 1347.39 359.544 1348.79 356.898H1451.63C1456.26 356.898 1460.02 353.153 1460.02 348.534C1460.02 343.913 1456.26 340.169 1451.63 340.169H1351.03C1348.58 329.289 1338.83 321.133 1327.19 321.133H1304.07V305.535C1304.07 297.847 1297.81 291.594 1290.1 291.594H1260.25V262.996C1260.25 255.31 1253.99 249.056 1246.28 249.056H1244.86V156.159H1569.4L1548 271.922L1443.49 216.377C1442.51 192.689 1422.89 173.715 1398.91 173.715C1374.3 173.715 1354.28 193.687 1354.28 218.236C1354.28 242.786 1374.3 262.759 1398.91 262.759C1407.29 262.759 1415.13 260.428 1421.84 256.4L1539.32 318.841L1536.14 336.05C1535.76 338.129 1533.3 340.169 1531.18 340.169H1496.35C1491.72 340.169 1487.96 343.913 1487.96 348.534C1487.96 353.153 1491.72 356.898 1496.35 356.898H1531.18C1541.36 356.898 1550.78 349.072 1552.63 339.083L1555.58 323.103C1563.1 322.34 1569.79 317.927 1573.39 311.183C1579.3 300.117 1575.08 286.318 1563.99 280.422L1563.52 280.173L1586.45 156.159H1597.03C1604.73 156.159 1611 149.906 1611 142.219V120.955C1611 113.266 1604.73 107.012 1597.03 107.012ZM1223.54 -171.271H1228.09V-111.197H1223.54V-171.271ZM1208.14 265.782H1243.49V291.592H1208.14V265.782ZM1203.59 100.288H1206.77V115.977H1203.59V100.288ZM1203.59 139.429V132.707H1206.77V139.429H1203.59ZM1287.31 308.321V321.131H1277.25C1272.62 321.131 1268.87 324.875 1268.87 329.496C1268.87 334.116 1272.62 337.86 1277.25 337.86H1327.19C1331.42 337.86 1334.86 341.292 1334.86 345.512C1334.86 349.731 1331.42 353.164 1327.19 353.164H1124.44C1120.21 353.164 1116.77 349.731 1116.77 345.512C1116.77 341.292 1120.21 337.86 1124.44 337.86H1233.66C1238.29 337.86 1242.04 334.116 1242.04 329.496C1242.04 324.875 1238.29 321.131 1233.66 321.131H1164.32V308.321H1287.31ZM1398.91 246.029C1383.55 246.029 1371.05 233.561 1371.05 218.235C1371.05 202.911 1383.55 190.443 1398.91 190.443C1409.86 190.443 1419.34 196.777 1423.89 205.959L1414.69 201.071C1411.4 199.322 1407.7 198.399 1403.99 198.399C1395.54 198.399 1387.83 203.017 1383.86 210.449C1381 215.81 1380.4 221.961 1382.17 227.772C1383.95 233.581 1387.89 238.353 1393.26 241.209L1401.98 245.845C1400.97 245.957 1399.95 246.029 1398.91 246.029ZM1558.59 303.316C1557.54 305.283 1555.5 306.504 1553.26 306.504C1552.27 306.504 1551.33 306.265 1550.44 305.795L1401.14 226.445C1399.72 225.69 1398.68 224.427 1398.21 222.891C1397.74 221.357 1397.9 219.731 1398.66 218.314C1399.71 216.347 1401.75 215.127 1403.99 215.127C1404.98 215.127 1405.92 215.365 1406.81 215.835L1556.11 295.184C1559.04 296.742 1560.15 300.391 1558.59 303.316ZM1515.64 61.3196C1523.75 61.3196 1531.38 64.4868 1537.12 70.237C1541.12 74.2362 1543.91 79.2492 1545.21 84.7328C1546.06 88.3417 1549.19 90.9603 1552.91 91.1644C1558.12 91.4521 1563.02 93.6457 1566.7 97.3405C1569.47 100.112 1571.31 103.467 1572.22 107.013H1537.91C1534.13 94.4175 1522.47 85.2123 1508.69 85.2123H1503.57C1502.03 79.2615 1498.87 73.9674 1494.62 69.7875C1500.31 64.3262 1507.74 61.3196 1515.64 61.3196ZM1465.81 30.0283C1478.79 30.0283 1489.9 38.2074 1494.29 49.6932C1489.9 51.9259 1485.85 54.849 1482.27 58.4311C1481.36 59.3478 1480.5 60.3014 1479.68 61.2738C1477.02 60.5824 1474.22 60.2121 1471.35 60.2121C1464.37 60.2121 1457.67 62.4326 1452.13 66.3682C1448.12 60.6471 1442.59 56.1739 1436.18 53.4538C1439.39 40.0331 1451.46 30.0283 1465.81 30.0283ZM1358.35 71.5318C1358.52 71.5117 1360.03 71.3913 1360.63 71.389C1360.87 71.4058 1361.44 71.4214 1361.49 71.4225C1366.3 71.6076 1370.88 73.4455 1374.47 76.683C1377.91 79.7812 1383.21 79.5146 1386.31 76.0853C1389.42 72.6582 1389.15 67.3697 1385.71 64.2716C1380.96 59.9824 1375.24 57.0304 1369.1 55.6151C1369.35 44.3602 1378.5 35.2755 1389.74 35.2755C1401.13 35.2755 1410.4 44.6078 1410.4 56.078C1410.4 56.7683 1410.37 57.4553 1410.3 58.1791C1410.05 60.675 1410.94 63.1508 1412.72 64.9229C1414.5 66.6961 1416.98 67.5805 1419.48 67.324C1420.19 67.2526 1420.87 67.2169 1421.55 67.2169C1430.17 67.2169 1437.7 72.5411 1440.76 80.4481C1439.03 84.4785 1438.07 88.916 1438.07 93.5744C1438.07 98.1948 1441.82 101.939 1446.45 101.939C1451.08 101.939 1454.83 98.1948 1454.83 93.5744C1454.83 90.3603 1455.76 87.3703 1457.34 84.8242C1457.43 84.6793 1458.06 83.728 1458.3 83.4101C1461.41 79.3719 1466.23 76.9373 1471.35 76.9373C1480.45 76.9373 1487.86 84.3993 1487.86 93.5733C1487.86 98.1937 1491.61 101.938 1496.24 101.938H1508.69C1512.96 101.938 1516.77 103.918 1519.29 107.01H1402.95V97.5C1402.95 89.8127 1396.68 83.5596 1388.97 83.5596H1341.94C1344.89 77.0778 1351.03 72.3693 1358.35 71.5318ZM1244.86 100.288H1386.18V115.977H1244.86V100.288ZM1594.23 139.429H1244.86V132.707H1388.98C1394.92 132.707 1400 128.975 1402.01 123.741H1594.23V139.429Z" fill="#F4F4F4" fill-opacity="0.8"/>
<path d="M1463.93 -137.49C1433.44 -137.49 1408.63 -112.404 1408.63 -81.5676C1408.63 -50.7325 1433.44 -25.6475 1463.93 -25.6475C1494.42 -25.6475 1519.23 -50.7325 1519.23 -81.5676C1519.23 -112.403 1494.42 -137.49 1463.93 -137.49ZM1463.93 -42.3749C1442.68 -42.3749 1425.4 -59.9566 1425.4 -81.5665C1425.4 -103.178 1442.68 -120.76 1463.93 -120.76C1485.18 -120.76 1502.47 -103.178 1502.47 -81.5665C1502.47 -59.9566 1485.18 -42.3749 1463.93 -42.3749Z" fill="#F4F4F4" fill-opacity="0.8"/>
<path d="M1546.65 -39.2623C1528.34 -39.2623 1513.44 -24.2211 1513.44 -5.73167C1513.44 12.7567 1528.34 27.7979 1546.65 27.7979C1564.96 27.7979 1579.86 12.7567 1579.86 -5.73167C1579.86 -24.22 1564.96 -39.2623 1546.65 -39.2623ZM1546.65 11.0693C1537.58 11.0693 1530.21 3.53146 1530.21 -5.73167C1530.21 -14.9959 1537.58 -22.5338 1546.65 -22.5338C1555.72 -22.5338 1563.09 -14.9959 1563.09 -5.73167C1563.09 3.53258 1555.72 11.0693 1546.65 11.0693Z" fill="#F4F4F4" fill-opacity="0.8"/>
</g>
<defs>
<clipPath id="clip0">
<rect width="1450" height="970" fill="white"/>
</clipPath>
</defs>
</svg>
