<svg width="478" height="478" viewBox="0 0 478 478" fill="none" xmlns="http://www.w3.org/2000/svg">
<path d="M402.051 245.635C399.712 244.007 398.222 241.457 397.971 238.631C397.715 235.8 398.688 233.127 400.7 231.11C405.39 226.42 407.975 220.184 407.975 213.548C407.975 206.913 405.39 200.676 400.7 195.981L397.879 193.165C394.182 189.469 394.182 183.458 397.879 179.761C409.081 168.559 415.261 153.659 415.261 137.808V133.983C415.261 129.739 411.82 126.303 407.581 126.303H399.763V86.1881H412.174C413.756 86.1881 415.23 85.7068 416.454 84.8825C421.267 99.8892 432.674 115.848 456.201 125.663C457.163 126.068 458.167 126.257 459.15 126.257C462.16 126.257 465.017 124.481 466.246 121.531C467.874 117.615 466.026 113.119 462.109 111.486C428.481 97.4521 428.261 70.3264 429.126 61.6224C432.244 59.6102 435.92 58.407 439.888 58.3916L462.759 58.3558C466.999 58.3507 470.429 54.9152 470.429 50.6758V8.75324C470.429 4.50876 466.988 1.07324 462.749 1.07324H367.65C324.949 1.07324 290.215 35.8124 290.215 78.5081C290.215 82.7526 293.656 86.1881 297.895 86.1881H329.486V126.303H319.113C314.873 126.303 311.433 129.739 311.433 133.983C311.433 141.249 311.238 148.038 310.921 154.489H34.1999C15.8498 154.489 0.919922 169.419 0.919922 187.769V221.259C0.919922 225.503 4.35544 228.939 8.59992 228.939H41.2246V425.06C41.2246 453.748 64.5052 477.08 93.1158 477.08H457.522C468.304 477.08 477.075 468.309 477.075 457.526V354.379C477.08 307.613 436.279 269.428 402.051 245.635V245.635ZM455.064 43.0163L440.697 43.0368V16.4332H455.064V43.0163ZM367.65 16.4332H425.342V46.334C415.348 50.9011 407.765 59.8713 405.333 70.8281H306.051C309.845 40.2105 336.024 16.4332 367.65 16.4332V16.4332ZM344.846 86.1881H384.403V126.303H344.846V86.1881ZM302.718 213.584H246.68V169.854H309.83C308.268 186.576 305.703 200.707 302.718 213.584ZM137.885 169.854H176.925V236.051C176.925 240.295 180.361 243.731 184.605 243.731C188.85 243.731 192.285 240.295 192.285 236.051V169.854H231.32V353.493H137.885V169.854ZM48.9046 213.584H16.2799V187.774C16.2799 177.892 24.3183 169.854 34.1999 169.854H122.525V213.584H48.9046ZM56.5846 425.06V228.944H122.525V361.173C122.525 365.412 125.961 368.853 130.205 368.853H239C243.244 368.853 246.68 365.412 246.68 361.173V228.944H298.868C297.803 232.963 296.718 236.916 295.642 240.843C289.084 264.738 282.883 287.312 282.883 318.805V457.526C282.883 458.97 283.063 460.368 283.36 461.72H93.1158C72.9737 461.72 56.5846 445.274 56.5846 425.06V425.06ZM461.72 457.526C461.72 459.841 459.841 461.72 457.527 461.72H302.437C300.122 461.72 298.243 459.841 298.243 457.526V318.805C298.243 289.38 303.901 268.772 310.455 244.908C317.725 218.438 325.917 188.609 326.731 141.663H399.742C398.851 151.955 394.418 161.514 387.029 168.902C377.347 178.589 377.347 194.343 387.029 204.03L389.85 206.846C393.547 210.543 393.547 216.554 389.85 220.25C384.633 225.462 382.027 232.661 382.682 239.998C383.343 247.361 387.209 254.011 393.291 258.241C424.503 279.949 461.72 314.248 461.72 354.379V457.526Z" fill="#3C3C3C"/>
<path d="M320.244 311.125C316.005 311.125 312.564 314.566 312.564 318.805V439.714C312.564 443.953 316.005 447.394 320.244 447.394H439.719C443.959 447.394 447.399 443.953 447.399 439.714V354.379C447.399 341.543 442.407 328.067 432.572 314.33C431.128 312.313 428.803 311.12 426.325 311.12L320.244 311.125ZM432.039 354.379V432.034H327.924V326.485L422.28 326.48C428.757 336.377 432.039 345.747 432.039 354.379Z" fill="#3C3C3C"/>
<path d="M65.5345 58.9342H88.938C93.1825 58.9342 96.618 55.4987 96.618 51.2542C96.618 47.0097 93.1825 43.5742 88.938 43.5742H65.5345C61.29 43.5742 57.8545 47.0097 57.8545 51.2542C57.8545 55.4987 61.29 58.9342 65.5345 58.9342V58.9342Z" fill="#3C3C3C"/>
<path d="M128.925 58.9342H152.329C156.573 58.9342 160.009 55.4987 160.009 51.2542C160.009 47.0097 156.573 43.5742 152.329 43.5742H128.925C124.681 43.5742 121.245 47.0097 121.245 51.2542C121.245 55.4987 124.686 58.9342 128.925 58.9342V58.9342Z" fill="#3C3C3C"/>
<path d="M108.931 101.589C113.176 101.589 116.611 98.154 116.611 93.9095V71.2484C116.611 67.0039 113.176 63.5684 108.931 63.5684C104.687 63.5684 101.251 67.0039 101.251 71.2484V93.9095C101.251 98.1488 104.692 101.589 108.931 101.589Z" fill="#3C3C3C"/>
<path d="M108.931 38.9359C113.176 38.9359 116.611 35.5004 116.611 31.2559V8.59992C116.611 4.35544 113.176 0.919922 108.931 0.919922C104.687 0.919922 101.251 4.35544 101.251 8.59992V31.2559C101.251 35.5004 104.692 38.9359 108.931 38.9359Z" fill="#3C3C3C"/>
</svg>
