<svg width="477" height="477" viewBox="0 0 477 477" fill="none" xmlns="http://www.w3.org/2000/svg">
<path d="M102.4 224.778C115.927 224.778 126.93 213.775 126.93 200.254C126.93 186.727 115.927 175.724 102.4 175.724C88.8781 175.724 77.8752 186.727 77.8752 200.254C77.8701 213.781 88.873 224.778 102.4 224.778V224.778ZM102.4 191.089C107.453 191.089 111.57 195.2 111.57 200.259C111.57 205.312 107.459 209.423 102.4 209.423C97.3466 209.423 93.2352 205.312 93.2352 200.259C93.2301 195.2 97.3466 191.089 102.4 191.089Z" fill="#3C3C3C"/>
<path d="M449.019 64.543L436.449 43.9298C435.389 42.189 433.684 40.9449 431.703 40.4636C429.716 39.9977 427.638 40.3151 425.892 41.3698L420.905 44.4111L392.356 3.30264C390.031 -0.0407245 385.51 -0.993044 382.044 1.12664L338.253 27.8326C334.781 29.9522 333.563 34.4015 335.473 37.9906L358.958 82.1967L353.966 85.238C350.346 87.4498 349.199 92.1705 351.411 95.7954L362.01 113.173L311.864 143.76C306.565 146.99 303.268 152.853 303.268 159.063V251.761C298.819 250.65 294.195 250.056 289.475 250.056H201.815H114.15C88.5043 250.056 65.7408 267.295 58.7981 291.984L45.8394 338.038H35.1898C24.8474 338.038 16.4352 346.45 16.4352 356.787V371.83C16.4352 381.056 23.1475 388.706 31.9437 390.252C31.2832 441.892 23.7619 457.027 21.2531 460.647H7.68C3.43552 460.647 0 464.087 0 468.327C0 472.566 3.43552 476.007 7.68 476.007H395.945H458.24C468.122 476.007 476.16 467.968 476.16 458.087V95.8518C476.16 79.9286 464.343 66.7548 449.019 64.543V64.543ZM352.435 37.1766L383.867 18.0073L407.772 52.4239L372.096 74.189L352.435 37.1766ZM368.527 94.3567L375.767 89.9382L422.733 61.2969C422.748 61.2866 422.758 61.2764 422.774 61.2662L427.341 58.4809L433.94 69.2994L375.127 105.17L368.527 94.3567ZM319.862 156.877L376.561 122.291C376.561 122.291 376.566 122.291 376.566 122.286L446.459 79.6521C454.528 80.6249 460.8 87.5164 460.8 95.8466V215.987H318.628V159.063C318.628 158.178 319.099 157.343 319.862 156.877ZM318.628 231.347H460.8V388.014H377.743C383.36 384.773 387.19 378.773 387.19 371.835V356.793C387.19 346.45 378.772 338.043 368.435 338.043H357.791L344.832 291.989C340.731 277.412 331.095 265.472 318.633 258.105V231.347H318.628ZM70.999 390.585V434.867C70.6048 434.852 70.2208 434.806 69.8214 434.806C57.897 434.806 47.4368 441.083 41.4925 450.483C44.6259 437.714 46.9453 418.724 47.2986 390.579H70.999V390.585ZM112.046 390.585V421.105C104.059 427.259 97.6435 435.349 93.5885 444.718C91.4534 442.568 89.0163 440.72 86.3642 439.209V390.585H112.046ZM153.088 390.585V408.935C151.511 408.807 149.929 408.694 148.321 408.694C140.954 408.694 133.924 410.102 127.406 412.554V390.585H153.088ZM194.135 390.585V430.213C187.397 422.129 178.54 415.903 168.448 412.268V390.59H194.135V390.585ZM69.8214 450.171C77.0765 450.171 83.3075 454.477 86.2106 460.647H53.4272C56.3354 454.477 62.5664 450.171 69.8214 450.171ZM148.321 424.054C170.112 424.054 188.227 439.89 191.882 460.642H104.76C108.416 439.89 126.536 424.054 148.321 424.054V424.054ZM209.495 390.585H235.177V460.647H209.495V390.585ZM250.537 390.585H276.224V460.647H250.537V390.585ZM291.579 390.585H317.266V460.647H291.579V390.585ZM332.626 390.585H356.321C356.787 427.443 360.617 448.604 365.24 460.647H332.621V390.585H332.626ZM73.5846 296.146C78.6739 278.052 95.3549 265.416 114.15 265.416H201.815H289.48C308.275 265.416 324.956 278.052 330.045 296.146L341.832 338.043H317.553C323.697 325.156 318.915 309.218 317.901 306.202C314.378 293.228 302.587 284.186 289.116 284.186C279.603 284.186 274.627 288.507 270.991 291.661C267.756 294.467 265.8 296.162 260.014 296.162C254.228 296.162 252.273 294.467 249.037 291.661C245.402 288.507 240.425 284.186 230.907 284.186C221.389 284.186 216.412 288.507 212.782 291.661C209.546 294.467 207.596 296.162 201.805 296.162C196.014 296.162 194.063 294.467 190.828 291.656C187.197 288.507 182.216 284.186 172.703 284.186C163.19 284.186 158.208 288.507 154.578 291.656C151.342 294.467 149.386 296.162 143.601 296.162C137.815 296.162 135.859 294.467 132.623 291.661C128.993 288.507 124.012 284.186 114.499 284.186C101.023 284.186 89.2314 293.228 85.7139 306.207C84.7053 309.218 79.9181 325.161 86.0672 338.043H61.783L73.5846 296.146ZM114.509 338.043C107.807 338.043 103.214 336.374 100.859 333.077C96.3891 326.83 99.0515 314.696 100.332 310.958C100.398 310.764 100.46 310.569 100.511 310.37C102.17 304 107.924 299.551 114.509 299.551C118.287 299.551 119.629 300.718 122.568 303.268C126.587 306.755 132.086 311.527 143.611 311.527C155.136 311.527 160.635 306.75 164.654 303.268C167.593 300.718 168.934 299.551 172.713 299.551C176.492 299.551 177.833 300.718 180.772 303.268C184.791 306.755 190.29 311.527 201.815 311.527C213.34 311.527 218.839 306.75 222.858 303.268C225.797 300.718 227.133 299.551 230.917 299.551C234.701 299.551 236.037 300.718 238.976 303.268C242.995 306.755 248.499 311.527 260.019 311.527C271.539 311.527 277.043 306.75 281.057 303.268C283.996 300.718 285.338 299.551 289.116 299.551C295.7 299.551 301.455 304 303.114 310.37C303.16 310.554 303.222 310.759 303.283 310.938C304.568 314.696 307.231 326.83 302.761 333.077C300.406 336.374 295.813 338.043 289.111 338.043H114.509ZM31.7952 356.793C31.7952 354.924 33.3158 353.403 35.1898 353.403H368.435C370.304 353.403 371.83 354.924 371.83 356.793V371.835C371.83 373.704 370.304 375.225 368.435 375.225H35.1898C33.321 375.225 31.7952 373.704 31.7952 371.835V356.793ZM458.24 460.647H395.945H382.372C380.083 457.354 373.658 444.529 372.019 403.374H460.8V458.087C460.8 459.495 459.648 460.647 458.24 460.647Z" fill="#3C3C3C"/>
<path d="M178.821 184.863C208.461 184.863 232.576 160.753 232.576 131.108C232.576 101.464 208.466 77.3535 178.821 77.3535C149.176 77.3535 125.066 101.464 125.066 131.108C125.066 160.753 149.181 184.863 178.821 184.863ZM178.821 92.7186C199.992 92.7186 217.216 109.942 217.216 131.114C217.216 152.285 199.992 169.508 178.821 169.508C157.65 169.508 140.426 152.285 140.426 131.114C140.426 109.942 157.65 92.7186 178.821 92.7186Z" fill="#3C3C3C"/>
<path d="M178.821 118.318C185.876 118.318 191.616 124.058 191.616 131.113C191.616 135.357 195.052 138.793 199.296 138.793C203.54 138.793 206.976 135.357 206.976 131.113C206.976 115.589 194.345 102.958 178.821 102.958C174.577 102.958 171.141 106.394 171.141 110.638C171.141 114.882 174.577 118.318 178.821 118.318Z" fill="#3C3C3C"/>
</svg>
