<svg width="477" height="476" viewBox="0 0 477 476" fill="none" xmlns="http://www.w3.org/2000/svg">
<path d="M53.5001 286.248H36.5C32.3 286.248 28.8 289.648 28.8 293.948C28.8 298.148 32.2 301.648 36.5 301.648H53.5001C57.7001 301.648 61.2001 298.248 61.2001 293.948C61.1001 289.748 57.7001 286.248 53.5001 286.248Z" fill="#3C3C3C"/>
<path d="M123.2 286.248H106.2C102 286.248 98.5 289.648 98.5 293.948C98.5 298.148 101.9 301.648 106.2 301.648H123.2C127.4 301.648 130.9 298.248 130.9 293.948C130.9 289.748 127.5 286.248 123.2 286.248Z" fill="#3C3C3C"/>
<path d="M79.8 298.348C75.6 298.348 72.1 301.748 72.1 306.048V336.648C72.1 340.848 75.5 344.348 79.8 344.348C84.1 344.348 87.5 340.948 87.5 336.648V306.048C87.5 301.748 84.1 298.348 79.8 298.348Z" fill="#3C3C3C"/>
<path d="M79.8 243.648C75.6 243.648 72.1 247.048 72.1 251.348V280.448C72.1 284.648 75.5 288.148 79.8 288.148C84.1 288.148 87.5 284.748 87.5 280.448V251.348C87.5 247.048 84.1 243.648 79.8 243.648Z" fill="#3C3C3C"/>
<path d="M468.6 244.648H366.9C351.7 244.648 336.8 247.448 322.5 252.648C318 236.048 313.7 218.148 311.6 194.548C311.6 194.448 311.6 194.348 311.6 194.248C311.1 190.148 307.6 187.248 303.6 187.448C303.5 187.448 303.4 187.448 303.3 187.448C303.3 187.448 303.3 187.448 303.2 187.448H303.1C291.7 188.748 280.8 185.248 272.3 177.748C264 170.248 259.2 159.648 259.2 148.448C259.2 144.248 255.8 140.748 251.5 140.748H205.5C200.2 140.748 195.9 136.448 195.9 131.148C195.9 125.848 200.2 121.548 205.5 121.548H298.6L319 129.648C334.3 135.748 350.5 138.848 367 138.848H468.7C472.9 138.848 476.4 135.448 476.4 131.148C476.4 126.948 473 123.448 468.7 123.448H366.9C352.4 123.448 338.1 120.748 324.6 115.348L312 110.348V79.7479C312 69.6479 308.1 60.2479 300.9 53.0479C293.8 45.9479 284.3 42.0479 274.3 42.0479L172.2 42.1479C168 42.1479 164.5 45.5479 164.5 49.8479V87.9479C164.5 92.1479 167.9 95.6479 172.2 95.6479H193C200.1 95.6479 206.2 99.9479 209 106.048H205.6C194.5 106.048 185.2 113.348 181.9 123.348H166.2C152.4 123.348 141.2 134.548 141.2 148.348C141.2 159.948 149.2 169.648 159.9 172.448C158.4 175.648 157.5 179.248 157.5 182.948C157.5 190.648 161 197.348 166.5 201.948C163 206.248 160.9 211.648 160.9 217.548C160.9 227.348 166.7 235.848 175 239.948C172.9 243.548 171.6 247.748 171.6 252.248C171.6 266.048 182.8 277.248 196.6 277.248H209.7C183.5 298.848 158.4 328.548 158.4 363.648V457.348C158.4 467.548 166.7 475.848 176.9 475.848H317.8C328 475.848 336.3 467.548 336.3 457.348V331.348C336.3 305.748 331.8 286.648 326.6 267.348C339.5 262.448 353.1 259.948 367 259.948H468.7C472.9 259.948 476.4 256.548 476.4 252.248C476.4 247.948 472.8 244.648 468.6 244.648V244.648ZM179.8 57.5479H191.4V80.3479H179.8V57.5479ZM206.8 83.4479V57.4479L274.2 57.3479C280.2 57.3479 285.8 59.6479 290 63.8479C294.2 68.0479 296.5 73.6479 296.5 79.6479V105.948H224.9C222.7 96.0479 215.9 87.7479 206.8 83.4479V83.4479ZM234.3 227.248C233.2 227.548 187.1 227.248 185.9 227.348C180.6 227.348 176.2 223.048 176.2 217.748C176.2 212.448 180.5 208.048 185.9 208.048L234.3 208.148C239.5 207.848 244 212.448 244 217.648C244 222.948 239.5 227.448 234.3 227.248ZM182.6 192.748C177.3 192.748 173 188.448 173 183.148C173 177.848 177.3 173.448 182.6 173.448C182.6 173.448 233.9 173.548 234.3 173.548C239.6 173.548 244 177.848 244 183.248C244 188.148 240.3 192.148 235.6 192.748H182.6ZM244.4 156.048C244.6 157.648 244.9 159.248 245.3 160.748C242 159.048 238.1 158.448 234.3 157.948H198.5C198.9 157.048 199.1 156.048 199.4 155.148C201.4 155.648 203.4 155.948 205.5 155.948H244.4V156.048ZM156.6 148.448C156.6 143.148 160.9 138.748 166.2 138.748H175.4C180.7 138.748 185 143.048 185 148.448C185 153.848 180.7 158.048 175.4 158.048H166.2C160.9 158.048 156.6 153.748 156.6 148.448ZM186.9 252.348C186.9 247.048 191.2 242.648 196.5 242.648H234.2C239.4 242.348 243.9 246.948 243.9 252.148C243.9 257.448 239.6 261.748 234.2 261.748L196.5 261.848C191.3 262.048 186.9 257.648 186.9 252.348V252.348ZM320.9 457.448C320.9 459.148 319.5 460.548 317.8 460.548H176.9C175.2 460.548 173.8 459.148 173.8 457.448V363.748C173.8 327.648 207.3 296.748 235.5 277.048C248.7 276.348 259.3 265.548 259.3 252.148C259.3 245.448 256.6 239.348 252.3 234.848C256.6 230.348 259.3 224.248 259.3 217.548C259.3 210.848 256.6 204.748 252.3 200.248C256 196.448 258.3 191.448 259 185.948C260 186.948 261 187.948 262.1 188.948C271.8 197.548 284.2 202.348 297.1 202.748C299.9 227.948 305.2 247.148 309.8 264.248C315.7 285.848 320.9 304.548 320.9 331.148V457.448Z" fill="#3C3C3C"/>
<path d="M301.6 323.748H263.3C220.4 323.748 185.4 358.648 185.4 401.648V441.248C185.4 445.448 188.8 448.948 193.1 448.948H231.4C274.3 448.948 309.3 414.048 309.3 371.048V331.448C309.3 327.248 305.8 323.748 301.6 323.748V323.748ZM263.3 339.148H283.2L200.8 422.548V401.648C200.7 367.248 228.8 339.148 263.3 339.148V339.148ZM231.4 433.648H211.5L293.9 350.248V371.148C293.9 405.548 265.8 433.648 231.4 433.648V433.648Z" fill="#3C3C3C"/>
<path d="M142.3 104.348C139.8 100.848 135 100.148 131.6 102.548L114.9 114.548C111.4 117.048 110.7 121.848 113.1 125.248C114.6 127.348 117 128.448 119.4 128.448C120.9 128.448 122.5 127.948 123.9 127.048L140.6 115.048C144 112.548 144.8 107.748 142.3 104.348V104.348Z" fill="#3C3C3C"/>
<path d="M81.4 138.448L64.7 150.448C61.2 152.948 60.5 157.748 62.9 161.148C64.4 163.248 66.8 164.348 69.2 164.348C70.7 164.348 72.3 163.848 73.7 162.948L90.4 150.948C93.9 148.448 94.6 143.648 92.2 140.248C89.7 136.748 84.9 135.948 81.4 138.448V138.448Z" fill="#3C3C3C"/>
<path d="M41.9 176.048C39.4 172.648 34.6 171.848 31.2 174.248L14.5 186.248C11 188.748 10.3 193.548 12.7 196.948C14.2 199.048 16.6 200.148 19 200.148C20.5 200.148 22.1 199.648 23.5 198.748L40.2 186.748C43.6 184.348 44.4 179.548 41.9 176.048V176.048Z" fill="#3C3C3C"/>
<path d="M115.5 85.148H136.1C140.3 85.148 143.8 81.748 143.8 77.448C143.8 73.248 140.4 69.748 136.1 69.748H115.5C111.3 69.748 107.8 73.148 107.8 77.448C107.8 81.748 111.2 85.148 115.5 85.148Z" fill="#3C3C3C"/>
<path d="M53.8 85.148H74.4C78.6 85.148 82.1 81.748 82.1 77.448C82.1 73.248 78.7 69.748 74.4 69.748H53.8C49.6 69.748 46.1 73.148 46.1 77.448C46.1 81.748 49.5 85.148 53.8 85.148Z" fill="#3C3C3C"/>
<path d="M20.3 77.448C20.3 73.248 16.9 69.748 12.6 69.748H7.7C3.5 69.748 0 73.148 0 77.448C0 81.648 3.4 85.148 7.7 85.148H12.6C16.9 85.148 20.3 81.748 20.3 77.448Z" fill="#3C3C3C"/>
<path d="M131.2 55.6481C132.6 56.8481 134.4 57.4481 136.1 57.4481C138.3 57.4481 140.5 56.4481 142 54.6481C144.7 51.3481 144.2 46.5481 141 43.8481L125.1 30.7481C121.8 28.0481 117 28.5481 114.3 31.7481C111.6 35.0481 112.1 39.8481 115.3 42.5481L131.2 55.6481Z" fill="#3C3C3C"/>
<path d="M89.8 1.74812C86.5 -0.951875 81.7 -0.451875 79 2.74812C76.3 6.04812 76.8 10.8481 80 13.5481L83.5 16.4481C84.9 17.6481 86.6999 18.2481 88.4 18.2481C90.6 18.2481 92.8 17.2481 94.3 15.4481C97 12.1481 96.5 7.34813 93.3 4.64813L89.8 1.74812Z" fill="#3C3C3C"/>
</svg>
