<svg width="477" height="477" viewBox="0 0 477 477" fill="none" xmlns="http://www.w3.org/2000/svg">
<path d="M458.245 397.655H447.877C444.37 382.29 430.618 370.775 414.208 370.775C408.73 370.775 403.43 372.188 398.623 374.63C389.386 363.177 375.414 356.265 360.453 356.265C347.397 356.265 335.544 361.426 326.743 369.772V344.709L331.628 348.175C332.979 349.133 334.525 349.588 336.067 349.588C338.473 349.588 340.838 348.462 342.339 346.353C344.791 342.892 343.977 338.099 340.521 335.642L326.748 325.868V209.997H336.077C340.316 209.997 343.757 206.561 343.757 202.317V147.917C343.757 143.672 340.316 140.237 336.077 140.237H293.811V101.499C293.811 97.2544 290.371 93.8189 286.131 93.8189H280.443V75.52H290.094C292.055 75.52 293.827 74.7622 295.183 73.5539C300.631 84.4954 311.624 94.9709 332.129 99.2819C332.662 99.3946 333.194 99.4509 333.722 99.4509C337.275 99.4509 340.465 96.9677 341.228 93.3478C342.103 89.1955 339.441 85.1251 335.293 84.2547C308.675 78.6586 305.9 61.184 305.951 53.8112C308.332 52.4237 311.06 51.5686 314.004 51.5584L333.727 51.5277C337.966 51.5226 341.396 48.087 341.396 43.8477V7.68C341.396 3.43552 337.956 0 333.716 0H251.684C214.277 0 183.844 30.4333 183.844 67.84C183.844 72.0845 187.279 75.52 191.524 75.52H217.713V93.8138H209.818C205.573 93.8138 202.138 97.2493 202.138 101.494V140.232H185.774V130.657C185.774 111.631 171.853 95.8413 153.672 92.8205V65.1264C153.672 60.8819 150.236 57.4464 145.992 57.4464H141.768L139.218 14.5562C138.977 10.5011 135.613 7.33184 131.548 7.33184H86.6099C82.5446 7.33184 79.1859 10.5011 78.9402 14.5562L76.3904 57.4464H72.1715C67.927 57.4464 64.4915 60.8819 64.4915 65.1264V92.8205C46.3104 95.8413 32.3891 111.636 32.3891 130.662V140.237H7.68C3.43552 140.237 0 143.672 0 147.917V202.317C0 206.561 3.43552 209.997 7.68 209.997H17.0086V427.658C17.0086 454.405 38.7123 476.165 65.3926 476.165H458.24C468.122 476.165 476.16 468.127 476.16 458.245V415.58C476.165 405.693 468.127 397.655 458.245 397.655ZM360.448 371.625C372.608 371.625 383.872 378.22 389.847 388.833C391.936 392.54 396.621 393.83 400.307 391.762C400.778 391.496 401.203 391.188 401.597 390.851C405.089 387.809 409.559 386.135 414.203 386.135C422.057 386.135 428.805 390.886 431.775 397.655H327.654C331.146 382.761 344.504 371.625 360.448 371.625V371.625ZM195.743 248.212C191.498 248.212 188.063 251.653 188.063 255.892V354.033C188.063 357.581 185.175 360.468 181.627 360.468C178.079 360.468 175.196 357.586 175.196 354.033V255.892C175.196 251.653 171.761 248.212 167.516 248.212C163.272 248.212 159.836 251.653 159.836 255.892V335.954C159.836 339.497 156.948 342.385 153.4 342.385C149.852 342.385 146.97 339.502 146.97 335.954V255.892C146.97 251.653 143.534 248.212 139.29 248.212C135.045 248.212 131.61 251.653 131.61 255.892V308.828C131.61 312.376 128.722 315.264 125.174 315.264C121.626 315.264 118.743 312.381 118.743 308.828V155.597H230.405V231.491C229.033 229.386 226.673 227.988 223.974 227.988C219.73 227.988 216.294 231.424 216.294 235.668V335.954C216.294 339.497 213.407 342.385 209.859 342.385C206.31 342.385 203.428 339.502 203.428 335.954V255.892C203.423 251.653 199.982 248.212 195.743 248.212V248.212ZM245.765 241.782V209.997H311.378V314.977L234.747 260.608C241.295 256.845 245.765 249.861 245.765 241.782V241.782ZM328.392 194.637H245.765V155.597H328.392V194.637ZM326.021 36.1728L315.75 36.1882V15.36H326.021V36.1728ZM251.684 15.36H300.39V39.4086C292.029 43.4483 285.65 50.9747 283.351 60.16H272.758H225.398H199.762C203.494 34.8518 225.357 15.36 251.684 15.36V15.36ZM233.073 75.52H265.073V93.8138H233.073V75.52ZM217.503 109.174H278.446V140.232H217.503V109.174ZM79.8515 72.8115H138.312V92.2624H79.8515V72.8115ZM93.8496 22.697H124.314L126.382 57.4515H91.7811L93.8496 22.697ZM47.7491 130.662C47.7491 117.96 58.0864 107.622 70.7891 107.622H72.1766H145.997H147.379C160.082 107.622 170.419 117.96 170.419 130.662V140.237H47.7491V130.662ZM15.36 155.597H103.378V194.637H15.36V155.597ZM32.3738 427.653V209.997H103.383V308.833C103.383 320.855 113.157 330.629 125.174 330.629C127.427 330.629 129.562 330.189 131.61 329.549V335.959C131.61 347.976 141.384 357.75 153.4 357.75C155.75 357.75 157.972 357.279 160.092 356.588C161.372 367.396 170.481 375.834 181.627 375.834C192.773 375.834 201.882 367.396 203.162 356.588C205.281 357.279 207.503 357.75 209.853 357.75C221.87 357.75 231.649 347.976 231.649 335.959V277.248L311.378 333.814V397.655H261.56C251.679 397.655 243.64 405.693 243.64 415.575V458.24C243.64 459.116 243.779 459.955 243.901 460.8H65.3978C47.1859 460.8 32.3738 445.932 32.3738 427.653V427.653ZM460.805 458.24C460.805 459.648 459.653 460.8 458.245 460.8H261.56C260.152 460.8 259 459.648 259 458.24V415.575C259 414.167 260.152 413.015 261.56 413.015H458.245C459.653 413.015 460.805 414.167 460.805 415.575V458.24Z" fill="#3C3C3C"/>
<path d="M387.789 281.79C402.842 281.79 415.094 269.537 415.094 254.485C415.094 239.427 402.842 227.18 387.789 227.18C372.736 227.18 360.484 239.432 360.484 254.485C360.484 269.543 372.736 281.79 387.789 281.79ZM387.789 242.54C394.373 242.54 399.734 247.895 399.734 254.485C399.734 261.069 394.373 266.43 387.789 266.43C381.204 266.43 375.844 261.069 375.844 254.485C375.844 247.895 381.204 242.54 387.789 242.54Z" fill="#3C3C3C"/>
<path d="M422.677 196.255C452.316 196.255 476.426 172.145 476.426 142.5C476.426 112.855 452.316 88.7451 422.677 88.7451C393.037 88.7451 368.922 112.855 368.922 142.5C368.922 172.145 393.037 196.255 422.677 196.255ZM422.677 104.11C443.848 104.11 461.066 121.334 461.066 142.505C461.066 163.676 443.848 180.9 422.677 180.9C401.505 180.9 384.282 163.676 384.282 142.505C384.282 121.334 401.505 104.11 422.677 104.11Z" fill="#3C3C3C"/>
<path d="M422.676 129.71C429.727 129.71 435.466 135.449 435.466 142.504C435.466 146.749 438.907 150.184 443.146 150.184C447.386 150.184 450.826 146.749 450.826 142.504C450.826 126.981 438.195 114.35 422.676 114.35C418.437 114.35 414.996 117.785 414.996 122.03C414.996 126.274 418.432 129.71 422.676 129.71Z" fill="#3C3C3C"/>
</svg>
