<svg width="1068" height="234" viewBox="0 0 1068 234" fill="none" xmlns="http://www.w3.org/2000/svg">
<path d="M325.419 127.84C319.259 127.84 313.739 126.84 308.859 124.84C303.979 122.84 300.059 119.88 297.099 115.96C294.219 112.04 292.699 107.32 292.539 101.8H314.379C314.699 104.92 315.779 107.32 317.619 109C319.459 110.6 321.859 111.4 324.819 111.4C327.859 111.4 330.259 110.72 332.019 109.36C333.779 107.92 334.659 105.96 334.659 103.48C334.659 101.4 333.939 99.68 332.499 98.32C331.139 96.96 329.419 95.84 327.339 94.96C325.339 94.08 322.459 93.08 318.699 91.96C313.259 90.28 308.819 88.6 305.379 86.92C301.939 85.24 298.979 82.76 296.499 79.48C294.019 76.2 292.779 71.92 292.779 66.64C292.779 58.8 295.619 52.68 301.299 48.28C306.979 43.8 314.379 41.56 323.499 41.56C332.779 41.56 340.259 43.8 345.939 48.28C351.619 52.68 354.659 58.84 355.059 66.76H332.859C332.699 64.04 331.699 61.92 329.859 60.4C328.019 58.8 325.659 58 322.779 58C320.299 58 318.299 58.68 316.779 60.04C315.259 61.32 314.499 63.2 314.499 65.68C314.499 68.4 315.779 70.52 318.339 72.04C320.899 73.56 324.899 75.2 330.339 76.96C335.779 78.8 340.179 80.56 343.539 82.24C346.979 83.92 349.939 86.36 352.419 89.56C354.899 92.76 356.139 96.88 356.139 101.92C356.139 106.72 354.899 111.08 352.419 115C350.019 118.92 346.499 122.04 341.859 124.36C337.219 126.68 331.739 127.84 325.419 127.84ZM441.727 42.76V127H421.207V92.32H389.287V127H368.767V42.76H389.287V75.76H421.207V42.76H441.727ZM477.061 42.76V127H456.541V42.76H477.061ZM567.291 127H546.771L512.451 75.04V127H491.931V42.76H512.451L546.771 94.96V42.76H567.291V127ZM654.406 42.76L625.246 99.16V127H604.726V99.16L575.566 42.76H598.846L615.166 78.04L631.366 42.76H654.406ZM735.633 42.76V127H715.113V92.32H683.193V127H662.673V42.76H683.193V75.76H715.113V42.76H735.633ZM790.287 127.84C782.367 127.84 775.087 126 768.447 122.32C761.887 118.64 756.647 113.52 752.727 106.96C748.887 100.32 746.967 92.88 746.967 84.64C746.967 76.4 748.887 69 752.727 62.44C756.647 55.88 761.887 50.76 768.447 47.08C775.087 43.4 782.367 41.56 790.287 41.56C798.207 41.56 805.447 43.4 812.007 47.08C818.647 50.76 823.847 55.88 827.607 62.44C831.447 69 833.367 76.4 833.367 84.64C833.367 92.88 831.447 100.32 827.607 106.96C823.767 113.52 818.567 118.64 812.007 122.32C805.447 126 798.207 127.84 790.287 127.84ZM790.287 109.12C797.007 109.12 802.367 106.88 806.367 102.4C810.447 97.92 812.487 92 812.487 84.64C812.487 77.2 810.447 71.28 806.367 66.88C802.367 62.4 797.007 60.16 790.287 60.16C783.487 60.16 778.047 62.36 773.967 66.76C769.967 71.16 767.967 77.12 767.967 84.64C767.967 92.08 769.967 98.04 773.967 102.52C778.047 106.92 783.487 109.12 790.287 109.12ZM864.943 42.76V93.16C864.943 98.2 866.183 102.08 868.663 104.8C871.143 107.52 874.783 108.88 879.583 108.88C884.383 108.88 888.063 107.52 890.623 104.8C893.183 102.08 894.463 98.2 894.463 93.16V42.76H914.983V93.04C914.983 100.56 913.383 106.92 910.183 112.12C906.983 117.32 902.663 121.24 897.223 123.88C891.863 126.52 885.863 127.84 879.223 127.84C872.583 127.84 866.623 126.56 861.343 124C856.143 121.36 852.023 117.44 848.983 112.24C845.943 106.96 844.423 100.56 844.423 93.04V42.76H864.943ZM959.872 127.84C953.712 127.84 948.192 126.84 943.312 124.84C938.432 122.84 934.512 119.88 931.552 115.96C928.672 112.04 927.152 107.32 926.992 101.8H948.832C949.152 104.92 950.232 107.32 952.072 109C953.912 110.6 956.312 111.4 959.272 111.4C962.312 111.4 964.712 110.72 966.472 109.36C968.232 107.92 969.112 105.96 969.112 103.48C969.112 101.4 968.392 99.68 966.952 98.32C965.592 96.96 963.872 95.84 961.792 94.96C959.792 94.08 956.912 93.08 953.152 91.96C947.712 90.28 943.272 88.6 939.832 86.92C936.392 85.24 933.432 82.76 930.952 79.48C928.472 76.2 927.232 71.92 927.232 66.64C927.232 58.8 930.072 52.68 935.752 48.28C941.432 43.8 948.832 41.56 957.952 41.56C967.232 41.56 974.712 43.8 980.392 48.28C986.072 52.68 989.112 58.84 989.512 66.76H967.312C967.152 64.04 966.152 61.92 964.312 60.4C962.472 58.8 960.112 58 957.232 58C954.752 58 952.752 58.68 951.232 60.04C949.712 61.32 948.952 63.2 948.952 65.68C948.952 68.4 950.232 70.52 952.792 72.04C955.352 73.56 959.352 75.2 964.792 76.96C970.232 78.8 974.632 80.56 977.992 82.24C981.432 83.92 984.392 86.36 986.872 89.56C989.352 92.76 990.592 96.88 990.592 101.92C990.592 106.72 989.352 111.08 986.872 115C984.472 118.92 980.952 122.04 976.312 124.36C971.672 126.68 966.192 127.84 959.872 127.84ZM1023.74 59.2V76.24H1051.22V92.08H1023.74V110.56H1054.82V127H1003.22V42.76H1054.82V59.2H1023.74Z" fill="#316CCD"/>
<path d="M37.1667 125.548C35.1349 123.692 32.4852 122.659 29.7334 122.649H11.15C4.99206 122.649 3.05176e-05 127.641 3.05176e-05 133.799V211.849C3.05176e-05 218.007 4.99206 222.999 11.15 222.999H29.7334C32.8869 222.989 35.8873 221.638 37.9844 219.283H131.198C136.652 219.285 142.002 217.786 146.66 214.949L216.31 172.549C219.605 170.562 221.926 167.294 222.716 163.527C223.506 159.761 222.695 155.836 220.476 152.691C220.4 152.561 220.314 152.437 220.22 152.319C216.622 147.543 210.382 145.59 204.703 147.462L193.267 151.268V104.066H204.417C205.768 104.066 207.013 103.333 207.667 102.151C208.322 100.969 208.285 99.5252 207.568 98.3795L187.09 65.6357C186.386 64.507 185.133 63.8395 183.804 63.8847C182.475 63.9298 181.271 64.6807 180.645 65.8545C180.019 67.0283 180.068 68.4467 180.771 69.5753L197.727 96.6327H94.9757L62.44 44.5993H118.933C120.986 44.5993 122.65 42.9353 122.65 40.8827C122.65 38.83 120.986 37.166 118.933 37.166H55.75C54.473 37.1748 53.2899 37.8386 52.6169 38.924H52.5983L15.4316 98.3907C14.7215 99.5359 14.6868 100.976 15.341 102.154C15.9953 103.332 17.2359 104.063 18.5834 104.066H37.1667V125.548ZM29.7334 215.566H11.15C9.09737 215.566 7.43336 213.902 7.43336 211.849V133.799C7.43336 131.747 9.09737 130.083 11.15 130.083H29.7334C31.786 130.083 33.45 131.747 33.45 133.799V211.849C33.45 213.902 31.786 215.566 29.7334 215.566ZM207.018 154.501C209.568 153.659 212.373 154.469 214.08 156.542C214.136 156.635 214.195 156.72 214.258 156.809C215.359 158.264 215.788 160.118 215.44 161.909C215.092 163.699 213.999 165.257 212.434 166.194L142.794 208.601C139.3 210.727 135.288 211.85 131.198 211.849H40.8834V137.516H47.5734C54.431 137.524 61.0833 139.857 66.4429 144.135C73.1192 149.461 81.4029 152.369 89.9434 152.383H109.382C115.279 152.363 120.622 155.856 122.97 161.266C124.441 164.441 124.047 168.168 121.944 170.966H99.3094C91.971 170.971 84.7975 173.143 78.6893 177.21L75.9761 179.031C74.2724 180.177 73.8198 182.486 74.9652 184.19C76.1106 185.894 78.4202 186.346 80.1239 185.201L82.8148 183.395C87.7002 180.14 93.4389 178.402 99.3094 178.399H132.351C134.355 178.402 136.347 178.074 138.245 177.429L207.018 154.501ZM185.833 153.728L135.867 170.386C134.734 170.771 133.546 170.967 132.351 170.966H130.325C131.748 166.872 131.577 162.392 129.846 158.419C127.171 152.179 121.777 147.515 115.217 145.771V104.066H185.833V153.728ZM92.9167 104.066H107.783V144.949H89.9434C83.0857 144.942 76.4335 142.608 71.0738 138.33C64.3976 133.004 56.1138 130.097 47.5734 130.083H44.6V101.416L66.9 65.736L89.765 102.319C90.4442 103.406 91.6352 104.066 92.9167 104.066V104.066ZM55.75 47.896L62.5181 58.7227L38.8243 96.6327H25.2734L55.75 47.896Z" fill="#3C3C3C"/>
<path d="M167.217 3.35418e-07C165.205 -0.000845578 163.558 1.59844 163.5 3.60888V3.68693V3.71667C163.5 5.0844 163.162 37.1667 133.729 37.1667C131.677 37.1667 130.013 38.8307 130.013 40.8833C130.013 42.936 131.677 44.6 133.729 44.6C163.046 44.6 163.492 76.6897 163.5 78.05C163.472 80.1027 165.114 81.7891 167.166 81.8169C169.219 81.8446 170.906 80.203 170.933 78.1504V78.0723V78.05C170.933 76.6823 171.271 44.6 200.7 44.6C202.753 44.6 204.417 42.936 204.417 40.8833C204.417 38.8307 202.753 37.1667 200.7 37.1667C171.387 37.1667 170.937 5.07697 170.933 3.71667C170.933 1.66401 169.269 3.35418e-07 167.217 3.35418e-07ZM183.759 40.8833C176.149 44.8982 170.266 51.5541 167.217 59.6005C164.167 51.5541 158.284 44.8982 150.674 40.8833C158.284 36.8685 164.167 30.2126 167.217 22.1662C170.266 30.2126 176.149 36.8685 183.759 40.8833V40.8833Z" fill="#FCD700"/>
<path d="M174.683 118.934C172.631 118.934 170.967 120.598 170.967 122.65V142.271L151.209 148.856C149.259 149.505 148.204 151.612 148.852 153.562C149.501 155.512 151.608 156.567 153.558 155.918L175.858 148.485C177.379 147.978 178.404 146.553 178.4 144.95V122.65C178.4 120.598 176.736 118.934 174.683 118.934V118.934Z" fill="#3C3C3C"/>
<path d="M319.537 183.235V189.312H307.574V223H300.177V189.312H288.159V183.235H319.537ZM331.013 194.345C332.791 194.345 334.423 194.629 335.908 195.197C337.411 195.766 338.704 196.6 339.786 197.7C340.867 198.782 341.711 200.12 342.316 201.715C342.921 203.292 343.223 205.097 343.223 207.132C343.223 207.646 343.196 208.077 343.141 208.425C343.104 208.755 343.021 209.021 342.893 209.222C342.783 209.406 342.627 209.543 342.426 209.635C342.224 209.708 341.967 209.745 341.656 209.745H324.221C324.422 212.642 325.201 214.768 326.558 216.125C327.915 217.482 329.711 218.16 331.948 218.16C333.048 218.16 333.992 218.032 334.781 217.775C335.587 217.518 336.284 217.234 336.871 216.922C337.476 216.611 337.998 216.327 338.438 216.07C338.896 215.813 339.336 215.685 339.758 215.685C340.033 215.685 340.271 215.74 340.473 215.85C340.675 215.96 340.849 216.116 340.996 216.317L342.976 218.792C342.224 219.672 341.381 220.415 340.446 221.02C339.511 221.607 338.53 222.083 337.503 222.45C336.495 222.798 335.459 223.046 334.396 223.193C333.351 223.339 332.333 223.413 331.343 223.413C329.381 223.413 327.557 223.092 325.871 222.45C324.184 221.79 322.717 220.827 321.471 219.562C320.224 218.279 319.243 216.702 318.528 214.832C317.813 212.944 317.456 210.762 317.456 208.287C317.456 206.362 317.767 204.557 318.391 202.87C319.014 201.165 319.903 199.689 321.058 198.442C322.231 197.177 323.652 196.178 325.321 195.445C327.007 194.712 328.905 194.345 331.013 194.345ZM331.151 199.212C329.171 199.212 327.621 199.772 326.503 200.89C325.385 202.008 324.67 203.594 324.358 205.647H337.118C337.118 204.767 336.999 203.942 336.761 203.172C336.522 202.384 336.156 201.697 335.661 201.11C335.166 200.523 334.542 200.065 333.791 199.735C333.039 199.387 332.159 199.212 331.151 199.212ZM366.581 200.285C366.397 200.578 366.205 200.789 366.003 200.917C365.801 201.027 365.545 201.082 365.233 201.082C364.903 201.082 364.546 200.991 364.161 200.807C363.794 200.624 363.363 200.422 362.868 200.202C362.373 199.964 361.805 199.753 361.163 199.57C360.54 199.387 359.797 199.295 358.936 199.295C357.597 199.295 356.543 199.579 355.773 200.147C355.003 200.716 354.618 201.458 354.618 202.375C354.618 202.98 354.811 203.493 355.196 203.915C355.599 204.318 356.121 204.676 356.763 204.987C357.423 205.299 358.166 205.583 358.991 205.84C359.816 206.078 360.659 206.344 361.521 206.637C362.382 206.931 363.226 207.27 364.051 207.655C364.876 208.022 365.609 208.498 366.251 209.085C366.911 209.653 367.433 210.341 367.818 211.147C368.221 211.954 368.423 212.926 368.423 214.062C368.423 215.419 368.176 216.675 367.681 217.83C367.186 218.967 366.461 219.957 365.508 220.8C364.555 221.625 363.372 222.276 361.961 222.752C360.567 223.211 358.963 223.44 357.148 223.44C356.176 223.44 355.223 223.348 354.288 223.165C353.371 223 352.482 222.762 351.621 222.45C350.777 222.138 349.989 221.772 349.256 221.35C348.541 220.928 347.908 220.47 347.358 219.975L348.926 217.39C349.127 217.078 349.366 216.84 349.641 216.675C349.916 216.51 350.264 216.427 350.686 216.427C351.107 216.427 351.501 216.547 351.868 216.785C352.253 217.023 352.693 217.28 353.188 217.555C353.683 217.83 354.261 218.087 354.921 218.325C355.599 218.563 356.451 218.682 357.478 218.682C358.285 218.682 358.972 218.591 359.541 218.407C360.127 218.206 360.604 217.949 360.971 217.637C361.356 217.326 361.631 216.968 361.796 216.565C361.979 216.143 362.071 215.712 362.071 215.272C362.071 214.612 361.869 214.072 361.466 213.65C361.081 213.228 360.558 212.862 359.898 212.55C359.256 212.238 358.514 211.963 357.671 211.725C356.846 211.468 355.993 211.193 355.113 210.9C354.251 210.607 353.399 210.267 352.556 209.882C351.731 209.479 350.988 208.975 350.328 208.37C349.686 207.765 349.164 207.022 348.761 206.142C348.376 205.262 348.183 204.199 348.183 202.952C348.183 201.797 348.412 200.697 348.871 199.652C349.329 198.607 349.998 197.7 350.878 196.93C351.776 196.142 352.886 195.518 354.206 195.06C355.544 194.583 357.084 194.345 358.826 194.345C360.769 194.345 362.538 194.666 364.133 195.307C365.728 195.949 367.057 196.792 368.121 197.837L366.581 200.285ZM384.209 223.44C381.771 223.44 379.892 222.752 378.572 221.377C377.252 219.984 376.592 218.068 376.592 215.63V199.872H373.732C373.365 199.872 373.044 199.753 372.769 199.515C372.513 199.277 372.384 198.919 372.384 198.442V195.747L376.922 195.005L378.352 187.305C378.425 186.938 378.59 186.654 378.847 186.452C379.122 186.251 379.461 186.15 379.864 186.15H383.384V195.032H390.809V199.872H383.384V215.162C383.384 216.042 383.604 216.73 384.044 217.225C384.484 217.72 385.071 217.967 385.804 217.967C386.226 217.967 386.574 217.922 386.849 217.83C387.143 217.72 387.39 217.61 387.592 217.5C387.812 217.39 388.004 217.289 388.169 217.197C388.334 217.087 388.499 217.032 388.664 217.032C388.866 217.032 389.031 217.087 389.159 217.197C389.288 217.289 389.425 217.436 389.572 217.637L391.607 220.937C390.617 221.762 389.48 222.386 388.197 222.807C386.913 223.229 385.584 223.44 384.209 223.44ZM447.574 203.117C447.574 206.032 447.088 208.737 446.116 211.23C445.144 213.705 443.779 215.85 442.019 217.665C440.259 219.48 438.141 220.901 435.666 221.927C433.191 222.936 430.45 223.44 427.444 223.44C424.437 223.44 421.687 222.936 419.194 221.927C416.719 220.901 414.592 219.48 412.814 217.665C411.054 215.85 409.688 213.705 408.716 211.23C407.744 208.737 407.259 206.032 407.259 203.117C407.259 200.202 407.744 197.507 408.716 195.032C409.688 192.539 411.054 190.385 412.814 188.57C414.592 186.755 416.719 185.343 419.194 184.335C421.687 183.308 424.437 182.795 427.444 182.795C430.45 182.795 433.191 183.308 435.666 184.335C438.141 185.362 440.259 186.782 442.019 188.597C443.779 190.394 445.144 192.539 446.116 195.032C447.088 197.507 447.574 200.202 447.574 203.117ZM439.984 203.117C439.984 200.936 439.69 198.983 439.104 197.26C438.535 195.518 437.71 194.042 436.629 192.832C435.547 191.622 434.227 190.697 432.669 190.055C431.129 189.413 429.387 189.092 427.444 189.092C425.5 189.092 423.749 189.413 422.191 190.055C420.633 190.697 419.304 191.622 418.204 192.832C417.122 194.042 416.288 195.518 415.701 197.26C415.114 198.983 414.821 200.936 414.821 203.117C414.821 205.299 415.114 207.261 415.701 209.002C416.288 210.726 417.122 212.192 418.204 213.402C419.304 214.594 420.633 215.511 422.191 216.152C423.749 216.794 425.5 217.115 427.444 217.115C429.387 217.115 431.129 216.794 432.669 216.152C434.227 215.511 435.547 214.594 436.629 213.402C437.71 212.192 438.535 210.726 439.104 209.002C439.69 207.261 439.984 205.299 439.984 203.117ZM460.35 194.785V212.715C460.35 214.438 460.745 215.777 461.533 216.73C462.34 217.665 463.54 218.132 465.135 218.132C466.309 218.132 467.409 217.876 468.435 217.362C469.462 216.831 470.434 216.107 471.35 215.19V194.785H478.143V223H473.99C473.11 223 472.533 222.587 472.258 221.762L471.79 219.507C471.204 220.094 470.599 220.635 469.975 221.13C469.352 221.607 468.683 222.019 467.968 222.367C467.271 222.697 466.51 222.954 465.685 223.138C464.879 223.339 464.008 223.44 463.073 223.44C461.533 223.44 460.167 223.183 458.975 222.67C457.802 222.138 456.812 221.396 456.005 220.442C455.199 219.489 454.585 218.362 454.163 217.06C453.76 215.74 453.558 214.292 453.558 212.715V194.785H460.35ZM486.495 223V194.785H490.483C491.179 194.785 491.665 194.913 491.94 195.17C492.215 195.427 492.398 195.867 492.49 196.49L492.903 199.9C493.911 198.158 495.093 196.783 496.45 195.775C497.807 194.767 499.328 194.262 501.015 194.262C502.408 194.262 503.563 194.583 504.48 195.225L503.6 200.312C503.545 200.642 503.426 200.881 503.243 201.027C503.059 201.156 502.812 201.22 502.5 201.22C502.225 201.22 501.849 201.156 501.373 201.027C500.896 200.899 500.263 200.835 499.475 200.835C498.063 200.835 496.853 201.229 495.845 202.017C494.837 202.787 493.984 203.924 493.288 205.427V223H486.495ZM529.811 209.002V223H522.414V183.235H535.366C538.024 183.235 540.325 183.547 542.269 184.17C544.212 184.793 545.816 185.664 547.081 186.782C548.346 187.901 549.281 189.239 549.886 190.797C550.491 192.356 550.794 194.061 550.794 195.912C550.794 197.837 550.473 199.607 549.831 201.22C549.189 202.815 548.227 204.19 546.944 205.345C545.66 206.5 544.056 207.398 542.131 208.04C540.206 208.682 537.951 209.002 535.366 209.002H529.811ZM529.811 203.227H535.366C536.723 203.227 537.905 203.062 538.914 202.732C539.922 202.384 540.756 201.898 541.416 201.275C542.076 200.633 542.571 199.863 542.901 198.965C543.231 198.048 543.396 197.031 543.396 195.912C543.396 194.849 543.231 193.887 542.901 193.025C542.571 192.163 542.076 191.43 541.416 190.825C540.756 190.22 539.922 189.762 538.914 189.45C537.905 189.12 536.723 188.955 535.366 188.955H529.811V203.227ZM577.97 223H574.917C574.275 223 573.771 222.908 573.405 222.725C573.038 222.523 572.763 222.129 572.58 221.542L571.975 219.535C571.26 220.177 570.554 220.745 569.857 221.24C569.179 221.717 568.473 222.12 567.74 222.45C567.006 222.78 566.227 223.028 565.402 223.193C564.577 223.358 563.66 223.44 562.652 223.44C561.46 223.44 560.36 223.284 559.352 222.972C558.344 222.642 557.473 222.157 556.74 221.515C556.025 220.873 555.465 220.076 555.062 219.122C554.659 218.169 554.457 217.06 554.457 215.795C554.457 214.732 554.732 213.687 555.282 212.66C555.85 211.615 556.785 210.68 558.087 209.855C559.389 209.012 561.121 208.315 563.285 207.765C565.448 207.215 568.134 206.903 571.342 206.83V205.18C571.342 203.292 570.939 201.898 570.132 201C569.344 200.083 568.189 199.625 566.667 199.625C565.567 199.625 564.65 199.753 563.917 200.01C563.184 200.267 562.542 200.56 561.992 200.89C561.46 201.202 560.965 201.486 560.507 201.742C560.049 201.999 559.545 202.127 558.995 202.127C558.536 202.127 558.142 202.008 557.812 201.77C557.482 201.532 557.216 201.238 557.015 200.89L555.777 198.717C559.022 195.747 562.936 194.262 567.52 194.262C569.17 194.262 570.636 194.537 571.92 195.087C573.221 195.619 574.321 196.371 575.22 197.342C576.118 198.296 576.796 199.442 577.255 200.78C577.731 202.118 577.97 203.585 577.97 205.18V223ZM564.77 218.765C565.466 218.765 566.108 218.701 566.695 218.572C567.281 218.444 567.831 218.252 568.345 217.995C568.876 217.738 569.38 217.427 569.857 217.06C570.352 216.675 570.847 216.226 571.342 215.712V210.955C569.362 211.047 567.703 211.221 566.365 211.477C565.045 211.716 563.981 212.027 563.175 212.412C562.368 212.797 561.79 213.247 561.442 213.76C561.112 214.273 560.947 214.832 560.947 215.437C560.947 216.629 561.295 217.482 561.992 217.995C562.707 218.508 563.633 218.765 564.77 218.765ZM602.496 200.285C602.313 200.578 602.12 200.789 601.919 200.917C601.717 201.027 601.46 201.082 601.149 201.082C600.819 201.082 600.461 200.991 600.076 200.807C599.709 200.624 599.279 200.422 598.784 200.202C598.289 199.964 597.72 199.753 597.079 199.57C596.455 199.387 595.713 199.295 594.851 199.295C593.513 199.295 592.459 199.579 591.689 200.147C590.919 200.716 590.534 201.458 590.534 202.375C590.534 202.98 590.726 203.493 591.111 203.915C591.514 204.318 592.037 204.676 592.679 204.987C593.339 205.299 594.081 205.583 594.906 205.84C595.731 206.078 596.574 206.344 597.436 206.637C598.298 206.931 599.141 207.27 599.966 207.655C600.791 208.022 601.524 208.498 602.166 209.085C602.826 209.653 603.349 210.341 603.734 211.147C604.137 211.954 604.339 212.926 604.339 214.062C604.339 215.419 604.091 216.675 603.596 217.83C603.101 218.967 602.377 219.957 601.424 220.8C600.47 221.625 599.288 222.276 597.876 222.752C596.483 223.211 594.879 223.44 593.064 223.44C592.092 223.44 591.139 223.348 590.204 223.165C589.287 223 588.398 222.762 587.536 222.45C586.693 222.138 585.904 221.772 585.171 221.35C584.456 220.928 583.824 220.47 583.274 219.975L584.841 217.39C585.043 217.078 585.281 216.84 585.556 216.675C585.831 216.51 586.179 216.427 586.601 216.427C587.023 216.427 587.417 216.547 587.784 216.785C588.169 217.023 588.609 217.28 589.104 217.555C589.599 217.83 590.176 218.087 590.836 218.325C591.514 218.563 592.367 218.682 593.394 218.682C594.2 218.682 594.888 218.591 595.456 218.407C596.043 218.206 596.519 217.949 596.886 217.637C597.271 217.326 597.546 216.968 597.711 216.565C597.894 216.143 597.986 215.712 597.986 215.272C597.986 214.612 597.784 214.072 597.381 213.65C596.996 213.228 596.474 212.862 595.814 212.55C595.172 212.238 594.429 211.963 593.586 211.725C592.761 211.468 591.909 211.193 591.029 210.9C590.167 210.607 589.314 210.267 588.471 209.882C587.646 209.479 586.904 208.975 586.244 208.37C585.602 207.765 585.079 207.022 584.676 206.142C584.291 205.262 584.099 204.199 584.099 202.952C584.099 201.797 584.328 200.697 584.786 199.652C585.244 198.607 585.914 197.7 586.794 196.93C587.692 196.142 588.801 195.518 590.121 195.06C591.459 194.583 592.999 194.345 594.741 194.345C596.684 194.345 598.454 194.666 600.049 195.307C601.644 195.949 602.973 196.792 604.036 197.837L602.496 200.285ZM627.605 200.285C627.422 200.578 627.229 200.789 627.027 200.917C626.826 201.027 626.569 201.082 626.257 201.082C625.927 201.082 625.57 200.991 625.185 200.807C624.818 200.624 624.387 200.422 623.892 200.202C623.397 199.964 622.829 199.753 622.187 199.57C621.564 199.387 620.822 199.295 619.96 199.295C618.622 199.295 617.567 199.579 616.797 200.147C616.027 200.716 615.642 201.458 615.642 202.375C615.642 202.98 615.835 203.493 616.22 203.915C616.623 204.318 617.146 204.676 617.787 204.987C618.447 205.299 619.19 205.583 620.015 205.84C620.84 206.078 621.683 206.344 622.545 206.637C623.407 206.931 624.25 207.27 625.075 207.655C625.9 208.022 626.633 208.498 627.275 209.085C627.935 209.653 628.457 210.341 628.842 211.147C629.246 211.954 629.447 212.926 629.447 214.062C629.447 215.419 629.2 216.675 628.705 217.83C628.21 218.967 627.486 219.957 626.532 220.8C625.579 221.625 624.397 222.276 622.985 222.752C621.592 223.211 619.987 223.44 618.172 223.44C617.201 223.44 616.247 223.348 615.312 223.165C614.396 223 613.507 222.762 612.645 222.45C611.802 222.138 611.013 221.772 610.28 221.35C609.565 220.928 608.932 220.47 608.382 219.975L609.95 217.39C610.152 217.078 610.39 216.84 610.665 216.675C610.94 216.51 611.288 216.427 611.71 216.427C612.132 216.427 612.526 216.547 612.892 216.785C613.277 217.023 613.717 217.28 614.212 217.555C614.707 217.83 615.285 218.087 615.945 218.325C616.623 218.563 617.476 218.682 618.502 218.682C619.309 218.682 619.997 218.591 620.565 218.407C621.152 218.206 621.628 217.949 621.995 217.637C622.38 217.326 622.655 216.968 622.82 216.565C623.003 216.143 623.095 215.712 623.095 215.272C623.095 214.612 622.893 214.072 622.49 213.65C622.105 213.228 621.582 212.862 620.922 212.55C620.281 212.238 619.538 211.963 618.695 211.725C617.87 211.468 617.017 211.193 616.137 210.9C615.276 210.607 614.423 210.267 613.58 209.882C612.755 209.479 612.012 208.975 611.352 208.37C610.711 207.765 610.188 207.022 609.785 206.142C609.4 205.262 609.207 204.199 609.207 202.952C609.207 201.797 609.437 200.697 609.895 199.652C610.353 198.607 611.022 197.7 611.902 196.93C612.801 196.142 613.91 195.518 615.23 195.06C616.568 194.583 618.108 194.345 619.85 194.345C621.793 194.345 623.562 194.666 625.157 195.307C626.752 195.949 628.082 196.792 629.145 197.837L627.605 200.285ZM643.199 194.785V223H636.406V194.785H643.199ZM644.216 186.562C644.216 187.149 644.097 187.699 643.859 188.212C643.62 188.726 643.3 189.175 642.896 189.56C642.511 189.945 642.053 190.257 641.521 190.495C640.99 190.715 640.421 190.825 639.816 190.825C639.23 190.825 638.67 190.715 638.139 190.495C637.625 190.257 637.176 189.945 636.791 189.56C636.406 189.175 636.095 188.726 635.856 188.212C635.636 187.699 635.526 187.149 635.526 186.562C635.526 185.957 635.636 185.389 635.856 184.857C636.095 184.326 636.406 183.867 636.791 183.482C637.176 183.097 637.625 182.795 638.139 182.575C638.67 182.337 639.23 182.217 639.816 182.217C640.421 182.217 640.99 182.337 641.521 182.575C642.053 182.795 642.511 183.097 642.896 183.482C643.3 183.867 643.62 184.326 643.859 184.857C644.097 185.389 644.216 185.957 644.216 186.562ZM664.043 194.345C666.151 194.345 668.058 194.684 669.763 195.363C671.486 196.041 672.953 197.003 674.163 198.25C675.373 199.497 676.308 201.018 676.968 202.815C677.628 204.612 677.958 206.619 677.958 208.837C677.958 211.074 677.628 213.091 676.968 214.887C676.308 216.684 675.373 218.215 674.163 219.48C672.953 220.745 671.486 221.717 669.763 222.395C668.058 223.073 666.151 223.413 664.043 223.413C661.935 223.413 660.019 223.073 658.295 222.395C656.572 221.717 655.096 220.745 653.868 219.48C652.658 218.215 651.714 216.684 651.035 214.887C650.375 213.091 650.045 211.074 650.045 208.837C650.045 206.619 650.375 204.612 651.035 202.815C651.714 201.018 652.658 199.497 653.868 198.25C655.096 197.003 656.572 196.041 658.295 195.363C660.019 194.684 661.935 194.345 664.043 194.345ZM664.043 218.187C666.39 218.187 668.122 217.399 669.24 215.822C670.377 214.246 670.945 211.936 670.945 208.892C670.945 205.849 670.377 203.53 669.24 201.935C668.122 200.34 666.39 199.542 664.043 199.542C661.66 199.542 659.9 200.349 658.763 201.962C657.626 203.557 657.058 205.867 657.058 208.892C657.058 211.917 657.626 214.227 658.763 215.822C659.9 217.399 661.66 218.187 664.043 218.187ZM684.358 223V194.785H688.51C689.39 194.785 689.968 195.197 690.243 196.022L690.71 198.25C691.278 197.663 691.874 197.132 692.498 196.655C693.139 196.178 693.808 195.766 694.505 195.417C695.22 195.069 695.981 194.803 696.788 194.62C697.594 194.437 698.474 194.345 699.428 194.345C700.968 194.345 702.333 194.611 703.525 195.142C704.717 195.656 705.707 196.389 706.495 197.342C707.302 198.277 707.907 199.405 708.31 200.725C708.732 202.027 708.943 203.466 708.943 205.042V223H702.15V205.042C702.15 203.319 701.747 201.99 700.94 201.055C700.152 200.102 698.96 199.625 697.365 199.625C696.192 199.625 695.092 199.891 694.065 200.422C693.038 200.954 692.067 201.678 691.15 202.595V223H684.358ZM753.917 183.235V189.12H736.29V200.89H751.167V206.802H736.29V223H728.837V183.235H753.917ZM770.708 194.345C772.817 194.345 774.723 194.684 776.428 195.363C778.152 196.041 779.618 197.003 780.828 198.25C782.038 199.497 782.973 201.018 783.633 202.815C784.293 204.612 784.623 206.619 784.623 208.837C784.623 211.074 784.293 213.091 783.633 214.887C782.973 216.684 782.038 218.215 780.828 219.48C779.618 220.745 778.152 221.717 776.428 222.395C774.723 223.073 772.817 223.413 770.708 223.413C768.6 223.413 766.684 223.073 764.961 222.395C763.238 221.717 761.762 220.745 760.533 219.48C759.323 218.215 758.379 216.684 757.701 214.887C757.041 213.091 756.711 211.074 756.711 208.837C756.711 206.619 757.041 204.612 757.701 202.815C758.379 201.018 759.323 199.497 760.533 198.25C761.762 197.003 763.238 196.041 764.961 195.363C766.684 194.684 768.6 194.345 770.708 194.345ZM770.708 218.187C773.055 218.187 774.788 217.399 775.906 215.822C777.043 214.246 777.611 211.936 777.611 208.892C777.611 205.849 777.043 203.53 775.906 201.935C774.788 200.34 773.055 199.542 770.708 199.542C768.325 199.542 766.565 200.349 765.428 201.962C764.292 203.557 763.723 205.867 763.723 208.892C763.723 211.917 764.292 214.227 765.428 215.822C766.565 217.399 768.325 218.187 770.708 218.187ZM791.023 223V194.785H795.011C795.707 194.785 796.193 194.913 796.468 195.17C796.743 195.427 796.927 195.867 797.018 196.49L797.431 199.9C798.439 198.158 799.622 196.783 800.978 195.775C802.335 194.767 803.857 194.262 805.543 194.262C806.937 194.262 808.092 194.583 809.008 195.225L808.128 200.312C808.073 200.642 807.954 200.881 807.771 201.027C807.587 201.156 807.34 201.22 807.028 201.22C806.753 201.22 806.377 201.156 805.901 201.027C805.424 200.899 804.792 200.835 804.003 200.835C802.592 200.835 801.382 201.229 800.373 202.017C799.365 202.787 798.512 203.924 797.816 205.427V223H791.023ZM854.029 213.622C854.433 213.622 854.781 213.778 855.074 214.09L857.989 217.252C856.376 219.251 854.387 220.782 852.022 221.845C849.675 222.908 846.852 223.44 843.552 223.44C840.6 223.44 837.942 222.936 835.577 221.927C833.23 220.919 831.223 219.517 829.554 217.72C827.886 215.923 826.603 213.778 825.704 211.285C824.824 208.792 824.384 206.069 824.384 203.117C824.384 200.129 824.879 197.397 825.869 194.922C826.859 192.429 828.253 190.284 830.049 188.487C831.846 186.691 833.991 185.297 836.484 184.307C838.996 183.299 841.764 182.795 844.789 182.795C847.741 182.795 850.317 183.272 852.517 184.225C854.735 185.16 856.633 186.407 858.209 187.965L855.734 191.402C855.588 191.622 855.395 191.815 855.157 191.98C854.937 192.145 854.625 192.227 854.222 192.227C853.8 192.227 853.369 192.062 852.929 191.732C852.489 191.402 851.93 191.045 851.252 190.66C850.573 190.275 849.712 189.917 848.667 189.587C847.64 189.257 846.329 189.092 844.734 189.092C842.864 189.092 841.141 189.422 839.564 190.082C838.006 190.724 836.658 191.65 835.522 192.86C834.403 194.07 833.523 195.546 832.882 197.287C832.258 199.011 831.947 200.954 831.947 203.117C831.947 205.354 832.258 207.343 832.882 209.085C833.523 210.827 834.385 212.293 835.467 213.485C836.548 214.677 837.823 215.593 839.289 216.235C840.756 216.858 842.333 217.17 844.019 217.17C845.028 217.17 845.935 217.115 846.742 217.005C847.567 216.895 848.318 216.721 848.997 216.482C849.693 216.244 850.344 215.942 850.949 215.575C851.573 215.19 852.187 214.722 852.792 214.172C852.975 214.007 853.168 213.879 853.369 213.787C853.571 213.677 853.791 213.622 854.029 213.622ZM871.541 182.135V223H864.749V182.135H871.541ZM892 194.345C893.779 194.345 895.41 194.629 896.895 195.197C898.399 195.766 899.691 196.6 900.773 197.7C901.854 198.782 902.698 200.12 903.303 201.715C903.908 203.292 904.21 205.097 904.21 207.132C904.21 207.646 904.183 208.077 904.128 208.425C904.091 208.755 904.009 209.021 903.88 209.222C903.77 209.406 903.614 209.543 903.413 209.635C903.211 209.708 902.954 209.745 902.643 209.745H885.208C885.409 212.642 886.189 214.768 887.545 216.125C888.902 217.482 890.699 218.16 892.935 218.16C894.035 218.16 894.979 218.032 895.768 217.775C896.574 217.518 897.271 217.234 897.858 216.922C898.463 216.611 898.985 216.327 899.425 216.07C899.884 215.813 900.324 215.685 900.745 215.685C901.02 215.685 901.259 215.74 901.46 215.85C901.662 215.96 901.836 216.116 901.983 216.317L903.963 218.792C903.211 219.672 902.368 220.415 901.433 221.02C900.498 221.607 899.517 222.083 898.49 222.45C897.482 222.798 896.446 223.046 895.383 223.193C894.338 223.339 893.32 223.413 892.33 223.413C890.369 223.413 888.544 223.092 886.858 222.45C885.171 221.79 883.704 220.827 882.458 219.562C881.211 218.279 880.23 216.702 879.515 214.832C878.8 212.944 878.443 210.762 878.443 208.287C878.443 206.362 878.754 204.557 879.378 202.87C880.001 201.165 880.89 199.689 882.045 198.442C883.219 197.177 884.639 196.178 886.308 195.445C887.994 194.712 889.892 194.345 892 194.345ZM892.138 199.212C890.158 199.212 888.609 199.772 887.49 200.89C886.372 202.008 885.657 203.594 885.345 205.647H898.105C898.105 204.767 897.986 203.942 897.748 203.172C897.509 202.384 897.143 201.697 896.648 201.11C896.153 200.523 895.529 200.065 894.778 199.735C894.026 199.387 893.146 199.212 892.138 199.212ZM932.93 223H929.878C929.236 223 928.732 222.908 928.365 222.725C927.998 222.523 927.723 222.129 927.54 221.542L926.935 219.535C926.22 220.177 925.514 220.745 924.818 221.24C924.139 221.717 923.433 222.12 922.7 222.45C921.967 222.78 921.188 223.028 920.363 223.193C919.538 223.358 918.621 223.44 917.613 223.44C916.421 223.44 915.321 223.284 914.313 222.972C913.304 222.642 912.433 222.157 911.7 221.515C910.985 220.873 910.426 220.076 910.023 219.122C909.619 218.169 909.418 217.06 909.418 215.795C909.418 214.732 909.693 213.687 910.243 212.66C910.811 211.615 911.746 210.68 913.048 209.855C914.349 209.012 916.082 208.315 918.245 207.765C920.408 207.215 923.094 206.903 926.303 206.83V205.18C926.303 203.292 925.899 201.898 925.093 201C924.304 200.083 923.149 199.625 921.628 199.625C920.528 199.625 919.611 199.753 918.878 200.01C918.144 200.267 917.503 200.56 916.953 200.89C916.421 201.202 915.926 201.486 915.468 201.742C915.009 201.999 914.505 202.127 913.955 202.127C913.497 202.127 913.103 202.008 912.773 201.77C912.443 201.532 912.177 201.238 911.975 200.89L910.738 198.717C913.983 195.747 917.897 194.262 922.48 194.262C924.13 194.262 925.597 194.537 926.88 195.087C928.182 195.619 929.282 196.371 930.18 197.342C931.078 198.296 931.757 199.442 932.215 200.78C932.692 202.118 932.93 203.585 932.93 205.18V223ZM919.73 218.765C920.427 218.765 921.068 218.701 921.655 218.572C922.242 218.444 922.792 218.252 923.305 217.995C923.837 217.738 924.341 217.427 924.818 217.06C925.313 216.675 925.808 216.226 926.303 215.712V210.955C924.323 211.047 922.663 211.221 921.325 211.477C920.005 211.716 918.942 212.027 918.135 212.412C917.328 212.797 916.751 213.247 916.403 213.76C916.073 214.273 915.908 214.832 915.908 215.437C915.908 216.629 916.256 217.482 916.953 217.995C917.668 218.508 918.593 218.765 919.73 218.765ZM940.709 223V194.785H944.862C945.742 194.785 946.319 195.197 946.594 196.022L947.062 198.25C947.63 197.663 948.226 197.132 948.849 196.655C949.491 196.178 950.16 195.766 950.857 195.417C951.572 195.069 952.333 194.803 953.139 194.62C953.946 194.437 954.826 194.345 955.779 194.345C957.319 194.345 958.685 194.611 959.877 195.142C961.068 195.656 962.058 196.389 962.847 197.342C963.653 198.277 964.258 199.405 964.662 200.725C965.083 202.027 965.294 203.466 965.294 205.042V223H958.502V205.042C958.502 203.319 958.098 201.99 957.292 201.055C956.503 200.102 955.312 199.625 953.717 199.625C952.543 199.625 951.443 199.891 950.417 200.422C949.39 200.954 948.418 201.678 947.502 202.595V223H940.709ZM980.301 194.785V223H973.509V194.785H980.301ZM981.319 186.562C981.319 187.149 981.2 187.699 980.961 188.212C980.723 188.726 980.402 189.175 979.999 189.56C979.614 189.945 979.156 190.257 978.624 190.495C978.092 190.715 977.524 190.825 976.919 190.825C976.332 190.825 975.773 190.715 975.241 190.495C974.728 190.257 974.279 189.945 973.894 189.56C973.509 189.175 973.197 188.726 972.959 188.212C972.739 187.699 972.629 187.149 972.629 186.562C972.629 185.957 972.739 185.389 972.959 184.857C973.197 184.326 973.509 183.867 973.894 183.482C974.279 183.097 974.728 182.795 975.241 182.575C975.773 182.337 976.332 182.217 976.919 182.217C977.524 182.217 978.092 182.337 978.624 182.575C979.156 182.795 979.614 183.097 979.999 183.482C980.402 183.867 980.723 184.326 980.961 184.857C981.2 185.389 981.319 185.957 981.319 186.562ZM989.101 223V194.785H993.253C994.133 194.785 994.711 195.197 994.986 196.022L995.453 198.25C996.021 197.663 996.617 197.132 997.241 196.655C997.882 196.178 998.551 195.766 999.248 195.417C999.963 195.069 1000.72 194.803 1001.53 194.62C1002.34 194.437 1003.22 194.345 1004.17 194.345C1005.71 194.345 1007.08 194.611 1008.27 195.142C1009.46 195.656 1010.45 196.389 1011.24 197.342C1012.04 198.277 1012.65 199.405 1013.05 200.725C1013.47 202.027 1013.69 203.466 1013.69 205.042V223H1006.89V205.042C1006.89 203.319 1006.49 201.99 1005.68 201.055C1004.89 200.102 1003.7 199.625 1002.11 199.625C1000.93 199.625 999.835 199.891 998.808 200.422C997.781 200.954 996.81 201.678 995.893 202.595V223H989.101ZM1031.22 194.29C1032.43 194.29 1033.57 194.418 1034.63 194.675C1035.7 194.913 1036.67 195.271 1037.55 195.747H1045.66V198.277C1045.66 198.699 1045.55 199.029 1045.33 199.267C1045.11 199.506 1044.73 199.671 1044.2 199.762L1041.67 200.23C1041.86 200.707 1041.99 201.211 1042.09 201.742C1042.2 202.274 1042.25 202.833 1042.25 203.42C1042.25 204.813 1041.97 206.078 1041.4 207.215C1040.85 208.333 1040.08 209.287 1039.09 210.075C1038.12 210.863 1036.95 211.477 1035.6 211.917C1034.26 212.339 1032.8 212.55 1031.22 212.55C1030.16 212.55 1029.12 212.449 1028.12 212.247C1027.24 212.779 1026.8 213.375 1026.8 214.035C1026.8 214.603 1027.05 215.025 1027.57 215.3C1028.1 215.557 1028.78 215.74 1029.63 215.85C1030.49 215.96 1031.46 216.033 1032.54 216.07C1033.62 216.088 1034.73 216.143 1035.87 216.235C1037.01 216.327 1038.12 216.492 1039.2 216.73C1040.28 216.95 1041.24 217.307 1042.09 217.802C1042.95 218.297 1043.63 218.976 1044.15 219.837C1044.68 220.681 1044.95 221.772 1044.95 223.11C1044.95 224.357 1044.63 225.567 1044.01 226.74C1043.41 227.913 1042.52 228.958 1041.34 229.875C1040.19 230.792 1038.77 231.525 1037.08 232.075C1035.39 232.643 1033.47 232.928 1031.31 232.928C1029.16 232.928 1027.3 232.717 1025.72 232.295C1024.15 231.892 1022.84 231.342 1021.79 230.645C1020.76 229.967 1019.99 229.178 1019.48 228.28C1018.97 227.382 1018.71 226.447 1018.71 225.475C1018.71 224.155 1019.11 223.046 1019.92 222.147C1020.73 221.249 1021.85 220.534 1023.28 220.002C1022.58 219.617 1022.02 219.104 1021.6 218.462C1021.18 217.821 1020.97 216.987 1020.97 215.96C1020.97 215.538 1021.04 215.107 1021.19 214.667C1021.33 214.209 1021.55 213.76 1021.85 213.32C1022.16 212.88 1022.54 212.467 1023 212.082C1023.46 211.679 1024 211.322 1024.62 211.01C1023.19 210.24 1022.07 209.213 1021.24 207.93C1020.43 206.647 1020.03 205.143 1020.03 203.42C1020.03 202.027 1020.31 200.771 1020.86 199.652C1021.42 198.516 1022.2 197.553 1023.19 196.765C1024.2 195.958 1025.38 195.344 1026.74 194.922C1028.12 194.501 1029.61 194.29 1031.22 194.29ZM1038.68 224.265C1038.68 223.715 1038.51 223.266 1038.18 222.917C1037.85 222.569 1037.4 222.303 1036.83 222.12C1036.26 221.918 1035.6 221.772 1034.83 221.68C1034.07 221.588 1033.27 221.524 1032.41 221.487C1031.56 221.432 1030.68 221.387 1029.77 221.35C1028.87 221.295 1028 221.212 1027.15 221.102C1026.38 221.524 1025.76 222.028 1025.28 222.615C1024.82 223.183 1024.6 223.843 1024.6 224.595C1024.6 225.09 1024.71 225.548 1024.95 225.97C1025.21 226.41 1025.6 226.786 1026.14 227.098C1026.69 227.409 1027.39 227.648 1028.25 227.813C1029.11 227.996 1030.17 228.088 1031.42 228.088C1032.68 228.088 1033.77 227.987 1034.69 227.785C1035.6 227.602 1036.36 227.336 1036.94 226.988C1037.55 226.658 1037.99 226.254 1038.26 225.778C1038.54 225.319 1038.68 224.815 1038.68 224.265ZM1031.22 208.205C1032.07 208.205 1032.8 208.095 1033.42 207.875C1034.05 207.637 1034.56 207.316 1034.96 206.912C1035.38 206.509 1035.7 206.023 1035.9 205.455C1036.12 204.887 1036.23 204.263 1036.23 203.585C1036.23 202.192 1035.81 201.092 1034.96 200.285C1034.14 199.46 1032.89 199.047 1031.22 199.047C1029.55 199.047 1028.3 199.46 1027.46 200.285C1026.63 201.092 1026.22 202.192 1026.22 203.585C1026.22 204.245 1026.32 204.859 1026.52 205.427C1026.74 205.996 1027.05 206.491 1027.46 206.912C1027.88 207.316 1028.4 207.637 1029.02 207.875C1029.66 208.095 1030.4 208.205 1031.22 208.205ZM1060.6 183.235V198.965C1060.6 200.633 1060.51 202.274 1060.35 203.887C1060.18 205.482 1059.96 207.178 1059.69 208.975H1055.1C1054.82 207.178 1054.6 205.482 1054.44 203.887C1054.27 202.274 1054.19 200.633 1054.19 198.965V183.235H1060.6ZM1053.14 219.26C1053.14 218.692 1053.25 218.151 1053.45 217.637C1053.67 217.124 1053.96 216.684 1054.33 216.317C1054.71 215.951 1055.16 215.657 1055.67 215.437C1056.19 215.217 1056.74 215.107 1057.32 215.107C1057.89 215.107 1058.43 215.217 1058.95 215.437C1059.46 215.657 1059.9 215.951 1060.27 216.317C1060.63 216.684 1060.93 217.124 1061.15 217.637C1061.37 218.151 1061.48 218.692 1061.48 219.26C1061.48 219.847 1061.37 220.397 1061.15 220.91C1060.93 221.405 1060.63 221.836 1060.27 222.202C1059.9 222.569 1059.46 222.853 1058.95 223.055C1058.43 223.275 1057.89 223.385 1057.32 223.385C1056.74 223.385 1056.19 223.275 1055.67 223.055C1055.16 222.853 1054.71 222.569 1054.33 222.202C1053.96 221.836 1053.67 221.405 1053.45 220.91C1053.25 220.397 1053.14 219.847 1053.14 219.26Z" fill="#3C3C3C" fill-opacity="0.6"/>
</svg>
